<?xml version="1.0" standalone="no"?>
<!DOCTYPE svg PUBLIC "-//W3C//DTD SVG 20010904//EN"
 "http://www.w3.org/TR/2001/REC-SVG-20010904/DTD/svg10.dtd">
<svg version="1.0" xmlns="http://www.w3.org/2000/svg"
 width="700.000000pt" height="700.000000pt" viewBox="0 0 700.000000 700.000000"
 preserveAspectRatio="xMidYMid meet">
<metadata>
Created by potrace 1.14, written by Peter Selinger 2001-2017
</metadata>
<g transform="translate(0.000000,700.000000) scale(0.100000,-0.100000)"
fill="#000000" stroke="none">
<path d="M1071 6602 c3 -86 8 -135 16 -143 8 -8 63 -16 140 -21 250 -16 379
-56 462 -143 29 -30 52 -58 53 -62 0 -4 4 -17 8 -28 35 -92 35 -113 35 -2655
0 -2353 -1 -2490 -18 -2570 -23 -111 -58 -180 -114 -229 -76 -67 -193 -100
-449 -124 l-129 -12 0 -127 c0 -91 4 -131 13 -140 10 -10 55 -12 200 -8 305 8
1662 6 2147 -4 328 -6 488 -6 590 3 606 51 1040 217 1385 530 481 437 659
1119 453 1746 -72 220 -156 364 -299 515 -95 99 -227 205 -244 195 -6 -3 -9
-1 -8 7 2 7 -5 12 -14 12 -10 -1 -16 3 -15 10 1 6 -6 10 -15 10 -10 -1 -16 3
-15 10 1 6 -6 10 -15 10 -10 -1 -16 3 -15 10 1 6 -6 10 -16 10 -10 -1 -16 1
-13 4 10 9 -33 34 -46 26 -7 -4 -8 -3 -4 4 6 11 -6 16 -26 13 -5 0 -8 4 -8 10
0 5 -4 8 -9 5 -5 -4 -11 -2 -13 3 -4 10 -128 74 -128 65 0 -3 -16 4 -35 16
-19 12 -35 19 -35 16 0 -3 -21 4 -48 15 -67 30 -245 82 -407 119 -77 17 -141
33 -142 34 -2 1 57 28 130 60 262 113 441 231 617 406 255 254 397 558 441
946 20 176 -9 400 -77 597 -73 210 -213 410 -393 559 -89 74 -121 94 -105 66
4 -8 3 -10 -2 -5 -5 5 -9 14 -9 20 0 7 -8 11 -17 11 -10 -1 -16 3 -15 10 1 6
-6 10 -15 10 -10 -1 -16 2 -13 6 6 9 -70 51 -79 43 -3 -3 -6 -1 -6 6 0 7 -4 9
-10 6 -5 -3 -10 -1 -10 5 0 6 -4 8 -10 5 -6 -3 -10 -2 -10 4 0 10 -38 27 -52
23 -5 -1 -8 3 -8 10 0 6 -3 8 -6 5 -4 -4 -19 0 -33 7 -117 61 -366 127 -606
163 -109 16 -230 17 -1345 18 -674 0 -1308 4 -1409 9 l-183 9 3 -131z m2552
-177 c146 -19 244 -47 362 -105 114 -55 211 -131 280 -219 26 -33 51 -58 56
-55 5 3 6 -1 4 -9 -3 -7 5 -25 19 -40 13 -14 21 -28 18 -31 -3 -3 0 -6 7 -6 7
0 9 -4 6 -10 -3 -5 -1 -10 5 -10 6 0 8 -4 5 -10 -3 -5 -1 -10 6 -10 7 0 9 -3
6 -7 -4 -3 -1 -16 6 -27 24 -37 68 -188 89 -306 29 -165 36 -470 14 -654 -18
-154 -54 -329 -93 -445 -106 -316 -342 -545 -655 -635 -167 -48 -266 -58 -660
-63 l-368 -5 0 1003 c0 1211 6 1325 80 1475 47 96 124 142 280 169 103 18 401
18 533 0z m1442 -195 c33 -33 57 -60 54 -60 -2 0 -31 27 -64 60 -33 33 -57 60
-54 60 2 0 31 -27 64 -60z m-824 -67 c13 -16 12 -17 -3 -4 -10 7 -18 15 -18
17 0 8 8 3 21 -13z m-1554 -305 c-3 -7 -5 -2 -5 12 0 14 2 19 5 13 2 -7 2 -19
0 -25z m2383 -1551 c0 -1 -33 -34 -72 -72 l-73 -70 70 73 c64 67 75 77 75 69z
m-180 -171 c0 -2 -8 -10 -17 -17 -16 -13 -17 -12 -4 4 13 16 21 21 21 13z
m-1323 -572 c-3 -3 -12 -4 -19 -1 -8 3 -5 6 6 6 11 1 17 -2 13 -5z m238 -64
c265 -37 499 -117 652 -221 62 -42 185 -161 230 -222 19 -26 40 -44 45 -40 7
3 8 1 4 -5 -8 -13 17 -55 27 -47 4 3 5 2 2 -1 -5 -8 34 -86 47 -95 4 -3 10
-16 13 -28 2 -13 8 -28 13 -35 5 -6 19 -40 31 -76 107 -330 103 -836 -9 -1181
-86 -263 -247 -491 -443 -630 -255 -180 -612 -269 -1077 -269 -302 0 -404 22
-486 104 -41 41 -55 65 -72 121 -44 140 -44 151 -49 1424 l-4 1223 498 -5
c290 -3 531 -10 578 -17z m856 -377 c13 -16 12 -17 -3 -4 -17 13 -22 21 -14
21 2 0 10 -8 17 -17z m-1974 -1885 c-3 -8 -6 -5 -6 6 -1 11 2 17 5 13 3 -3 4
-12 1 -19z m2803 -211 c0 -1 -30 -32 -67 -67 l-68 -65 65 68 c60 62 70 72 70
64z m-2679 -264 c13 -16 12 -17 -3 -4 -10 7 -18 15 -18 17 0 8 8 3 21 -13z
m-533 -360 c-27 -2 -69 -2 -95 0 -27 2 -5 3 47 3 52 0 74 -1 48 -3z m-805 -10
c-7 -2 -21 -2 -30 0 -10 3 -4 5 12 5 17 0 24 -2 18 -5z m1484 1 c-3 -3 -12 -4
-19 -1 -8 3 -5 6 6 6 11 1 17 -2 13 -5z m326 -11 c-7 -2 -19 -2 -25 0 -7 3 -2
5 12 5 14 0 19 -2 13 -5z"/>
</g>
</svg>
