<?xml version="1.0" standalone="no"?>
<!DOCTYPE svg PUBLIC "-//W3C//DTD SVG 20010904//EN"
 "http://www.w3.org/TR/2001/REC-SVG-20010904/DTD/svg10.dtd">
<svg version="1.0" xmlns="http://www.w3.org/2000/svg"
 width="984.000000pt" height="984.000000pt" viewBox="0 0 984.000000 984.000000"
 preserveAspectRatio="xMidYMid meet">
<metadata>
Created by potrace 1.14, written by Peter Selinger 2001-2017
</metadata>
<g transform="translate(0.000000,984.000000) scale(0.100000,-0.100000)"
fill="#000000" stroke="none">
<path d="M5423 9579 c-17 -11 -35 -32 -40 -47 -6 -21 -9 -295 -4 -418 1 -29
42 -73 71 -79 14 -3 98 -6 188 -7 148 -1 163 -3 159 -18 -2 -10 0 -25 5 -34 6
-10 5 -16 -2 -16 -7 0 -8 -6 -1 -17 10 -21 10 -26 0 -71 -4 -17 -3 -34 2 -37
4 -3 4 -17 -1 -30 -6 -15 -6 -27 1 -30 5 -4 6 -12 2 -18 -4 -7 -6 -22 -5 -34
2 -16 -2 -22 -15 -21 -10 0 -43 -2 -73 -6 -30 -3 -75 -8 -100 -11 -25 -2 -54
-6 -65 -8 -11 -3 -42 -8 -70 -11 -57 -8 -90 -14 -125 -21 -14 -3 -38 -8 -55
-11 -16 -3 -34 -7 -40 -8 -62 -15 -125 -27 -127 -25 -2 1 -13 -3 -24 -9 -12
-6 -36 -14 -55 -17 -18 -3 -38 -10 -45 -15 -6 -6 -13 -8 -16 -5 -4 4 -186 -51
-238 -72 -8 -4 -17 -7 -20 -8 -3 -1 -18 -7 -33 -13 -16 -7 -30 -12 -33 -12 -3
0 -21 -7 -42 -16 -20 -10 -42 -18 -49 -20 -7 -1 -27 -9 -44 -18 -18 -9 -38
-16 -46 -16 -7 0 -13 -4 -13 -10 0 -5 -8 -10 -18 -10 -10 0 -23 -5 -30 -12 -7
-7 -12 -8 -12 -2 0 5 -3 5 -8 -1 -4 -5 -59 -36 -122 -67 -132 -66 -238 -124
-261 -144 -8 -8 -20 -14 -25 -14 -6 0 -19 -8 -30 -17 -11 -10 -35 -27 -54 -37
-19 -11 -37 -23 -40 -26 -3 -4 -25 -20 -50 -35 -25 -15 -47 -31 -50 -34 -3 -3
-27 -22 -55 -41 -27 -19 -55 -39 -61 -45 -6 -5 -29 -23 -50 -40 -150 -117
-380 -339 -503 -485 -35 -41 -75 -89 -90 -106 -14 -17 -33 -42 -41 -54 -8 -13
-24 -35 -36 -49 -42 -52 -182 -268 -231 -356 -50 -89 -145 -283 -141 -288 1
-1 -5 -15 -14 -32 -26 -49 -111 -271 -116 -305 0 -3 -3 -12 -6 -20 -12 -37
-47 -173 -65 -255 -24 -110 -28 -137 -46 -270 -24 -182 -25 -683 -1 -760 2 -7
1259 -10 3747 -10 l3744 0 3 43 c2 23 6 42 10 42 8 0 10 78 11 320 0 182 -5
260 -26 405 -3 22 -7 51 -8 65 -2 14 -4 25 -5 25 -1 0 -3 11 -5 25 -2 14 -6
39 -10 55 -3 17 -8 39 -10 50 -11 62 -45 191 -72 275 -8 25 -16 52 -18 60 -2
8 -9 29 -16 45 -6 17 -13 35 -14 40 -6 23 -87 220 -93 225 -4 3 -8 12 -10 20
-4 18 -68 146 -120 240 -47 85 -173 279 -228 353 -24 31 -44 59 -44 62 0 2
-12 17 -27 34 -16 16 -39 44 -53 62 -60 79 -366 398 -382 399 -3 0 -24 17 -45
38 -48 47 -210 175 -293 232 -13 8 -28 21 -36 28 -7 6 -15 12 -17 12 -3 0 -49
30 -104 66 -54 37 -98 65 -98 64 0 -2 -20 9 -45 25 -54 34 -349 185 -405 208
-22 8 -58 23 -80 33 -22 10 -42 18 -45 19 -3 1 -16 6 -30 12 -126 53 -523 172
-630 189 -14 2 -36 7 -50 10 -14 4 -34 8 -45 9 -11 2 -47 8 -80 14 -75 13
-126 20 -190 26 -97 9 -140 16 -145 25 -3 4 -5 77 -4 162 l0 153 167 2 c108 1
174 6 189 14 26 14 52 46 55 69 1 8 4 27 6 43 2 15 1 30 -4 33 -4 2 -5 14 0
26 4 12 5 37 1 55 -5 18 -5 33 -1 33 3 0 6 25 6 55 0 30 -3 55 -7 55 -4 0 -4
10 0 23 6 20 7 51 2 70 -4 12 -7 27 -9 37 0 5 -13 20 -28 34 l-27 25 -621 1
c-607 0 -621 -1 -652 -21z"/>
<path d="M2357 4553 c-72 -21 -75 -35 -73 -318 2 -257 4 -272 53 -294 17 -8
1111 -11 3732 -11 l3709 0 31 32 31 32 0 243 c0 292 -2 300 -90 320 -35 8 -70
8 -70 0 0 -4 -5 -5 -11 -2 -16 11 -69 12 -69 2 0 -4 -5 -5 -11 -2 -16 11 -69
12 -69 3 0 -5 -8 -5 -17 0 -21 9 -114 8 -131 -2 -7 -4 -12 -3 -12 1 0 10 -53
9 -69 -2 -6 -3 -16 -3 -23 1 -16 10 -68 11 -68 1 0 -5 -5 -5 -11 -2 -16 11
-69 12 -69 3 0 -5 -8 -5 -17 -1 -22 10 -54 10 -70 0 -6 -4 -14 -4 -17 1 -5 9
-109 8 -125 -2 -6 -4 -11 -3 -11 1 0 5 -15 8 -32 6 -41 -5 -91 -4 -96 2 -3 2
-13 0 -23 -6 -11 -5 -19 -6 -19 -1 0 4 -15 7 -33 5 -17 -2 -36 -4 -42 -4 -5 0
-25 2 -42 4 -18 2 -33 -1 -33 -5 0 -5 -8 -5 -17 0 -21 9 -114 8 -131 -2 -7 -4
-12 -3 -12 1 0 10 -53 9 -69 -2 -6 -3 -16 -3 -23 1 -16 10 -68 11 -68 1 0 -5
-5 -5 -11 -2 -16 11 -69 12 -69 3 0 -5 -8 -5 -17 -1 -22 10 -54 10 -70 0 -6
-4 -14 -4 -17 1 -5 9 -109 8 -125 -2 -6 -4 -11 -3 -11 1 0 5 -15 8 -32 6 -41
-5 -91 -4 -96 2 -3 2 -13 0 -23 -6 -11 -5 -19 -6 -19 -1 0 4 -15 7 -32 5 -18
-2 -37 -4 -43 -4 -5 0 -25 2 -42 4 -18 2 -33 -1 -33 -5 0 -5 -8 -5 -17 0 -21
9 -114 8 -131 -2 -7 -4 -12 -3 -12 1 0 10 -53 9 -69 -2 -6 -3 -16 -3 -23 1
-16 10 -68 11 -68 1 0 -5 -5 -5 -11 -2 -16 11 -69 12 -69 3 0 -5 -8 -5 -17 -1
-22 10 -54 10 -70 0 -6 -4 -14 -4 -17 1 -5 9 -109 8 -125 -2 -6 -4 -11 -3 -11
1 0 5 -15 8 -32 6 -41 -5 -91 -4 -96 2 -3 2 -13 0 -23 -6 -11 -5 -19 -6 -19
-1 0 4 -15 7 -32 5 -18 -2 -37 -4 -43 -4 -5 0 -25 2 -42 4 -18 2 -33 -1 -33
-5 0 -5 -8 -5 -17 0 -21 9 -114 8 -131 -2 -7 -4 -12 -3 -12 1 0 10 -53 9 -69
-2 -6 -3 -16 -3 -23 1 -16 10 -68 11 -68 1 0 -5 -5 -5 -11 -2 -16 11 -69 12
-69 3 0 -5 -8 -5 -17 -1 -22 10 -54 10 -70 0 -6 -4 -14 -4 -17 1 -5 9 -109 8
-125 -2 -6 -4 -11 -3 -11 1 0 5 -15 8 -32 6 -41 -5 -91 -4 -96 2 -3 2 -13 0
-23 -6 -11 -5 -19 -6 -19 -1 0 4 -15 7 -32 5 -18 -2 -37 -4 -43 -4 -5 0 -25 2
-42 4 -18 2 -33 -1 -33 -5 0 -5 -8 -5 -17 0 -21 9 -114 8 -131 -2 -7 -4 -12
-3 -12 1 0 10 -53 9 -69 -2 -6 -3 -16 -3 -23 1 -16 10 -68 11 -68 1 0 -5 -5
-5 -11 -2 -16 11 -69 12 -69 2 0 -4 -5 -5 -11 -2 -16 11 -69 12 -75 3 -3 -5
-10 -5 -17 -1 -16 10 -57 10 -57 0 0 -4 -5 -5 -12 -1 -16 10 -68 11 -68 1 0
-5 -5 -5 -11 -2 -16 11 -69 12 -69 3 0 -5 -8 -5 -17 -1 -22 10 -54 10 -70 0
-6 -4 -14 -4 -17 1 -5 9 -109 8 -125 -2 -6 -4 -11 -3 -11 1 0 5 -15 8 -32 6
-41 -5 -91 -4 -96 2 -3 2 -13 0 -23 -6 -11 -5 -19 -6 -19 -1 0 4 -15 7 -32 5
-18 -2 -37 -4 -43 -4 -5 0 -25 2 -42 4 -18 2 -33 -1 -33 -5 0 -5 -8 -5 -17 0
-21 9 -114 8 -131 -2 -7 -4 -12 -3 -12 1 0 10 -53 9 -69 -2 -6 -3 -16 -3 -23
1 -16 10 -68 11 -68 1 0 -5 -5 -5 -11 -2 -16 11 -69 12 -69 3 0 -5 -8 -5 -17
-1 -22 10 -54 10 -70 0 -6 -4 -14 -4 -17 1 -5 9 -109 8 -125 -2 -6 -4 -11 -3
-11 1 0 5 -15 8 -32 6 -41 -5 -91 -4 -96 2 -3 2 -13 0 -23 -6 -11 -5 -19 -6
-19 -1 0 4 -15 7 -32 5 -18 -2 -37 -4 -43 -4 -5 0 -25 2 -42 4 -18 2 -33 -1
-33 -6 0 -4 -5 -5 -12 -1 -17 10 -110 11 -130 2 -10 -5 -18 -5 -18 0 0 9 -53
8 -69 -3 -6 -3 -16 -3 -23 1 -16 10 -68 11 -68 1 0 -5 -5 -5 -11 -2 -16 11
-69 12 -69 3 0 -5 -8 -5 -17 -1 -22 10 -54 10 -70 0 -6 -4 -14 -4 -17 1 -5 9
-109 8 -125 -2 -6 -4 -11 -3 -11 1 0 5 -15 8 -32 6 -41 -5 -91 -4 -96 2 -3 2
-13 0 -23 -6 -11 -5 -19 -6 -19 -1 0 4 -15 7 -32 5 -18 -2 -37 -4 -43 -4 -5 0
-25 2 -42 4 -18 2 -33 -1 -33 -6 0 -4 -5 -5 -11 -2 -19 12 -67 11 -112 -2z"/>
<path d="M2344 3531 c-2 -2 -41 -5 -86 -7 -46 -2 -98 -5 -115 -7 -18 -2 -33 1
-33 6 0 4 -6 5 -12 0 -7 -4 -31 -8 -53 -9 -22 -1 -92 -4 -155 -8 -109 -6 -283
-15 -415 -21 -33 -2 -60 -4 -60 -5 0 0 -54 -3 -120 -5 -66 -3 -147 -7 -180
-10 -33 -2 -118 -7 -190 -10 -71 -3 -164 -8 -205 -11 -144 -8 -236 -13 -355
-19 -66 -2 -167 -8 -225 -11 -58 -3 -113 -6 -122 -6 -16 1 -17 -10 -13 -126 3
-70 7 -183 10 -252 2 -69 6 -179 10 -245 3 -66 8 -181 10 -255 3 -74 7 -191
10 -260 18 -422 28 -692 29 -777 0 -46 3 -83 6 -83 3 0 5 -46 6 -103 1 -56 4
-174 7 -262 4 -88 10 -225 13 -305 3 -80 7 -146 9 -148 4 -5 30 -4 155 3 63 3
147 7 185 8 39 1 73 7 77 12 5 6 8 5 8 -3 0 -7 4 -11 10 -7 9 5 38 7 305 21
66 3 149 7 185 9 36 2 121 6 190 9 69 4 159 8 200 11 173 10 436 24 562 30 48
2 92 6 98 10 5 3 10 1 10 -5 0 -6 5 -8 13 -3 6 4 48 8 92 9 44 2 80 3 80 4 0
1 140 8 280 14 l70 3 -1 74 c-1 78 -11 340 -19 519 -3 58 -7 168 -10 245 -3
77 -7 190 -10 250 -2 61 -7 175 -10 255 -3 80 -7 195 -10 255 -3 61 -7 170 -9
243 -3 74 -7 136 -10 139 -3 3 -1 14 5 24 5 11 6 19 2 19 -4 0 -9 35 -9 78 -1
76 -8 265 -20 537 -3 77 -7 150 -7 162 -1 22 -4 23 -90 20 -48 -1 -90 -4 -93
-6z"/>
<path d="M3706 3362 c-2 -1 -59 -5 -127 -7 -68 -3 -176 -7 -239 -10 -63 -2
-182 -7 -265 -11 -82 -3 -163 -6 -180 -7 -39 -2 -42 -8 -39 -65 4 -62 16 -346
18 -444 1 -43 5 -80 9 -84 3 -4 2 -14 -3 -24 -5 -10 -7 -20 -3 -24 3 -3 7 -54
9 -113 1 -60 5 -178 9 -263 3 -85 8 -204 10 -265 3 -60 7 -168 10 -240 7 -151
13 -315 20 -505 2 -74 5 -135 5 -135 1 0 3 -44 5 -98 1 -54 4 -99 6 -101 2 -1
42 -19 89 -40 84 -38 143 -66 353 -165 59 -28 109 -51 111 -51 2 0 55 -24 117
-54 63 -29 137 -64 164 -76 28 -12 124 -58 215 -103 91 -44 171 -80 178 -80 6
0 12 -4 12 -9 0 -4 3 -7 8 -6 7 1 32 -7 67 -23 19 -9 125 -45 135 -47 3 0 12
-3 20 -6 23 -7 151 -38 180 -42 14 -3 36 -7 50 -9 97 -20 396 -26 495 -11 28
5 61 9 75 11 14 1 32 5 40 9 8 3 29 8 45 10 17 2 37 6 45 9 16 7 97 29 118 33
8 1 51 17 95 36 45 18 84 33 87 33 15 2 157 76 235 123 124 75 136 82 253 142
56 29 105 57 108 62 3 4 9 6 14 3 4 -3 13 2 20 10 7 8 16 15 21 15 5 0 42 20
82 45 41 25 80 45 86 45 6 0 11 4 11 9 0 5 8 11 18 14 17 6 87 45 107 60 5 4
78 49 160 100 158 98 446 286 455 297 3 4 16 13 29 20 14 7 30 17 35 22 9 7
123 87 199 140 10 7 107 77 215 156 191 139 236 173 293 219 15 13 32 23 37
23 6 0 15 6 19 13 4 8 23 24 42 38 19 13 44 32 55 41 12 9 116 90 231 180 264
205 249 192 298 263 138 198 152 397 43 570 -44 68 -173 166 -236 179 -8 2
-22 6 -30 9 -42 17 -174 23 -253 13 -53 -7 -145 -34 -182 -54 -16 -9 -32 -16
-35 -17 -3 0 -21 -10 -41 -23 -20 -12 -41 -22 -47 -22 -6 0 -12 -3 -14 -7 -1
-5 -30 -21 -63 -38 -33 -16 -61 -33 -63 -37 -2 -5 -7 -8 -12 -8 -4 0 -45 -21
-91 -46 -84 -47 -159 -87 -234 -127 -22 -12 -47 -27 -55 -33 -8 -6 -26 -15
-40 -19 -14 -4 -27 -11 -30 -15 -4 -6 -171 -97 -227 -124 -13 -6 -23 -14 -23
-18 0 -5 -9 -8 -20 -8 -11 0 -20 -4 -20 -8 0 -5 -16 -14 -35 -22 -19 -8 -35
-18 -35 -22 0 -5 -4 -7 -9 -3 -5 3 -12 1 -16 -5 -3 -6 -21 -16 -39 -24 -37
-15 -46 -32 -105 -193 -37 -103 -87 -195 -129 -243 -34 -38 -110 -115 -133
-135 -173 -146 -462 -241 -799 -260 -30 -2 -55 -4 -55 -5 0 -1 -25 -3 -55 -5
-30 -1 -86 -7 -125 -11 -38 -5 -111 -9 -162 -8 -81 0 -96 3 -131 27 -54 35
-87 103 -78 163 7 56 42 108 85 129 32 15 104 30 126 26 27 -5 421 -7 430 -2
5 2 30 6 55 7 52 2 101 9 167 25 27 6 53 12 58 13 6 1 15 4 20 7 6 4 23 9 40
13 58 14 176 75 254 131 8 5 43 38 77 71 146 143 158 316 31 447 -58 59 -127
100 -202 118 -57 14 -265 19 -265 6 0 -4 -8 -3 -19 2 -10 6 -21 8 -24 5 -3 -3
-52 -7 -109 -9 -57 -2 -182 -7 -278 -11 -96 -4 -193 -8 -215 -8 -24 -1 -51 5
-67 16 -14 10 -31 18 -37 18 -6 0 -11 5 -11 10 0 6 -4 10 -9 10 -5 0 -44 20
-87 43 -159 88 -292 155 -297 151 -2 -2 -10 2 -17 11 -7 8 -16 15 -21 15 -5 0
-33 11 -64 25 -117 53 -162 72 -220 94 -33 13 -69 27 -80 31 -31 13 -145 52
-164 55 -9 2 -16 4 -16 5 0 1 -7 3 -15 5 -51 11 -72 16 -130 30 -36 9 -78 19
-95 22 -30 6 -284 10 -289 5z"/>
</g>
</svg>
