<?xml version="1.0" standalone="no"?>
<!DOCTYPE svg PUBLIC "-//W3C//DTD SVG 20010904//EN"
 "http://www.w3.org/TR/2001/REC-SVG-20010904/DTD/svg10.dtd">
<svg version="1.0" xmlns="http://www.w3.org/2000/svg"
 width="700.000000pt" height="700.000000pt" viewBox="0 0 700.000000 700.000000"
 preserveAspectRatio="xMidYMid meet">
<metadata>
Created by potrace 1.14, written by Peter Selinger 2001-2017
</metadata>
<g transform="translate(0.000000,700.000000) scale(0.100000,-0.100000)"
fill="#000000" stroke="none">
<path d="M3300 6994 c-283 -24 -447 -49 -649 -99 -805 -199 -1513 -680 -1999
-1358 -247 -344 -439 -758 -541 -1165 -79 -312 -105 -533 -105 -872 0 -339 26
-560 105 -872 100 -399 293 -818 530 -1150 394 -552 938 -981 1554 -1226 693
-275 1448 -324 2177 -141 1226 308 2209 1291 2518 2519 77 309 104 531 104
870 0 267 -14 436 -55 650 -134 700 -464 1326 -964 1825 -560 561 -1276 907
-2070 1000 -125 15 -512 27 -605 19z m485 -794 c798 -107 1488 -534 1930
-1195 106 -158 184 -302 249 -457 354 -845 264 -1809 -241 -2572 -373 -563
-946 -971 -1598 -1136 -264 -67 -317 -72 -727 -67 -346 4 -369 5 -484 30 -477
104 -851 283 -1221 584 -22 18 -22 27 -48 667 -14 357 -24 655 -20 664 4 12
-8 14 -87 8 -238 -16 -691 -37 -703 -32 -17 6 -70 226 -97 403 -31 199 -31
577 0 778 75 482 249 896 539 1278 107 141 372 403 513 509 423 316 891 498
1402 548 114 11 483 5 593 -10z"/>
<path d="M3106 5834 c-21 -20 -23 -231 -3 -257 9 -13 32 -17 107 -19 l95 -3 3
-81 3 -81 -98 -12 c-452 -56 -875 -258 -1194 -572 -246 -241 -420 -554 -490
-877 -22 -103 -38 -416 -25 -486 l7 -36 1933 0 1934 0 7 113 c34 544 -237
1092 -720 1456 -300 227 -615 351 -1027 406 l-48 6 0 85 0 84 93 0 c59 0 97 4
105 12 17 17 17 249 0 266 -9 9 -98 12 -339 12 -284 0 -330 -2 -343 -16z"/>
<path d="M1510 3240 c-18 -18 -20 -33 -20 -148 0 -112 2 -131 18 -145 17 -16
166 -17 1935 -17 1728 0 1917 2 1931 16 13 12 16 41 16 149 0 127 -1 135 -22
149 -20 14 -220 16 -1930 16 -1895 0 -1908 0 -1928 -20z"/>
<path d="M1981 2629 c-101 -5 -186 -11 -189 -13 -2 -3 6 -276 19 -608 l24
-602 180 -84 c99 -46 250 -117 336 -158 213 -100 300 -125 463 -131 194 -8
324 21 490 110 500 270 691 393 1141 731 329 247 357 273 389 369 27 81 18
149 -31 215 -36 48 -91 80 -156 93 -104 19 -139 5 -492 -186 l-321 -174 -18
-53 c-33 -94 -65 -147 -121 -201 -105 -104 -238 -147 -515 -168 -166 -13 -171
-12 -198 8 -37 28 -48 63 -32 102 7 18 22 37 33 43 12 6 88 12 181 13 236 3
343 34 447 132 54 50 74 97 66 154 -7 55 -39 94 -103 125 l-55 27 -237 -7
-237 -7 -159 82 c-186 96 -294 140 -425 175 -103 27 -147 28 -480 13z"/>
</g>
</svg>
