<svg width="1280" height="640" viewBox="0 0 1280 640" fill="none" xmlns="http://www.w3.org/2000/svg">
<rect width="1280" height="640" fill="#323232"/>
<path d="M891.957 548.785C891.954 546.059 891.068 543.411 889.436 541.255C887.805 539.099 885.521 537.555 882.941 536.866L894.513 502H837.175L848.782 536.99C846.277 537.734 844.076 539.287 842.507 541.416C840.938 543.546 840.087 546.137 840.079 548.802C840.079 552.932 842.092 556.595 845.165 558.851C843.935 560.631 842.531 562.278 840.974 563.767C838.108 566.553 834.757 568.767 831.095 570.295C827.856 568.065 826.468 564.123 827.723 560.617C840.884 556.426 837.979 536.605 824.214 536.545C821.017 536.548 817.951 537.847 815.69 540.157C813.43 542.467 812.159 545.6 812.156 548.868C812.156 552.225 813.484 555.301 815.651 557.509C815.453 557.88 815.27 558.284 815.073 558.685C813.275 562.487 811.23 566.771 810.445 571.58C808.889 581.213 811.445 588.943 817.617 593.319C820.954 595.725 824.94 597.012 829.024 597C836.088 597 843.277 593.366 850.22 589.84C855.181 587.349 860.293 584.737 865.315 583.472C867.177 583.009 869.115 582.733 871.157 582.418C875.302 581.816 879.583 581.183 883.426 578.895C885.624 577.611 887.52 575.851 888.981 573.738C890.442 571.625 891.432 569.21 891.882 566.664C892.521 562.786 891.917 558.8 890.159 555.301C891.324 553.398 891.96 551.189 891.96 548.79L891.957 548.785ZM886.708 548.785C886.706 550.621 885.991 552.381 884.721 553.679C883.451 554.977 881.728 555.708 879.932 555.71C873.515 555.695 870.703 547.425 875.737 543.34L875.752 543.313C875.981 543.144 876.225 542.972 876.449 542.815C876.449 542.815 876.495 542.815 876.495 542.788C876.6 542.726 876.705 542.649 876.812 542.586C876.844 542.586 876.859 542.571 876.885 542.571C876.992 542.509 877.129 542.464 877.265 542.402C877.402 542.34 877.535 542.295 877.646 542.233C877.672 542.233 877.689 542.218 877.718 542.218C877.826 542.185 877.948 542.126 878.052 542.111C878.067 542.111 878.131 542.079 878.16 542.079C878.296 542.046 878.401 542.016 878.535 541.998H878.549L878.959 541.906C878.985 541.906 879.031 541.906 879.063 541.874C879.168 541.874 879.275 541.841 879.397 541.841H879.516C879.653 541.841 879.786 541.826 879.955 541.826H880.304C880.411 541.826 880.501 541.826 880.606 541.841H880.652C880.864 541.874 881.091 541.903 881.303 541.969C882.831 542.3 884.202 543.158 885.185 544.399C886.169 545.639 886.706 547.188 886.705 548.785H886.708ZM844.68 507.507H887.01L877.297 536.789C876.888 536.869 876.495 537.005 876.086 537.145L865.861 515.839L855.602 537.008C855.186 536.882 854.762 536.783 854.333 536.714L844.68 507.507ZM863.924 546.389C863.427 543.85 862.155 541.539 860.29 539.787L865.858 528.301L871.485 540.033C869.764 541.76 868.589 543.973 868.112 546.389H863.924ZM850.443 542.043C850.568 542.008 850.695 541.983 850.824 541.969H850.896C851.004 541.936 851.108 541.936 851.213 541.906H851.32C851.425 541.906 851.518 541.874 851.622 541.874H852.665C852.773 541.874 852.863 541.906 852.941 541.906C852.999 541.906 853.014 541.906 853.078 541.939C853.182 541.972 853.261 541.972 853.365 541.987C853.397 541.987 853.426 541.987 853.484 542.013L853.847 542.093H853.879C853.984 542.126 854.109 542.156 854.213 542.215C854.228 542.215 854.26 542.23 854.318 542.23C854.396 542.263 854.501 542.292 854.594 542.337C854.606 542.337 854.638 542.369 854.667 542.369C854.771 542.432 854.879 542.464 854.983 542.509H855.015C855.141 542.556 855.259 542.625 855.364 542.711H855.396C855.5 542.758 855.605 542.833 855.712 542.898C855.738 542.898 855.738 542.931 855.77 542.931C855.878 542.978 855.953 543.07 856.058 543.118L856.09 543.15C856.407 543.397 856.709 543.673 857.017 543.955L857.028 543.97C858.239 545.267 858.907 546.983 858.89 548.758C858.602 557.696 845.621 557.696 845.334 548.758C845.319 545.59 847.437 542.821 850.446 542.049L850.443 542.043ZM823.952 541.841C825.752 541.841 827.478 542.572 828.75 543.872C830.023 545.173 830.738 546.936 830.738 548.776C830.738 550.615 830.023 552.379 828.75 553.679C827.478 554.98 825.752 555.71 823.952 555.71C820.22 555.71 817.176 552.602 817.176 548.785C817.176 544.967 820.22 541.841 823.952 541.841V541.841ZM886.554 565.702C886.245 567.46 885.562 569.127 884.554 570.586C883.545 572.044 882.236 573.259 880.719 574.145C877.782 575.876 874.166 576.434 870.387 576.971C868.251 577.25 866.13 577.637 864.031 578.132C858.434 579.542 853.049 582.276 847.826 584.921C841.157 588.308 834.862 591.49 829.024 591.49C826.029 591.51 823.105 590.558 820.673 588.771C814.756 584.594 815.046 576.757 815.755 572.459C816.391 568.436 818.192 564.681 819.915 561.08C820.04 560.864 820.112 560.662 820.22 560.448C820.809 560.662 821.428 560.831 822.079 560.944C821.048 566.771 823.952 572.803 829.611 575.772L830.624 576.309L831.728 575.908C836.434 574.189 840.805 571.423 844.648 567.715C846.779 565.689 848.658 563.404 850.246 560.911C853.197 561.374 856.212 560.702 858.708 559.026C861.203 557.35 863.003 554.789 863.758 551.836H868.281C868.95 554.474 870.457 556.811 872.565 558.478C874.674 560.146 877.265 561.051 879.932 561.051C882.171 561.051 884.242 560.418 886.011 559.35C886.708 561.407 886.932 563.556 886.554 565.705V565.702Z" fill="white"/>
<path d="M201.212 536.577L221.449 524.709C221.698 524.563 221.98 524.486 222.267 524.486C222.554 524.486 222.836 524.563 223.084 524.709L243.322 536.577C243.57 536.724 243.777 536.935 243.92 537.188C244.063 537.441 244.138 537.728 244.138 538.02V561.737C244.137 562.029 244.062 562.315 243.918 562.568C243.775 562.822 243.57 563.032 243.322 563.18L223.084 575.028C222.836 575.174 222.554 575.251 222.267 575.251C221.98 575.251 221.698 575.174 221.449 575.028L201.212 563.18C200.964 563.033 200.757 562.822 200.614 562.569C200.471 562.316 200.396 562.029 200.396 561.737V538.02C200.396 537.422 200.713 536.875 201.212 536.577V536.577ZM274.895 547.387L250.715 504.677C249.832 503.126 248.22 502 246.449 502H198.095C196.34 502 194.712 503.126 193.829 504.677L169.649 547.283C169.224 548.051 169 548.918 169 549.799C169 550.681 169.224 551.547 169.649 552.316L193.849 594.674C194.715 596.226 196.344 597 198.099 597H246.469C248.224 597 249.835 596.243 250.718 594.691L274.898 552.279C275.331 551.538 275.56 550.693 275.56 549.831C275.56 548.97 275.331 548.125 274.898 547.384L274.895 547.387ZM254.877 567.916C254.868 568.228 254.78 568.533 254.622 568.801C254.464 569.069 254.241 569.291 253.975 569.447L223.151 587.474C222.888 587.629 222.589 587.71 222.285 587.71C221.981 587.71 221.683 587.629 221.419 587.474L190.579 569.447C190.314 569.29 190.092 569.067 189.934 568.799C189.776 568.531 189.688 568.228 189.677 567.916V531.824C189.677 531.206 190.04 530.624 190.579 530.31L221.386 512.263C221.652 512.116 221.95 512.039 222.252 512.039C222.554 512.039 222.852 512.116 223.118 512.263L253.958 530.31C254.224 530.467 254.446 530.69 254.604 530.957C254.762 531.225 254.85 531.529 254.861 531.841L254.877 567.916Z" fill="white"/>
<path d="M412.737 594.744C412.737 595.997 411.746 597 410.515 597H388.229C385.257 597 385.257 592.47 388.229 592.47H410.515C411.749 592.47 412.737 593.491 412.737 594.744ZM410.515 583.424H406.052C403.08 583.424 403.08 587.954 406.052 587.954H410.515C413.486 587.954 413.486 583.424 410.515 583.424ZM388.229 587.954H397.14C400.112 587.954 400.112 583.424 397.14 583.424H388.229C385.257 583.424 385.257 587.954 388.229 587.954ZM410.515 574.378H388.229C385.257 574.378 385.257 578.908 388.229 578.908H410.515C413.486 578.908 413.486 574.378 410.515 574.378ZM441.709 565.332H401.6C398.629 565.332 398.629 569.863 401.6 569.863H441.709C444.681 569.863 444.681 565.332 441.709 565.332ZM388.229 569.863H392.692C395.663 569.863 395.663 565.332 392.692 565.332H388.229C385.257 565.332 385.257 569.863 388.229 569.863ZM455.084 556.287H441.709C438.738 556.287 438.738 560.802 441.709 560.802H455.084C458.055 560.802 458.055 556.287 455.084 556.287ZM414.978 560.802H432.801C435.772 560.802 435.772 556.287 432.801 556.287H414.978C412.006 556.287 412.006 560.802 414.978 560.802ZM388.229 560.802H406.052C409.023 560.802 409.023 556.287 406.052 556.287H388.229C385.257 556.287 385.257 560.802 388.229 560.802ZM459.532 547.244H423.886C420.915 547.244 420.915 551.759 423.886 551.759H459.532C462.504 551.759 462.504 547.244 459.532 547.244ZM417.201 549.5C417.201 548.902 416.966 548.328 416.549 547.905C416.133 547.481 415.567 547.244 414.978 547.244H401.603C398.632 547.244 398.632 551.759 401.603 551.759H414.978C415.567 551.759 416.133 551.522 416.549 551.098C416.966 550.675 417.201 550.101 417.201 549.503V549.5ZM388.229 551.756H392.692C395.663 551.756 395.663 547.241 392.692 547.241H388.229C385.257 547.241 385.257 551.756 388.229 551.756ZM463.995 538.198H441.709C438.738 538.198 438.738 542.713 441.709 542.713H463.995C466.967 542.713 466.967 538.198 463.995 538.198ZM388.229 542.713H410.515C413.486 542.713 413.486 538.198 410.515 538.198H388.229C385.257 538.198 385.257 542.713 388.229 542.713ZM439.487 531.408C439.487 532.646 440.478 533.665 441.709 533.665H463.995C466.967 533.665 466.967 529.134 463.995 529.134H441.709C441.416 529.135 441.126 529.195 440.856 529.309C440.585 529.424 440.34 529.592 440.133 529.803C439.927 530.014 439.763 530.265 439.652 530.54C439.541 530.816 439.485 531.111 439.487 531.408ZM406.052 529.137C403.08 529.137 403.08 533.668 406.052 533.668H410.515C413.486 533.668 413.486 529.137 410.515 529.137H406.052ZM388.229 533.668H397.14C400.112 533.668 400.112 529.137 397.14 529.137H388.229C385.257 529.137 385.257 533.668 388.229 533.668ZM452.847 522.363C452.847 523.601 453.853 524.619 455.087 524.619H459.535C462.507 524.619 462.507 520.089 459.535 520.089H455.087C454.794 520.089 454.504 520.149 454.233 520.264C453.963 520.378 453.717 520.546 453.511 520.757C453.304 520.969 453.141 521.219 453.03 521.495C452.919 521.77 452.863 522.065 452.864 522.363H452.847ZM448.398 522.363C448.398 521.763 448.165 521.187 447.748 520.761C447.332 520.335 446.766 520.093 446.175 520.089H428.338C425.366 520.089 425.366 524.619 428.338 524.619H446.161C446.752 524.619 447.319 524.382 447.739 523.959C448.158 523.537 448.396 522.963 448.401 522.363H448.398ZM388.229 524.622H419.426C422.398 524.622 422.398 520.092 419.426 520.092H388.229C385.257 520.092 385.257 524.622 388.229 524.622ZM408.289 513.302C408.289 514.555 409.28 515.576 410.512 515.576H455.084C458.055 515.576 458.055 511.046 455.084 511.046H410.512C409.922 511.046 409.357 511.283 408.94 511.707C408.523 512.13 408.289 512.704 408.289 513.302ZM388.229 515.576H401.603C404.575 515.576 404.575 511.046 401.603 511.046H388.229C385.257 511.046 385.257 515.576 388.229 515.576ZM388.229 506.53H441.709C444.681 506.53 444.681 502 441.709 502H388.229C385.257 502 385.257 506.53 388.229 506.53Z" fill="white"/>
<path d="M673.252 563.068C673.171 566.254 667.108 568.466 669.576 571.632C675.024 572.408 672.546 576.074 675.531 577.321C670.255 586.042 661.74 587.131 653.643 581.67C651.288 580.245 648.635 579.64 646.461 580.235C645.222 582.246 647.065 582.483 648.24 582.775C653.934 583.925 659.674 592.859 678.943 584.349C681.511 583.252 681.121 580.025 680.01 577.487C682.145 576.563 682.273 574.155 682.588 571.058C684.683 564.079 677.802 564.682 673.252 563.068V563.068ZM642.958 547.911C640.609 547.965 637.15 550.224 634.864 551.349C638.089 553.274 639.37 555.565 642.958 554.85C646.548 554.134 646.482 551.788 645.07 549.063C644.627 548.208 643.878 547.891 642.958 547.911ZM658.121 502.002C653.736 502.207 649.964 514.129 645.493 522.58C632.636 528.008 629.42 520.97 625.222 522.128C618.072 507.335 607.456 492.504 604.587 510.131C605.222 523.454 599.983 524.552 600.446 543.562C600.446 543.562 591.102 562.652 594.914 579.544C597.6 591.447 607.046 595.939 613.391 597C614.047 592.131 621.576 581.152 619.517 578.591C614.379 572.198 615.991 556.539 629.013 554.921C630.792 541.748 639.62 544.228 638.717 540.417C635.887 528.481 648.098 534.053 650.147 537.964C653.83 544.166 656.419 550.262 659.429 553.152C663.256 556.826 668.449 558.834 668.753 558.949C667.662 558.257 658.3 550.219 655.561 543.762C653.914 539.878 654.079 531.13 654.079 531.13C658.829 530.375 660.746 538.488 665.904 545.847C666.118 546.377 666.08 546.802 665.904 547.155C665.193 546.774 664.945 545.819 664.091 545.704C663.314 545.704 662.683 546.824 662.683 548.205C662.683 549.586 663.709 550.079 665.123 550.725C667.094 554.245 669.142 555.539 671.113 556.421L664.754 537.56C664.518 525.748 665.749 513.935 659.006 502.122C658.72 502.03 658.42 501.989 658.121 502.002V502.002ZM658.181 505.769C658.534 505.762 658.859 506.004 659.147 506.553C662.666 513.269 662.796 529.032 662.772 534.605C661.101 530.744 658.596 524.251 650.701 522.271C650.701 522.271 655.313 505.819 658.181 505.769V505.769ZM610.888 507.267C612.493 507.26 614.316 508.214 616.431 512.129C619.816 518.394 622.244 522.561 623.423 524.718C625.836 529.133 622.367 525.642 621.281 536.971C621.066 539.208 620.234 540.283 618.603 541.419C615.072 537.837 612.582 531.62 610.863 524.229C607.492 529.311 613.044 537.168 613.143 543.888C609.398 544.757 606.969 544.453 605.584 543.984C603.846 543.102 603.274 532.346 606.497 523.996C609.181 517.041 607.905 508.197 609.099 507.812C609.92 507.546 609.926 507.271 610.888 507.267Z" fill="white"/>
<path d="M1102.38 540.617C1102.49 540.815 1102.58 541.065 1102.68 541.354C1102.57 541.116 1102.5 540.843 1102.38 540.617C1104.68 549.737 1094.77 560.421 1082.37 557.397H1082.38C1100.3 545.482 1091.47 530.591 1083.12 523.434C1076.25 517.536 1080.3 515.716 1083.2 515.716C1084.12 515.716 1084.93 515.898 1085.22 516.195L1085.2 516.179L1085.23 516.195C1085.16 510.522 1065.47 511.801 1082.69 530.025C1091.54 539.386 1081.1 560.092 1068.67 544.346C1068.57 544.204 1068.47 544.054 1068.39 543.899C1070.4 543.052 1072.05 540.752 1072.05 536.96C1072.07 535.618 1071.8 534.288 1071.28 533.057C1072.71 530.088 1074.03 526.538 1074.03 522.093C1074.03 511.468 1067.24 502 1057.73 502C1048.23 502 1041.43 511.468 1041.43 522.093C1041.43 526.538 1042.76 530.088 1044.19 533.061C1043.66 534.294 1043.4 535.627 1043.42 536.972C1043.42 540.764 1045.06 543.068 1047.08 543.911C1046.99 544.066 1046.9 544.216 1046.8 544.358C1034.36 560.104 1023.93 539.394 1032.77 530.037C1050 511.813 1030.3 510.538 1030.23 516.206L1030.27 516.191C1030.57 515.898 1031.36 515.716 1032.27 515.716C1035.17 515.716 1039.23 517.536 1032.36 523.434C1024.04 530.559 1015.26 545.356 1032.9 557.246C1032.97 557.298 1033.01 557.353 1033.09 557.405C1020.7 560.429 1010.81 549.773 1013.08 540.653L1013.1 540.614C1013.09 540.621 1013.09 540.633 1013.08 540.637L1013.08 540.625L1013.07 540.653C1008.49 547.026 1010.71 563.528 1027.8 565.068C1027.88 565.08 1027.94 565.104 1028.02 565.116C1011.01 569.074 1016.13 592.903 1028.1 589.087L1028.05 589.083L1028.12 589.071C1019.79 587.706 1019.17 577.208 1023.33 573.594C1027.9 569.612 1033.15 573.052 1044 569.905L1044.12 569.889C1044 579.571 1053.29 584.773 1048.42 590.314C1043.29 596.145 1036.29 589.919 1037.28 584.179L1037.3 584.064L1037.28 584.096V584.08L1037.27 584.127C1032.98 591.45 1038.41 597 1044.52 597C1048.02 597 1051.75 595.171 1053.99 590.797C1058.72 581.547 1044.69 565.337 1057.73 565.337C1070.77 565.337 1056.74 581.547 1061.47 590.797C1063.71 595.171 1067.44 597 1070.95 597C1077.08 597 1082.53 591.415 1078.16 584.064L1078.18 584.147L1078.16 584.08C1079.24 589.847 1072.18 596.181 1067.03 590.314C1062.18 584.757 1071.44 579.556 1071.34 569.878C1082.28 573.092 1087.55 569.592 1092.14 573.598C1096.3 577.204 1095.67 587.706 1087.35 589.075H1087.38C1099.35 592.867 1104.45 569.07 1087.45 565.1L1087.47 565.096C1104.78 563.663 1107 546.994 1102.37 540.617H1102.38ZM1023.46 542.161C1022.92 533.271 1030.51 526.039 1032.86 524.028C1036.13 521.23 1037.4 518.993 1036.75 517.192C1036.54 516.651 1036.2 516.176 1035.75 515.819C1035.3 515.462 1034.76 515.236 1034.19 515.165C1033.45 515.049 1032.69 515.09 1031.96 515.284C1032.62 514.96 1033.38 514.77 1034.2 514.77C1036.05 514.77 1037.57 515.652 1038.08 517.022C1038.53 518.261 1038.54 521.008 1033.5 525.465C1025.52 532.523 1024.87 540.99 1026.93 546.563C1028.71 551.404 1032.66 554.535 1036.99 554.535C1037.68 554.535 1038.37 554.456 1039.07 554.309C1036.96 556.13 1034.54 556.724 1033.56 556.906C1027.73 552.77 1023.76 547.331 1023.46 542.153V542.161ZM1043.77 569.367C1039.34 570.562 1034.82 570.63 1031.92 570.645C1028.32 570.669 1025.46 570.685 1022.82 572.993C1020.41 575.083 1019.42 579.302 1020.45 583.031C1020.8 584.318 1021.19 585.628 1022.11 586.423C1022.8 587.029 1023.99 587.888 1025.18 588.49L1025.11 588.474C1025.19 588.513 1025.24 588.565 1025.32 588.604C1021.44 587.765 1019.19 583.934 1018.91 580.157C1018.57 575.388 1021.26 569.359 1029.96 568.065C1031.34 567.859 1032.8 567.736 1034.25 567.613C1037.8 567.312 1041.46 567 1043.99 565.476C1043.89 566.98 1043.81 568.595 1043.77 569.367ZM1044.74 558.743C1042.21 562.693 1037.19 563.307 1032.77 563.849C1031.52 563.999 1030.38 564.177 1029.33 564.395L1027.94 564.3C1020.91 563.683 1015.69 560.318 1013.22 554.816C1012.07 552.272 1011.59 549.468 1011.84 546.682C1011.84 546.682 1011.99 545.193 1012.26 543.634C1011.92 547.968 1013.07 552.097 1015.69 555.497C1017.39 557.667 1019.54 559.422 1022 560.629C1024.45 561.837 1027.14 562.467 1029.87 562.471C1035.06 562.471 1039.96 560.136 1043.7 555.889C1044.98 554.424 1045.56 554.313 1045.71 554.313C1046.21 555.05 1045.78 557.116 1044.74 558.743H1044.74ZM1069.59 536.96C1069.59 542.292 1063.63 542.292 1063.63 536.96C1063.63 531.628 1069.59 531.628 1069.59 536.96ZM1062.55 515.221C1062.55 518.154 1057.73 518.154 1057.73 515.221C1057.73 512.292 1062.55 512.292 1062.55 515.221ZM1061.54 547.505C1061.54 550.47 1061.31 552.872 1061.03 552.872C1060.74 552.872 1060.53 550.478 1060.54 547.509C1060.54 544.54 1060.78 542.141 1061.06 542.141C1061.33 542.141 1061.56 544.54 1061.54 547.505ZM1057.83 541.116C1058.05 541.116 1058.22 544.006 1058.22 547.572C1058.22 551.139 1058.05 554.028 1057.83 554.028C1057.61 554.028 1057.44 551.139 1057.44 547.576C1057.44 544.006 1057.62 541.116 1057.83 541.116ZM1057.08 508.618C1057.08 510.641 1053.77 510.641 1053.77 508.618C1053.77 506.596 1057.08 506.615 1057.08 508.618H1057.08ZM1054.79 525.323C1054.79 523.921 1057.08 523.933 1057.08 525.323C1057.08 526.724 1054.79 526.724 1054.79 525.323ZM1054.97 547.576C1054.97 550.616 1054.72 553.078 1054.43 553.078C1054.15 553.078 1053.92 550.616 1053.92 547.58C1053.93 544.544 1054.17 542.082 1054.46 542.082C1054.75 542.082 1054.98 544.536 1054.97 547.576V547.576ZM1054.97 517.909C1054.97 519.927 1051.66 519.927 1051.66 517.909C1051.66 515.89 1054.97 515.89 1054.97 517.909ZM1050.5 513.024C1050.5 514.421 1048.21 514.421 1048.21 513.024C1048.21 511.627 1050.5 511.627 1050.5 513.024ZM1050.18 522.951C1050.18 523.961 1048.53 523.961 1048.53 522.951C1048.53 521.938 1050.18 521.938 1050.18 522.951H1050.18ZM1045.89 536.964C1045.89 531.632 1051.85 531.632 1051.85 536.964C1051.85 542.296 1045.89 542.296 1045.89 536.964ZM1066.67 572.937C1066.36 575.866 1065.6 578.4 1064.93 580.64C1063.58 585.145 1062.5 588.699 1065.87 592.523C1067.29 594.134 1069.1 594.985 1071.12 594.985C1073.62 594.985 1076.1 593.639 1077.61 591.466C1078.28 590.467 1078.72 589.324 1078.88 588.125C1078.94 588.759 1078.98 589.352 1078.94 589.776C1078.86 590.674 1078.6 591.545 1078.17 592.333C1076.86 594.688 1074.02 596.212 1070.95 596.212C1067.25 596.212 1064.05 594.106 1062.17 590.437C1060.29 586.768 1061.65 581.673 1062.86 577.177C1064.04 572.763 1065.06 568.955 1063.26 566.576C1062.24 565.211 1060.43 564.55 1057.74 564.55C1055.04 564.55 1053.23 565.211 1052.21 566.576C1050.41 568.951 1051.44 572.763 1052.61 577.177C1053.82 581.673 1055.18 586.768 1053.3 590.437C1051.42 594.106 1048.22 596.212 1044.52 596.212C1041.45 596.212 1038.61 594.688 1037.3 592.333C1036.61 591.059 1036.36 589.582 1036.59 588.145C1036.78 589.317 1037.15 590.449 1037.85 591.47C1039.36 593.635 1041.85 594.985 1044.35 594.985C1046.37 594.985 1048.18 594.134 1049.6 592.523C1052.96 588.699 1051.9 585.153 1050.54 580.656C1049.86 578.412 1049.1 575.866 1048.8 572.937C1048.41 569.114 1049.27 565.705 1051.14 563.596C1052.7 561.85 1054.91 560.959 1057.73 560.959C1060.55 560.959 1062.78 561.846 1064.32 563.592C1066.2 565.701 1067.05 569.106 1066.66 572.933L1066.67 572.937ZM1078.48 554.543C1082.81 554.543 1086.75 551.416 1088.54 546.571C1090.59 540.998 1089.94 532.531 1081.95 525.473C1076.9 521.012 1076.91 518.269 1077.36 517.026C1077.87 515.66 1079.39 514.774 1081.24 514.774C1081.99 514.774 1082.69 514.952 1083.32 515.229L1083.36 515.245C1082.68 515.092 1081.97 515.068 1081.28 515.173C1080.71 515.244 1080.17 515.47 1079.72 515.827C1079.27 516.184 1078.93 516.659 1078.72 517.2C1078.07 519.001 1079.35 521.237 1082.61 524.04C1084.95 526.047 1092.55 533.279 1092.02 542.161C1091.7 547.339 1087.74 552.777 1081.91 556.914C1079.89 556.543 1077.99 555.648 1076.41 554.317C1077.1 554.468 1077.79 554.543 1078.48 554.543V554.543ZM1096.55 580.149C1096.28 583.934 1094.02 587.757 1090.14 588.596C1090.2 588.565 1090.25 588.525 1090.3 588.49C1091.49 587.884 1092.67 587.033 1093.36 586.431C1094.28 585.632 1094.67 584.321 1095.03 583.035C1096.05 579.306 1095.06 575.087 1092.65 572.997C1090.01 570.693 1087.16 570.673 1083.55 570.649C1080.66 570.634 1076.13 570.566 1071.7 569.371C1071.66 568.595 1071.58 566.988 1071.49 565.48C1074.01 567.008 1077.68 567.32 1081.24 567.625C1082.69 567.748 1084.14 567.871 1085.51 568.072C1094.21 569.367 1096.9 575.388 1096.55 580.145L1096.55 580.149ZM1086.16 564.399C1085.1 564.177 1083.95 564.003 1082.7 563.845C1078.28 563.307 1073.26 562.693 1070.73 558.739C1069.69 557.116 1069.25 555.058 1069.59 554.424C1069.65 554.402 1069.72 554.39 1069.78 554.389C1070.13 554.389 1070.71 554.678 1071.77 555.889C1075.5 560.136 1080.42 562.471 1085.6 562.471C1091.11 562.471 1096.42 559.859 1099.78 555.493C1102.4 552.097 1103.55 547.972 1103.21 543.642C1103.49 545.197 1103.63 546.69 1103.63 546.69C1103.88 549.475 1103.4 552.277 1102.26 554.82C1099.78 560.322 1094.56 563.687 1087.53 564.304L1086.16 564.399V564.399ZM1048.37 534.731C1048.52 534.823 1048.63 534.953 1048.71 535.107C1048.78 535.262 1048.81 535.434 1048.8 535.606C1048.81 535.736 1048.8 535.866 1048.76 535.989C1048.72 536.112 1048.65 536.226 1048.56 536.322C1048.48 536.418 1048.37 536.494 1048.26 536.547C1048.14 536.599 1048.01 536.626 1047.88 536.626C1047.76 536.626 1047.63 536.599 1047.51 536.547C1047.39 536.494 1047.29 536.418 1047.2 536.322C1047.12 536.226 1047.05 536.112 1047.01 535.989C1046.97 535.866 1046.96 535.736 1046.97 535.606C1046.95 535.433 1046.98 535.258 1047.06 535.102C1047.14 534.946 1047.25 534.815 1047.4 534.724C1047.55 534.632 1047.71 534.585 1047.89 534.586C1048.06 534.588 1048.23 534.638 1048.37 534.731V534.731ZM1065.12 536.485C1064.97 536.394 1064.86 536.263 1064.78 536.108C1064.71 535.952 1064.67 535.779 1064.69 535.606C1064.68 535.479 1064.7 535.352 1064.74 535.232C1064.78 535.112 1064.85 535.003 1064.94 534.91C1065.02 534.817 1065.13 534.743 1065.24 534.692C1065.36 534.642 1065.48 534.615 1065.61 534.615C1065.73 534.615 1065.85 534.642 1065.97 534.692C1066.08 534.743 1066.19 534.817 1066.27 534.91C1066.36 535.003 1066.43 535.112 1066.47 535.232C1066.51 535.352 1066.53 535.479 1066.52 535.606C1066.53 535.779 1066.5 535.953 1066.43 536.108C1066.35 536.263 1066.23 536.393 1066.09 536.485C1065.94 536.576 1065.77 536.624 1065.6 536.624C1065.43 536.624 1065.27 536.576 1065.12 536.485V536.485Z" fill="white"/>
<path d="M838.944 401.965C842.287 401.873 845.558 402.975 848.191 405.083C849.49 406.193 850.603 407.512 851.486 408.987C853.069 406.242 855.5 404.113 858.398 402.935C862 401.604 865.949 401.628 869.536 403.001C872.601 404.258 875.41 406.089 877.818 408.399C879.743 410.131 881.526 412.036 883.509 413.709C884.529 414.62 885.698 415.34 886.963 415.836C887.825 416.115 888.747 416.139 889.622 415.907C890.498 415.675 891.291 415.195 891.912 414.523C892.459 413.879 892.744 413.046 892.709 412.194C892.675 411.342 892.323 410.536 891.726 409.94C891.529 409.77 891.299 409.645 891.051 409.571C890.804 409.498 890.544 409.478 890.289 409.513C890.033 409.549 889.788 409.638 889.568 409.776C889.349 409.914 889.16 410.097 889.014 410.314C888.825 410.688 888.741 411.108 888.771 411.527C888.801 411.946 888.944 412.349 889.183 412.691C888.622 412.357 888.145 411.892 887.792 411.335C887.439 410.777 887.219 410.143 887.15 409.483C887.102 408.707 887.305 407.936 887.728 407.29C888.152 406.644 888.771 406.158 889.492 405.908C890.865 405.372 892.371 405.306 893.784 405.719C895.197 406.132 896.441 407.001 897.329 408.198C898.782 410.58 899.314 413.431 898.821 416.193C898.645 417.486 898.212 418.728 897.549 419.843C896.887 420.958 896.008 421.923 894.966 422.678C891.933 424.68 888.358 425.65 884.753 425.45C881.34 425.331 877.974 424.592 874.814 423.267C869.533 421.099 864.591 418.099 859.136 416.366C857.243 415.825 855.318 415.405 853.374 415.109C851.916 415.133 850.455 415.057 849.001 415.161C847.221 415.316 845.471 415.723 843.801 416.37C838.256 418.133 833.239 421.22 827.869 423.382C823.32 425.321 818.322 425.891 813.466 425.024C810.704 424.556 808.171 423.167 806.263 421.074C804.724 419.186 803.928 416.781 804.029 414.326C803.848 411.998 804.518 409.685 805.91 407.834C806.612 407.006 807.497 406.36 808.491 405.951C809.486 405.541 810.561 405.379 811.629 405.478C812.321 405.497 813 405.668 813.622 405.979C814.244 406.289 814.793 406.733 815.232 407.28C815.533 407.738 815.727 408.261 815.799 408.808C815.87 409.356 815.818 409.912 815.646 410.436C815.249 411.354 814.592 412.131 813.761 412.667C814.004 412.33 814.149 411.93 814.179 411.512C814.21 411.095 814.125 410.677 813.934 410.307C813.78 410.081 813.58 409.893 813.347 409.754C813.115 409.615 812.856 409.529 812.588 409.503C812.319 409.477 812.049 409.511 811.795 409.603C811.541 409.694 811.31 409.841 811.117 410.034C810.655 410.543 810.358 411.186 810.267 411.874C810.175 412.562 810.293 413.262 810.605 413.879C810.981 414.495 811.494 415.011 812.101 415.386C812.709 415.761 813.395 415.984 814.103 416.037C816.15 415.977 818.095 415.108 819.527 413.612C822.542 410.621 825.744 407.833 829.113 405.267C831.998 403.196 835.419 402.047 838.944 401.965Z" fill="white"/>
<path d="M244.456 462.068C244.108 462.255 244.137 462.315 244.471 462.143C244.574 462.1 244.668 462.039 244.749 461.961C244.749 461.899 244.749 461.899 244.456 462.068ZM245.158 461.682C244.991 461.822 244.991 461.822 245.19 461.73C245.264 461.695 245.331 461.648 245.389 461.59C245.389 461.51 245.342 461.528 245.158 461.682ZM245.614 461.403C245.448 461.543 245.448 461.543 245.646 461.451C245.72 461.415 245.787 461.367 245.845 461.308C245.845 461.234 245.799 461.249 245.614 461.403ZM246.076 461.127C245.91 461.267 245.91 461.267 246.103 461.172C246.211 461.112 246.302 461.05 246.302 461.032C246.302 460.958 246.255 460.973 246.076 461.127ZM246.699 460.709C246.381 460.925 246.269 461.065 246.562 460.91C246.758 460.789 247.091 460.522 247.033 460.522C246.907 460.569 246.802 460.649 246.696 460.709H246.699ZM218.731 373.022C218.518 373.037 217.877 373.096 217.316 373.144C204.015 374.367 191.571 381.634 183.683 392.83C179.324 398.97 176.491 406.088 175.424 413.579C175.047 416.191 175 416.963 175 420.505C175 424.044 175.047 424.804 175.424 427.416C177.971 445.262 190.477 460.242 207.428 465.794C210.478 466.783 213.675 467.466 217.316 467.884C218.731 468.039 224.853 468.039 226.268 467.884C232.562 467.172 237.876 465.595 243.134 462.873C243.941 462.457 244.093 462.347 243.985 462.255C241.42 458.813 238.877 455.355 236.355 451.879L228.877 441.628L219.509 427.541C216.393 422.824 213.246 418.13 210.066 413.457C210.034 413.457 209.993 419.718 209.975 427.354C209.943 440.729 209.943 441.272 209.776 441.581C209.616 441.954 209.33 442.256 208.969 442.433C208.68 442.572 208.419 442.602 207.036 442.602H205.454L205.041 442.341C204.783 442.172 204.573 441.938 204.433 441.661L204.234 441.242L204.249 422.625L204.281 404.007L204.571 403.636C204.755 403.408 204.983 403.219 205.24 403.081C205.623 402.894 205.775 402.864 207.358 402.864C209.215 402.864 209.522 402.939 210.01 403.482C213.805 409.211 217.567 414.963 221.296 420.737C227.377 430.094 235.677 442.863 239.756 449.127L247.176 460.525L247.542 460.278C251.107 457.873 254.339 454.992 257.149 451.713C263.044 444.864 266.869 436.436 268.166 427.437C268.543 424.825 268.59 424.05 268.59 420.511C268.59 416.969 268.543 416.212 268.166 413.6C265.618 395.754 253.113 380.773 236.162 375.219C232.994 374.2 229.733 373.507 226.429 373.149C225.543 373.057 219.495 372.948 218.734 373.028L218.731 373.022ZM237.879 401.751C238.096 401.859 238.29 402.011 238.45 402.196C238.609 402.382 238.73 402.598 238.806 402.832C238.885 403.081 238.899 408.244 238.885 419.873L238.853 436.569L235.96 432.057L233.05 427.541V415.419C233.05 407.561 233.082 403.155 233.123 402.939C233.266 402.442 233.595 402.021 234.039 401.766C234.401 401.579 234.542 401.564 235.989 401.564C237.344 401.564 237.572 401.579 237.876 401.751H237.879Z" fill="white"/>
<path d="M379 420.5V468H472.59V373H379V420.5ZM454.416 416.712C456.66 417.248 458.699 418.441 460.28 420.144C461.134 421.07 462.412 422.771 462.52 423.19C462.549 423.314 458.484 426.081 456.016 427.628C455.925 427.69 455.559 427.304 455.162 426.699C453.96 424.92 452.693 424.149 450.76 424.009C447.926 423.822 446.098 425.324 446.113 427.845C446.098 428.461 446.233 429.072 446.508 429.623C447.133 430.938 448.306 431.725 451.93 433.319C458.633 436.24 461.497 438.173 463.278 440.91C465.272 443.971 465.714 448.858 464.374 452.506C462.883 456.449 459.195 459.138 454.015 460.02C452.415 460.314 448.607 460.266 446.885 459.943C443.124 459.263 439.559 457.375 437.365 454.902C436.496 453.943 434.821 451.422 434.929 451.253C434.976 451.191 435.356 450.945 435.783 450.695L439.257 448.653L441.954 447.061L442.518 447.91C443.311 449.131 445.031 450.802 446.069 451.357C449.055 452.966 453.152 452.735 455.179 450.894C456.001 450.199 456.46 449.131 456.399 448.05C456.399 446.952 456.261 446.459 455.697 445.636C454.966 444.585 453.489 443.689 449.268 441.833C444.44 439.714 442.352 438.416 440.465 436.329C439.278 434.956 438.399 433.336 437.891 431.582C437.54 430.237 437.45 426.865 437.725 425.52C438.716 420.773 442.249 417.481 447.321 416.507C448.967 416.183 452.804 416.305 454.419 416.709L454.416 416.712ZM432.452 420.687L432.481 424.567H420.294V459.714H411.672V424.567H399.502V420.764C399.502 418.645 399.549 416.884 399.607 416.837C399.654 416.774 407.056 416.745 416.044 416.759L432.405 416.807L432.452 420.687Z" fill="white"/>
<path d="M635.018 444.821C634.966 444.94 634.915 445.035 635.018 444.821V444.821ZM677.949 427.604C674.482 427.604 671.063 428.514 667.954 430.276C666.937 427.921 665.886 425.862 665.714 424.319C665.507 422.518 665.283 421.449 665.524 419.312C665.766 417.175 666.851 414.147 666.834 413.929C666.817 413.711 666.593 412.623 664.37 412.603C662.147 412.583 660.234 413.098 660.01 413.771C659.616 415 659.311 416.264 659.096 417.551C658.7 419.866 654.654 428.138 652.362 432.452C651.603 430.77 650.966 429.286 650.828 428.099C650.621 426.298 650.397 425.229 650.638 423.092C650.879 420.954 651.965 417.927 651.948 417.709C651.931 417.491 651.707 416.403 649.487 416.383C647.267 416.363 645.351 416.878 645.127 417.551C644.903 418.223 644.662 419.807 644.214 421.33C643.766 422.854 638.372 436.628 636.962 440.21C636.238 442.031 635.618 443.495 635.17 444.485C635.101 444.643 635.049 444.742 635.015 444.821C635.066 444.722 635.101 444.623 635.101 444.663C634.722 445.514 634.498 445.989 634.498 445.989V446.009C634.205 446.642 633.877 447.216 633.722 447.216C633.619 447.216 633.395 445.553 633.774 443.278C634.584 438.488 636.497 431.047 636.479 430.79C636.462 430.652 636.841 429.365 635.221 428.673C633.653 428.019 633.084 429.108 632.947 429.108C632.809 429.108 632.705 429.504 632.705 429.504C632.705 429.504 634.446 421.113 629.362 421.113C626.191 421.113 621.779 425.11 619.611 428.732C618.25 429.583 615.303 431.423 612.201 433.383L608.634 435.639C608.548 435.54 608.479 435.441 608.393 435.342C602.223 427.782 590.835 422.439 591.318 412.286C591.49 408.586 592.61 398.869 613.218 387.074C630.107 377.416 643.607 380.068 645.934 385.966C649.277 394.376 638.713 410.03 621.176 412.286C614.49 413.137 610.978 410.169 610.099 409.061C609.185 407.893 609.047 407.834 608.703 408.051C608.134 408.408 608.496 409.437 608.703 410.05C609.22 411.614 611.374 414.384 615.045 415.769C618.267 416.977 626.105 417.649 635.58 413.434C646.226 408.724 654.516 395.603 652.082 384.62C649.608 373.458 633.491 369.797 618.253 376.011C609.172 379.712 599.352 385.53 592.29 393.11C583.897 402.134 582.557 409.991 583.108 413.276C585.073 424.932 599.063 432.532 604.66 438.152L603.884 438.647C601.075 440.25 590.411 446.662 587.74 453.43C584.725 461.108 588.24 466.61 590.546 467.362C597.749 469.658 605.122 465.522 609.085 458.734C613.049 451.946 612.567 443.08 610.74 439.043C610.723 438.983 610.688 438.944 610.671 438.884C612.739 437.478 614.824 436.105 616.927 434.768C616.237 436.905 615.737 439.478 615.479 443.198C615.169 447.552 616.737 453.192 618.77 455.409C619.667 456.379 620.749 456.398 621.424 456.398C623.803 456.398 624.871 454.142 626.06 451.451C627.525 448.166 628.817 444.346 628.817 444.346C628.817 444.346 627.198 454.677 631.626 454.677C633.246 454.677 634.866 452.282 635.59 451.055V451.075C635.59 451.075 635.625 450.996 635.711 450.837C635.883 450.541 635.969 450.362 635.969 450.362V450.303C636.624 449.017 638.054 446.068 640.209 441.2C643 434.906 645.668 427.05 645.668 427.05C645.927 428.775 646.285 430.481 646.737 432.156C647.219 434.036 648.236 436.094 649.046 438.093C648.391 439.122 647.995 439.715 647.995 439.715C647.995 439.731 648.001 439.743 648.012 439.755C647.495 440.547 646.909 441.398 646.306 442.229C644.103 445.237 641.48 448.68 641.136 449.67C640.722 450.837 640.826 451.708 641.618 452.381C642.204 452.896 643.238 452.975 644.324 452.876C646.306 452.717 647.702 452.163 648.374 451.807C649.613 451.297 650.785 450.591 651.855 449.709C654.009 447.889 655.319 445.276 655.198 441.833C655.129 439.933 654.595 438.033 653.94 436.252C654.13 435.935 654.336 435.599 654.526 435.263C656.769 431.42 658.789 427.412 660.575 423.266C660.833 424.992 661.188 426.697 661.643 428.372C662.057 429.975 662.867 431.736 663.608 433.458C660.403 436.446 658.421 439.909 657.735 442.185C656.46 446.4 657.459 448.3 659.338 448.736C660.182 448.934 661.388 448.478 662.284 448.043C663.615 447.532 664.869 446.792 666.003 445.846C668.157 444.026 670.243 441.473 670.101 438.009C670.05 436.446 669.671 434.883 669.171 433.379C671.876 432.072 675.392 431.36 679.873 431.954C689.468 433.24 691.347 440.127 690.985 442.997C690.623 445.866 688.606 447.469 687.934 447.944C687.262 448.419 687.055 448.597 687.107 448.953C687.193 449.468 687.504 449.448 688.072 449.329C688.865 449.171 693.104 446.994 693.294 441.671C693.57 434.942 687.934 427.541 677.956 427.6L677.949 427.604ZM603.988 456.24C600.817 460.218 596.374 461.722 594.461 460.455C592.411 459.086 593.22 453.232 597.129 448.993C599.507 446.42 602.575 444.045 604.608 442.581C605.074 442.264 605.746 441.789 606.573 441.215C606.64 441.166 606.709 441.12 606.78 441.077C606.935 440.958 607.107 440.859 607.279 440.741C608.706 446.757 607.331 452.06 603.988 456.236V456.24ZM627.142 438.152C626.039 441.259 623.716 449.175 622.3 448.759C621.094 448.403 620.352 442.367 622.059 436.43C622.92 433.442 624.747 429.88 625.833 428.494C627.573 426.258 629.486 425.546 629.934 426.436C630.537 427.604 627.832 436.213 627.142 438.152ZM646.271 448.641C645.806 448.918 645.375 449.096 645.168 448.957C645.013 448.858 645.358 448.482 645.358 448.482C645.358 448.482 647.753 445.534 648.701 444.188C649.253 443.396 649.89 442.466 650.58 441.437C650.58 441.536 650.597 441.635 650.597 441.754C650.576 445.296 647.612 447.691 646.268 448.641H646.271ZM661.023 444.782C660.678 444.505 660.73 443.574 661.885 440.685C662.333 439.557 663.367 437.657 665.159 435.837C665.362 436.525 665.473 437.246 665.486 437.974C665.469 442.427 662.695 444.089 661.023 444.782V444.782Z" fill="white"/>
<path d="M1056.79 373C1030.87 373 1010 394.185 1010 420.5C1010 446.815 1030.87 468 1056.79 468C1082.72 468 1103.59 446.815 1103.59 420.5C1103.59 394.185 1082.72 373 1056.79 373ZM1067.71 390.151C1068.22 390.136 1068.68 390.69 1068.38 391.252L1056.51 413.339C1056.45 413.452 1056.42 413.578 1056.42 413.707C1056.43 413.835 1056.46 413.96 1056.52 414.07C1056.59 414.18 1056.68 414.271 1056.79 414.335C1056.9 414.398 1057.02 414.432 1057.15 414.432H1077.66C1078.32 414.432 1078.64 415.251 1078.16 415.71L1042.21 449.772C1041.56 450.381 1040.61 449.522 1041.12 448.798L1058.14 424.965C1058.22 424.855 1058.26 424.725 1058.27 424.589C1058.29 424.454 1058.26 424.318 1058.2 424.197C1058.14 424.076 1058.04 423.975 1057.93 423.903C1057.82 423.832 1057.69 423.794 1057.55 423.793H1035.84C1035.7 423.793 1035.56 423.749 1035.44 423.667C1035.32 423.585 1035.22 423.469 1035.17 423.334C1035.11 423.198 1035.1 423.049 1035.13 422.905C1035.16 422.761 1035.23 422.63 1035.33 422.527L1067.23 390.373C1067.36 390.238 1067.53 390.158 1067.72 390.151H1067.71Z" fill="white"/>
<path d="M191.351 326L197.563 314.137H213.681L215.945 326H218.336L211.11 288.909H208.502L188.96 326H191.351ZM198.667 312.037L209.244 291.825H209.443L213.283 312.037H198.667ZM247.114 337.011C253.616 337.011 258.524 333.625 259.683 326.652L264.391 298.182H262.254L261.24 304.394H260.987C260.226 300.808 257.908 297.765 253.09 297.765C246.353 297.765 241.01 303.742 239.616 312.091C238.221 320.44 241.807 325.855 248.418 325.855C252.964 325.855 256.568 323.247 258.415 319.643H258.632L257.509 326.561C256.568 332.248 252.619 334.983 247.277 334.983C242.767 334.983 240.395 333.081 239.616 330.401L237.624 331.433C238.584 334.874 241.934 337.011 247.114 337.011ZM248.78 323.809C243.057 323.809 240.684 319.027 241.825 312.073C242.948 305.154 247.222 299.83 252.945 299.83C258.632 299.83 261.077 305.046 259.936 312.073C258.723 319.335 254.34 323.809 248.78 323.809ZM279.464 326.58C286.274 326.58 292.196 320.621 293.572 312.381C294.913 303.923 290.91 297.765 283.901 297.765C277.146 297.765 271.224 303.742 269.847 312C268.471 320.476 272.51 326.58 279.464 326.58ZM279.482 324.533C273.759 324.533 270.843 319.172 272.003 312.381C273.125 305.408 278.015 299.83 283.938 299.83C289.661 299.83 292.522 305.209 291.417 312C290.294 319.027 285.459 324.533 279.482 324.533ZM318.353 316.13C317.538 321.092 313.336 324.207 308.989 324.207C304.516 324.207 301.926 321.074 302.687 316.438L305.729 298.182H303.52L300.459 316.528C299.445 322.613 302.687 326.362 308.138 326.362C312.104 326.362 315.527 324.352 317.266 321.49H317.465L316.705 326H318.914L323.55 298.182H321.341L318.353 316.13ZM328.069 326H330.279L333.321 307.672C334.064 303.18 337.958 299.939 342.594 299.939C343.173 299.939 343.554 300.011 343.844 300.047L344.224 297.82C343.862 297.801 343.499 297.801 343.101 297.801C339.424 297.801 335.965 299.685 334.335 302.528H334.136L334.861 298.182H332.705L328.069 326ZM345.451 326H347.66L350.703 307.744C351.446 303.162 354.868 299.866 359.269 299.866C363.634 299.866 365.192 302.836 364.485 307.183L361.352 326H363.562L366.659 307.509C367.383 303.054 370.552 299.866 375.134 299.866C379.427 299.866 381.129 302.673 380.368 307.328L377.253 326H379.463L382.578 307.328C383.556 301.442 381.238 297.82 375.877 297.82C371.748 297.82 368.452 299.92 366.858 303.199H366.659C366.079 299.902 363.996 297.82 359.994 297.82C356.317 297.82 353.311 299.613 351.735 302.384H351.518L352.242 298.182H350.087L345.451 326ZM399.407 326.58C404.913 326.58 408.807 323.374 410.491 320.567L408.662 319.752C407.268 321.816 404.189 324.533 399.679 324.533C393.232 324.533 390.388 319.679 391.511 312.58H412.755L413.009 311.203C414.367 302.963 409.894 297.765 403.663 297.765C396.763 297.765 390.787 303.905 389.41 312.218C388.016 320.512 391.855 326.58 399.407 326.58ZM391.91 310.57C393.304 304.647 398.23 299.83 403.446 299.83C408.753 299.83 411.868 304.557 410.872 310.57H391.91ZM432.636 298.182H426.768L427.873 291.517H425.682L424.577 298.182H420.484L420.158 300.156H424.269L421.027 319.824C420.321 324.044 423.164 326.453 426.642 326.453C427.764 326.453 428.561 326.272 429.304 326L429.105 323.99C428.507 324.171 427.927 324.316 427.185 324.316C424.667 324.316 422.693 322.812 423.273 319.426L426.442 300.156H432.292L432.636 298.182ZM485.819 288.909H483.573L478.103 321.925H477.886L459.703 288.909H457.475L451.318 326H453.581L459.069 293.02H459.286L477.451 326H479.661L485.819 288.909ZM500.362 326.58C505.867 326.58 509.761 323.374 511.445 320.567L509.616 319.752C508.222 321.816 505.143 324.533 500.633 324.533C494.186 324.533 491.342 319.679 492.465 312.58H513.709L513.963 311.203C515.321 302.963 510.848 297.765 504.618 297.765C497.717 297.765 491.741 303.905 490.364 312.218C488.97 320.512 492.809 326.58 500.362 326.58ZM492.864 310.57C494.258 304.647 499.184 299.83 504.4 299.83C509.707 299.83 512.822 304.557 511.826 310.57H492.864ZM523.77 298.182H521.27L527.827 312.037L516.598 326H519.242L528.931 313.884L534.582 326H537.063L530.507 312.181L541.808 298.182H539.164L529.42 310.551L523.77 298.182ZM558.991 298.182H553.123L554.228 291.517H552.036L550.931 298.182H546.838L546.512 300.156H550.624L547.382 319.824C546.675 324.044 549.519 326.453 552.996 326.453C554.119 326.453 554.916 326.272 555.658 326L555.459 323.99C554.861 324.171 554.282 324.316 553.539 324.316C551.022 324.316 549.048 322.812 549.627 319.426L552.797 300.156H558.647L558.991 298.182ZM564.831 326.235C565.9 326.235 566.824 325.366 566.878 324.279C566.932 323.229 566.099 322.36 565.013 322.36C563.944 322.36 563.002 323.193 562.966 324.279C562.93 325.366 563.727 326.235 564.831 326.235ZM580.592 298.182L575.413 329.387C574.887 332.502 572.551 334.331 569.835 334.331H569.291L568.875 336.377C569.11 336.432 569.309 336.432 569.509 336.432C573.565 336.432 576.898 333.697 577.622 329.387L582.784 298.182H580.592ZM582.675 293.256C583.617 293.256 584.45 292.495 584.504 291.608C584.595 290.593 583.816 289.778 582.766 289.778C581.824 289.778 580.991 290.557 580.936 291.426C580.846 292.441 581.643 293.256 582.675 293.256ZM608.7 304.176C608.03 300.083 605.458 297.765 600.713 297.765C595.389 297.765 591.133 300.79 590.372 305.227C589.775 308.849 591.658 311.421 596.059 312.544L600.279 313.63C603.466 314.427 604.807 316.166 604.39 318.701C603.847 322.106 600.351 324.551 595.733 324.551C591.676 324.551 589.43 322.65 589.267 319.045L587.076 319.48C587.293 324.044 590.336 326.58 595.57 326.58C601.347 326.58 605.839 323.446 606.599 318.828C607.197 315.224 605.368 312.67 601.166 311.584L597.037 310.515C593.596 309.628 592.165 307.98 592.6 305.354C593.125 302.076 596.385 299.776 600.55 299.776C604.281 299.776 606.056 301.605 606.581 304.684L608.7 304.176ZM648.693 304.176C648.023 300.083 645.452 297.765 640.707 297.765C635.382 297.765 631.126 300.79 630.365 305.227C629.768 308.849 631.651 311.421 636.052 312.544L640.272 313.63C643.459 314.427 644.8 316.166 644.383 318.701C643.84 322.106 640.344 324.551 635.726 324.551C631.669 324.551 629.424 322.65 629.261 319.045L627.069 319.48C627.287 324.044 630.329 326.58 635.563 326.58C641.341 326.58 645.832 323.446 646.593 318.828C647.19 315.224 645.361 312.67 641.159 311.584L637.03 310.515C633.589 309.628 632.158 307.98 632.593 305.354C633.118 302.076 636.378 299.776 640.544 299.776C644.274 299.776 646.049 301.605 646.575 304.684L648.693 304.176ZM667.515 298.182H661.647L662.752 291.517H660.561L659.456 298.182H655.363L655.037 300.156H659.148L655.906 319.824C655.2 324.044 658.043 326.453 661.52 326.453C662.643 326.453 663.44 326.272 664.183 326L663.984 323.99C663.386 324.171 662.806 324.316 662.064 324.316C659.546 324.316 657.572 322.812 658.152 319.426L661.321 300.156H667.171L667.515 298.182ZM678.373 326.598C682.792 326.598 686.341 324.098 688.279 320.983H688.442L687.591 326H689.8L693.024 306.567C694.038 300.482 689.982 297.765 685.037 297.765C680.745 297.765 676.398 299.703 674.153 303.706L676.072 304.484C677.63 301.786 680.962 299.794 684.911 299.794C689.402 299.794 691.539 302.384 690.851 306.422L690.67 307.581C690.308 309.7 687.138 309.936 682.81 310.443C675.258 311.348 671.69 313.703 670.893 318.339C670.06 323.627 673.573 326.598 678.373 326.598ZM678.789 324.551C674.895 324.551 672.487 322.215 673.084 318.412C673.682 314.971 676.543 313.123 682.737 312.399C685.472 312.091 688.859 311.584 690.163 310.624L689.456 314.717C688.533 320.368 684.005 324.551 678.789 324.551ZM699.064 326H701.274L704.316 307.672C705.059 303.18 708.953 299.939 713.589 299.939C714.169 299.939 714.549 300.011 714.839 300.047L715.219 297.82C714.857 297.801 714.495 297.801 714.096 297.801C710.42 297.801 706.96 299.685 705.33 302.528H705.131L705.856 298.182H703.701L699.064 326ZM732.66 298.182H726.792L727.897 291.517H725.705L724.6 298.182H720.507L720.181 300.156H724.292L721.051 319.824C720.344 324.044 723.188 326.453 726.665 326.453C727.788 326.453 728.585 326.272 729.327 326L729.128 323.99C728.53 324.171 727.951 324.316 727.208 324.316C724.691 324.316 722.717 322.812 723.296 319.426L726.466 300.156H732.316L732.66 298.182ZM746.696 326.58C752.201 326.58 756.095 323.374 757.779 320.567L755.95 319.752C754.556 321.816 751.477 324.533 746.967 324.533C740.52 324.533 737.676 319.679 738.799 312.58H760.043L760.297 311.203C761.655 302.963 757.182 297.765 750.952 297.765C744.051 297.765 738.075 303.905 736.698 312.218C735.304 320.512 739.143 326.58 746.696 326.58ZM739.198 310.57C740.592 304.647 745.518 299.83 750.734 299.83C756.041 299.83 759.156 304.557 758.16 310.57H739.198ZM765.454 326H767.663L770.706 307.672C771.448 303.18 775.342 299.939 779.979 299.939C780.558 299.939 780.939 300.011 781.228 300.047L781.609 297.82C781.246 297.801 780.884 297.801 780.486 297.801C776.809 297.801 773.35 299.685 771.72 302.528H771.521L772.245 298.182H770.09L765.454 326ZM808.535 322.505H810.672L812.32 312.58H822.245L822.607 310.443H812.664L814.312 300.518H812.175L810.527 310.443H800.639L800.258 312.58H810.183L808.535 322.505ZM845.123 326H847.278L848.293 319.933H848.546C849.271 323.537 851.661 326.58 856.442 326.58C863.162 326.58 868.522 320.567 869.917 312.163C871.33 303.778 867.888 297.765 861.206 297.765C856.442 297.765 853.001 300.808 851.154 304.394H850.937L853.472 288.909H851.281L845.123 326ZM849.615 312.145C850.774 305.046 855.175 299.83 860.825 299.83C866.548 299.83 868.866 305.154 867.725 312.145C866.566 319.136 862.165 324.533 856.479 324.533C850.792 324.533 848.456 319.263 849.615 312.145ZM885.637 326.58C892.447 326.58 898.369 320.621 899.745 312.381C901.086 303.923 897.083 297.765 890.074 297.765C883.319 297.765 877.397 303.742 876.02 312C874.644 320.476 878.682 326.58 885.637 326.58ZM885.655 324.533C879.932 324.533 877.016 319.172 878.175 312.381C879.298 305.408 884.188 299.83 890.11 299.83C895.833 299.83 898.695 305.209 897.59 312C896.467 319.027 891.632 324.533 885.655 324.533ZM905.165 326H907.356L911.993 298.182H909.801L905.165 326ZM911.938 293.238C912.88 293.238 913.713 292.477 913.768 291.589C913.858 290.575 913.079 289.76 912.029 289.76C911.087 289.76 910.254 290.539 910.2 291.408C910.109 292.423 910.906 293.238 911.938 293.238ZM924.978 288.909H922.769L916.611 326H918.821L924.978 288.909ZM938.742 326.58C944.248 326.58 948.142 323.374 949.826 320.567L947.997 319.752C946.602 321.816 943.524 324.533 939.014 324.533C932.567 324.533 929.723 319.679 930.846 312.58H952.09L952.344 311.203C953.702 302.963 949.229 297.765 942.998 297.765C936.098 297.765 930.122 303.905 928.745 312.218C927.351 320.512 931.19 326.58 938.742 326.58ZM931.245 310.57C932.639 304.647 937.565 299.83 942.781 299.83C948.088 299.83 951.203 304.557 950.207 310.57H931.245ZM957.501 326H959.71L962.753 307.672C963.495 303.18 967.389 299.939 972.026 299.939C972.605 299.939 972.985 300.011 973.275 300.047L973.655 297.82C973.293 297.801 972.931 297.801 972.533 297.801C968.856 297.801 965.397 299.685 963.767 302.528H963.568L964.292 298.182H962.137L957.501 326ZM973.053 336.432H975.245L977.998 319.933H978.215C978.939 323.537 981.384 326.58 986.111 326.58C992.776 326.58 998.191 320.567 999.586 312.163C1001 303.742 997.612 297.765 990.874 297.765C986.075 297.765 982.706 300.808 980.823 304.394H980.569L981.583 298.182H979.428L973.053 336.432ZM979.283 312.145C980.443 305.046 984.843 299.83 990.494 299.83C996.253 299.83 998.535 305.154 997.394 312.145C996.235 319.136 991.834 324.533 986.147 324.533C980.515 324.533 978.124 319.263 979.283 312.145ZM1013.28 288.909H1011.07L1004.91 326H1007.12L1013.28 288.909ZM1023.57 326.598C1027.99 326.598 1031.54 324.098 1033.48 320.983H1033.64L1032.79 326H1035L1038.22 306.567C1039.23 300.482 1035.18 297.765 1030.23 297.765C1025.94 297.765 1021.59 299.703 1019.35 303.706L1021.27 304.484C1022.83 301.786 1026.16 299.794 1030.11 299.794C1034.6 299.794 1036.74 302.384 1036.05 306.422L1035.87 307.581C1035.5 309.7 1032.33 309.936 1028.01 310.443C1020.45 311.348 1016.89 313.703 1016.09 318.339C1015.26 323.627 1018.77 326.598 1023.57 326.598ZM1023.99 324.551C1020.09 324.551 1017.68 322.215 1018.28 318.412C1018.88 314.971 1021.74 313.123 1027.93 312.399C1030.67 312.091 1034.05 311.584 1035.36 310.624L1034.65 314.717C1033.73 320.368 1029.2 324.551 1023.99 324.551ZM1058.73 298.182H1052.86L1053.97 291.517H1051.78L1050.67 298.182H1046.58L1046.25 300.156H1050.36L1047.12 319.824C1046.42 324.044 1049.26 326.453 1052.74 326.453C1053.86 326.453 1054.66 326.272 1055.4 326L1055.2 323.99C1054.6 324.171 1054.02 324.316 1053.28 324.316C1050.76 324.316 1048.79 322.812 1049.37 319.426L1052.54 300.156H1058.39L1058.73 298.182ZM1072.77 326.58C1078.27 326.58 1082.17 323.374 1083.85 320.567L1082.02 319.752C1080.63 321.816 1077.55 324.533 1073.04 324.533C1066.59 324.533 1063.75 319.679 1064.87 312.58H1086.11L1086.37 311.203C1087.73 302.963 1083.25 297.765 1077.02 297.765C1070.12 297.765 1064.15 303.905 1062.77 312.218C1061.38 320.512 1065.21 326.58 1072.77 326.58ZM1065.27 310.57C1066.66 304.647 1071.59 299.83 1076.81 299.83C1082.11 299.83 1085.23 304.557 1084.23 310.57H1065.27Z" fill="white"/>
<g filter="url(#filter0_d)">
<path d="M119.248 71.744C122.496 71.8987 126.749 72.0533 132.008 72.208C137.267 72.3627 142.448 72.44 147.552 72.44C154.821 72.44 161.781 72.3627 168.432 72.208C175.083 72.0533 179.8 71.976 182.584 71.976C198.824 71.976 211.043 75.3787 219.24 82.184C227.437 88.9893 231.536 97.728 231.536 108.4C231.536 113.813 230.376 119.149 228.056 124.408C225.891 129.512 222.179 134.229 216.92 138.56C211.816 142.736 204.933 146.139 196.272 148.768V149.232C208.491 150.779 218.003 153.717 224.808 158.048C231.768 162.224 236.64 167.173 239.424 172.896C242.208 178.619 243.6 184.651 243.6 190.992C243.6 204.139 238.651 214.965 228.752 223.472C219.008 231.824 205.397 236 187.92 236C184.517 236 179.413 235.923 172.608 235.768C165.803 235.459 157.605 235.304 148.016 235.304C142.603 235.304 137.267 235.381 132.008 235.536C126.749 235.536 122.496 235.691 119.248 236V231.36C124.507 231.051 128.451 230.432 131.08 229.504C133.864 228.576 135.72 226.72 136.648 223.936C137.576 221.152 138.04 216.976 138.04 211.408V96.336C138.04 90.6133 137.576 86.4373 136.648 83.808C135.72 81.024 133.864 79.168 131.08 78.24C128.451 77.1573 124.507 76.5387 119.248 76.384V71.744ZM176.784 76.384C169.669 76.384 165.029 77.6987 162.864 80.328C160.699 82.9573 159.616 88.2933 159.616 96.336V211.408C159.616 219.451 160.699 224.709 162.864 227.184C165.184 229.504 169.901 230.664 177.016 230.664C192.173 230.664 203.155 227.184 209.96 220.224C216.92 213.109 220.4 203.056 220.4 190.064C220.4 178.155 217.152 168.952 210.656 162.456C204.315 155.96 193.797 152.712 179.104 152.712H155.208C155.208 152.712 155.208 152.093 155.208 150.856C155.208 149.464 155.208 148.768 155.208 148.768H175.16C184.285 148.768 191.323 147.067 196.272 143.664C201.221 140.107 204.624 135.467 206.48 129.744C208.336 123.867 209.264 117.603 209.264 110.952C209.264 99.5067 206.712 90.9227 201.608 85.2C196.659 79.3227 188.384 76.384 176.784 76.384ZM327.401 70.584L384.009 216.512C386.329 222.389 388.958 226.333 391.897 228.344C394.836 230.2 397.542 231.205 400.017 231.36V236C396.924 235.691 393.134 235.536 388.649 235.536C384.164 235.381 379.678 235.304 375.193 235.304C369.161 235.304 363.516 235.381 358.257 235.536C352.998 235.536 348.745 235.691 345.497 236V231.36C353.385 231.051 358.412 229.736 360.577 227.416C362.742 224.941 362.278 219.76 359.185 211.872L316.033 96.568L319.745 93.552L279.377 198.416C276.129 206.768 274.582 213.341 274.737 218.136C274.892 222.776 276.67 226.101 280.073 228.112C283.476 230.123 288.425 231.205 294.921 231.36V236C290.59 235.691 286.028 235.536 281.233 235.536C276.593 235.381 272.262 235.304 268.241 235.304C264.374 235.304 261.049 235.381 258.265 235.536C255.636 235.536 253.161 235.691 250.841 236V231.36C253.934 230.587 257.105 228.808 260.353 226.024C263.601 223.085 266.54 218.136 269.169 211.176L323.689 70.584C324.308 70.584 324.926 70.584 325.545 70.584C326.164 70.584 326.782 70.584 327.401 70.584ZM355.705 169.184V173.824H286.569L288.889 169.184H355.705ZM549.506 71.744V76.384C544.248 76.5387 540.226 77.312 537.442 78.704C534.813 80.096 533.034 82.3387 532.106 85.432C531.178 88.5253 530.714 92.9333 530.714 98.656V237.16C529.786 237.16 528.858 237.16 527.93 237.16C527.157 237.16 526.306 237.16 525.378 237.16L427.938 86.592V209.088C427.938 214.656 428.402 219.064 429.33 222.312C430.413 225.405 432.424 227.648 435.362 229.04C438.456 230.277 443.018 231.051 449.05 231.36V236C446.266 235.691 442.632 235.536 438.146 235.536C433.661 235.381 429.408 235.304 425.386 235.304C421.52 235.304 417.576 235.381 413.554 235.536C409.688 235.536 406.44 235.691 403.81 236V231.36C409.069 231.051 413.013 230.277 415.642 229.04C418.426 227.648 420.282 225.405 421.21 222.312C422.138 219.064 422.602 214.656 422.602 209.088V96.336C422.602 90.6133 422.138 86.4373 421.21 83.808C420.282 81.024 418.426 79.168 415.642 78.24C413.013 77.1573 409.069 76.5387 403.81 76.384V71.744C406.44 71.8987 409.688 72.0533 413.554 72.208C417.576 72.3627 421.52 72.44 425.386 72.44C428.789 72.44 432.037 72.3627 435.13 72.208C438.224 72.0533 441.008 71.8987 443.482 71.744L525.378 197.952V98.656C525.378 92.9333 524.837 88.5253 523.754 85.432C522.826 82.3387 520.816 80.096 517.722 78.704C514.784 77.312 510.298 76.5387 504.266 76.384V71.744C507.05 71.8987 510.685 72.0533 515.17 72.208C519.81 72.3627 524.064 72.44 527.93 72.44C531.952 72.44 535.896 72.3627 539.762 72.208C543.784 72.0533 547.032 71.8987 549.506 71.744ZM729.821 241.336L733.301 242.728C731.445 249.069 729.28 254.328 726.805 258.504C724.485 262.835 721.778 266.392 718.685 269.176C715.747 271.805 711.725 274.203 706.621 276.368C701.672 278.533 695.253 279.616 687.365 279.616C679.168 279.616 671.202 278.224 663.469 275.44C655.89 272.811 648.002 269.563 639.805 265.696C631.608 261.829 622.56 258.272 612.661 255.024C611.578 254.715 610.573 254.405 609.645 254.096C608.717 253.787 607.866 253.555 607.093 253.4C604.154 254.483 600.984 255.333 597.581 255.952C594.178 256.571 590.93 256.88 587.837 256.88C584.744 256.88 582.192 256.493 580.181 255.72C578.17 254.947 577.165 253.787 577.165 252.24C577.165 248.992 581.341 247.368 589.693 247.368C595.106 247.368 600.906 247.987 607.093 249.224C612.661 247.677 617.456 245.899 621.477 243.888C625.498 242.032 629.597 240.253 633.773 238.552C638.104 236.851 643.285 235.768 649.317 235.304L649.549 239.016C644.909 239.48 640.888 240.331 637.485 241.568C634.082 242.96 630.68 244.429 627.277 245.976C623.874 247.523 619.853 248.992 615.213 250.384C622.946 251.931 631.376 253.555 640.501 255.256C649.626 256.957 658.442 258.427 666.949 259.664C675.456 260.901 682.725 261.52 688.757 261.52C699.893 261.52 708.632 259.896 714.973 256.648C721.469 253.4 726.418 248.296 729.821 241.336ZM642.357 68.496C657.05 68.496 669.888 71.8213 680.869 78.472C692.005 85.1227 700.589 94.712 706.621 107.24C712.808 119.613 715.901 134.693 715.901 152.48C715.901 169.803 712.73 184.96 706.389 197.952C700.202 210.944 691.541 221.075 680.405 228.344C669.269 235.613 656.509 239.248 642.125 239.248C627.432 239.248 614.517 235.923 603.381 229.272C592.4 222.621 583.816 213.032 577.629 200.504C571.597 187.976 568.581 172.896 568.581 155.264C568.581 137.941 571.752 122.784 578.093 109.792C584.434 96.8 593.096 86.6693 604.077 79.4C615.213 72.1307 627.973 68.496 642.357 68.496ZM641.429 72.672C631.376 72.672 622.637 76.152 615.213 83.112C607.789 90.072 601.989 99.6613 597.813 111.88C593.792 124.099 591.781 138.251 591.781 154.336C591.781 170.731 594.024 185.037 598.509 197.256C603.149 209.32 609.336 218.677 617.069 225.328C624.957 231.824 633.618 235.072 643.053 235.072C653.106 235.072 661.845 231.592 669.269 224.632C676.693 217.672 682.416 208.083 686.437 195.864C690.613 183.491 692.701 169.339 692.701 153.408C692.701 136.859 690.381 122.552 685.741 110.488C681.256 98.424 675.146 89.144 667.413 82.648C659.68 75.9973 651.018 72.672 641.429 72.672ZM878.847 71.744V76.384C873.588 76.5387 869.567 77.312 866.783 78.704C864.153 80.096 862.375 82.3387 861.447 85.432C860.519 88.5253 860.055 92.9333 860.055 98.656V168.488C860.055 179.315 859.359 188.749 857.967 196.792C856.575 204.835 854.1 211.795 850.543 217.672C846.676 224.168 841.031 229.427 833.607 233.448C826.183 237.315 817.676 239.248 808.087 239.248C800.663 239.248 793.548 238.32 786.743 236.464C780.092 234.763 774.215 231.515 769.111 226.72C764.625 222.389 761.068 217.827 758.439 213.032C755.964 208.237 754.263 202.36 753.335 195.4C752.407 188.44 751.943 179.701 751.943 169.184V96.336C751.943 90.6133 751.479 86.4373 750.551 83.808C749.623 81.024 747.767 79.168 744.983 78.24C742.353 77.1573 738.409 76.5387 733.151 76.384V71.744C736.399 71.8987 740.652 72.0533 745.911 72.208C751.169 72.3627 756.815 72.44 762.847 72.44C768.26 72.44 773.596 72.3627 778.855 72.208C784.268 72.0533 788.753 71.8987 792.311 71.744V76.384C787.052 76.5387 783.031 77.1573 780.247 78.24C777.617 79.168 775.839 81.024 774.911 83.808C773.983 86.4373 773.519 90.6133 773.519 96.336V173.128C773.519 183.645 774.292 193.312 775.839 202.128C777.385 210.944 780.711 217.981 785.815 223.24C791.073 228.499 799.193 231.128 810.175 231.128C821.929 231.128 830.977 228.576 837.319 223.472C843.815 218.213 848.3 211.021 850.775 201.896C853.404 192.771 854.719 182.485 854.719 171.04V98.656C854.719 92.9333 854.023 88.5253 852.631 85.432C851.393 82.3387 849.228 80.096 846.135 78.704C843.041 77.312 838.865 76.5387 833.607 76.384V71.744C836.391 71.8987 840.025 72.0533 844.511 72.208C849.151 72.3627 853.404 72.44 857.271 72.44C861.292 72.44 865.236 72.3627 869.103 72.208C873.124 72.0533 876.372 71.8987 878.847 71.744ZM1010.54 71.744C1009.92 77.1573 1009.46 82.416 1009.15 87.52C1008.99 92.624 1008.92 96.4907 1008.92 99.12C1008.92 101.904 1008.99 104.611 1009.15 107.24C1009.3 109.715 1009.46 111.803 1009.61 113.504H1004.28C1003.35 104.379 1002.03 97.1867 1000.33 91.928C998.63 86.5147 995.691 82.7253 991.515 80.56C987.494 78.24 981.385 77.08 973.187 77.08H953.931C948.673 77.08 944.651 77.544 941.867 78.472C939.238 79.2453 937.459 81.024 936.531 83.808C935.603 86.4373 935.139 90.6133 935.139 96.336V211.408C935.139 216.976 935.603 221.152 936.531 223.936C937.459 226.72 939.238 228.576 941.867 229.504C944.651 230.277 948.673 230.664 953.931 230.664H970.867C980.611 230.664 987.958 229.349 992.907 226.72C998.011 224.091 1001.65 219.837 1003.81 213.96C1006.13 207.928 1007.83 199.808 1008.92 189.6H1014.25C1013.79 193.776 1013.56 199.344 1013.56 206.304C1013.56 209.243 1013.63 213.496 1013.79 219.064C1014.1 224.477 1014.56 230.123 1015.18 236C1007.29 235.691 998.398 235.536 988.499 235.536C978.601 235.381 969.785 235.304 962.051 235.304C957.411 235.304 951.225 235.304 943.491 235.304C935.913 235.304 927.793 235.381 919.131 235.536C910.47 235.536 902.35 235.691 894.771 236V231.36C900.03 231.051 903.974 230.432 906.603 229.504C909.387 228.576 911.243 226.72 912.171 223.936C913.099 221.152 913.563 216.976 913.563 211.408V96.336C913.563 90.6133 913.099 86.4373 912.171 83.808C911.243 81.024 909.387 79.168 906.603 78.24C903.974 77.1573 900.03 76.5387 894.771 76.384V71.744C902.35 71.8987 910.47 72.0533 919.131 72.208C927.793 72.3627 935.913 72.44 943.491 72.44C951.225 72.44 957.411 72.44 962.051 72.44C969.166 72.44 977.209 72.44 986.179 72.44C995.305 72.2853 1003.42 72.0533 1010.54 71.744ZM970.635 151.088C970.635 151.088 970.635 151.861 970.635 153.408C970.635 154.955 970.635 155.728 970.635 155.728H928.179C928.179 155.728 928.179 154.955 928.179 153.408C928.179 151.861 928.179 151.088 928.179 151.088H970.635ZM977.363 120.464C976.745 129.28 976.435 136.008 976.435 140.648C976.59 145.288 976.667 149.541 976.667 153.408C976.667 157.275 976.745 161.528 976.899 166.168C977.054 170.808 977.441 177.536 978.059 186.352H972.723C972.105 181.403 971.331 176.608 970.403 171.968C969.63 167.173 967.774 163.307 964.835 160.368C962.051 157.275 957.257 155.728 950.451 155.728V151.088C957.257 151.088 961.974 149.309 964.603 145.752C967.387 142.195 969.166 138.019 969.939 133.224C970.713 128.429 971.409 124.176 972.027 120.464H977.363ZM1163.75 71.744C1163.13 77.6213 1162.66 83.344 1162.35 88.912C1162.2 94.3253 1162.12 98.5013 1162.12 101.44C1162.12 105.152 1162.2 108.632 1162.35 111.88C1162.51 115.128 1162.66 117.989 1162.82 120.464H1157.48C1156.4 109.637 1154.93 101.131 1153.07 94.944C1151.22 88.6027 1147.97 84.04 1143.33 81.256C1138.69 78.472 1131.5 77.08 1121.75 77.08H1109.23V209.088C1109.23 215.275 1109.77 219.915 1110.85 223.008C1112.09 226.101 1114.41 228.189 1117.81 229.272C1121.21 230.355 1126.16 231.051 1132.66 231.36V236C1128.64 235.691 1123.53 235.536 1117.35 235.536C1111.16 235.381 1104.9 235.304 1098.55 235.304C1091.59 235.304 1085.02 235.381 1078.83 235.536C1072.8 235.536 1067.93 235.691 1064.22 236V231.36C1070.71 231.051 1075.66 230.355 1079.07 229.272C1082.47 228.189 1084.71 226.101 1085.79 223.008C1087.03 219.915 1087.65 215.275 1087.65 209.088V77.08H1075.12C1065.53 77.08 1058.34 78.472 1053.55 81.256C1048.91 84.04 1045.66 88.6027 1043.8 94.944C1041.95 101.131 1040.48 109.637 1039.39 120.464H1034.06C1034.37 117.989 1034.52 115.128 1034.52 111.88C1034.68 108.632 1034.75 105.152 1034.75 101.44C1034.75 98.5013 1034.6 94.3253 1034.29 88.912C1034.14 83.344 1033.75 77.6213 1033.13 71.744C1039.63 71.8987 1046.66 72.0533 1054.24 72.208C1061.98 72.3627 1069.71 72.44 1077.44 72.44C1085.18 72.44 1092.21 72.44 1098.55 72.44C1104.9 72.44 1111.86 72.44 1119.43 72.44C1127.17 72.44 1134.9 72.3627 1142.63 72.208C1150.37 72.0533 1157.41 71.8987 1163.75 71.744Z" fill="#E9C46A"/>
</g>
<defs>
<filter id="filter0_d" x="109.248" y="62.496" width="1064.5" height="231.12" filterUnits="userSpaceOnUse" color-interpolation-filters="sRGB">
<feFlood flood-opacity="0" result="BackgroundImageFix"/>
<feColorMatrix in="SourceAlpha" type="matrix" values="0 0 0 0 0 0 0 0 0 0 0 0 0 0 0 0 0 0 127 0" result="hardAlpha"/>
<feOffset dy="4"/>
<feGaussianBlur stdDeviation="5"/>
<feComposite in2="hardAlpha" operator="out"/>
<feColorMatrix type="matrix" values="0 0 0 0 0 0 0 0 0 0 0 0 0 0 0 0 0 0 0.6 0"/>
<feBlend mode="normal" in2="BackgroundImageFix" result="effect1_dropShadow"/>
<feBlend mode="normal" in="SourceGraphic" in2="effect1_dropShadow" result="shape"/>
</filter>
</defs>
</svg>
