<svg width="1280" height="640" viewBox="0 0 1280 640" fill="none" xmlns="http://www.w3.org/2000/svg">
<rect width="1280" height="640" fill="#323232"/>
<g clip-path="url(#clip0)">
<ellipse cx="285" cy="320.402" rx="249" ry="248.5" fill="#E9C46A"/>
</g>
<path fill-rule="evenodd" clip-rule="evenodd" d="M138.499 510.677L134.098 400.107L183.938 398.117C205.228 401.045 226.782 411.667 248.448 424.09L287.154 422.551C304.72 422.926 314.613 440.266 298.025 452.577C284.86 463.048 266.917 463.198 248.486 462.26C235.809 462.148 235.922 479.15 249.125 478.662C253.714 478.849 258.679 477.573 263.005 477.386C285.913 476.447 304.607 471.343 315.441 452.802L320.707 439.065L377.167 408.289C405.604 397.667 424.75 424.428 404.363 446.196C363.851 478.136 324.619 507.261 281.662 529.105C250.667 549.635 218.845 550.273 186.345 532.896L138.499 510.677ZM111.867 342.194H457.551C460.108 342.194 462.215 344.334 462.215 346.848V367.153C462.215 369.668 460.108 371.807 457.551 371.807H111.867C109.31 371.807 107.203 369.705 107.203 367.153V346.848C107.203 344.296 109.31 342.194 111.867 342.194ZM298.138 148.002C392.777 155.546 472.484 234.927 460.71 328.382H108.745C97.1223 234.326 177.13 154.833 272.447 147.889V132.651H257.4C254.767 132.651 252.586 130.474 252.586 127.847V110.657C252.586 108.03 254.73 105.853 257.4 105.853H312.77C315.403 105.853 317.585 108.03 317.585 110.657V127.847C317.585 130.474 315.403 132.651 312.77 132.651H298.138V148.002ZM0 396.316L118.676 390.085L123.942 522.387L5.26612 528.58L0 396.316Z" fill="#323232"/>
<path d="M1000.56 367.916C1002.99 367.849 1005.37 368.649 1007.28 370.179C1008.22 370.985 1009.03 371.942 1009.67 373.013C1010.82 371.02 1012.58 369.475 1014.69 368.62C1017.3 367.654 1020.17 367.671 1022.77 368.668C1025 369.58 1027.03 370.909 1028.78 372.586C1030.18 373.843 1031.47 375.226 1032.91 376.441C1033.65 377.102 1034.5 377.625 1035.42 377.985C1036.05 378.187 1036.72 378.205 1037.35 378.036C1037.99 377.868 1038.56 377.52 1039.01 377.032C1039.41 376.564 1039.62 375.959 1039.59 375.341C1039.57 374.723 1039.31 374.137 1038.88 373.705C1038.74 373.582 1038.57 373.491 1038.39 373.437C1038.21 373.384 1038.02 373.37 1037.84 373.395C1037.65 373.421 1037.47 373.486 1037.31 373.586C1037.15 373.686 1037.02 373.819 1036.91 373.977C1036.77 374.248 1036.71 374.552 1036.73 374.857C1036.76 375.161 1036.86 375.454 1037.03 375.702C1036.63 375.459 1036.28 375.122 1036.02 374.717C1035.77 374.313 1035.61 373.852 1035.56 373.373C1035.52 372.81 1035.67 372.25 1035.98 371.781C1036.28 371.312 1036.73 370.959 1037.26 370.778C1038.25 370.389 1039.35 370.341 1040.37 370.641C1041.4 370.94 1042.3 371.572 1042.95 372.44C1044 374.17 1044.39 376.239 1044.03 378.244C1043.9 379.182 1043.59 380.084 1043.11 380.893C1042.63 381.703 1041.99 382.403 1041.23 382.952C1039.03 384.404 1036.43 385.108 1033.82 384.963C1031.34 384.877 1028.9 384.341 1026.6 383.379C1022.77 381.805 1019.18 379.627 1015.22 378.37C1013.85 377.977 1012.45 377.672 1011.04 377.457C1009.98 377.475 1008.92 377.419 1007.86 377.495C1006.57 377.607 1005.3 377.903 1004.09 378.372C1000.06 379.652 996.423 381.893 992.525 383.462C989.222 384.87 985.595 385.284 982.07 384.654C980.065 384.315 978.226 383.307 976.841 381.787C975.724 380.417 975.146 378.671 975.219 376.889C975.088 375.199 975.575 373.52 976.585 372.176C977.095 371.575 977.737 371.106 978.459 370.809C979.18 370.512 979.961 370.394 980.736 370.466C981.238 370.48 981.732 370.604 982.183 370.829C982.634 371.055 983.033 371.377 983.352 371.774C983.57 372.106 983.711 372.486 983.763 372.883C983.815 373.281 983.777 373.685 983.652 374.065C983.364 374.731 982.887 375.295 982.284 375.684C982.46 375.439 982.565 375.149 982.587 374.846C982.61 374.543 982.548 374.24 982.409 373.972C982.298 373.808 982.152 373.67 981.984 373.57C981.815 373.469 981.627 373.407 981.432 373.388C981.237 373.369 981.041 373.394 980.857 373.46C980.672 373.527 980.504 373.633 980.365 373.773C980.029 374.143 979.814 374.609 979.747 375.109C979.681 375.608 979.767 376.116 979.993 376.564C980.266 377.011 980.638 377.386 981.079 377.658C981.52 377.93 982.018 378.092 982.532 378.131C984.018 378.087 985.43 377.456 986.469 376.371C988.658 374.199 990.982 372.175 993.428 370.313C995.522 368.809 998.006 367.975 1000.56 367.916Z" fill="white"/>
<path d="M702.178 404.583C701.922 404.721 701.943 404.765 702.189 404.638C702.265 404.606 702.334 404.561 702.394 404.504C702.394 404.458 702.394 404.458 702.178 404.583ZM702.695 404.299C702.573 404.402 702.573 404.402 702.719 404.334C702.773 404.308 702.823 404.273 702.866 404.231C702.866 404.172 702.831 404.185 702.695 404.299ZM703.032 404.093C702.909 404.196 702.909 404.196 703.055 404.128C703.11 404.102 703.159 404.066 703.202 404.023C703.202 403.968 703.167 403.979 703.032 404.093ZM703.372 403.89C703.249 403.992 703.249 403.992 703.391 403.922C703.471 403.879 703.538 403.833 703.538 403.82C703.538 403.765 703.504 403.776 703.372 403.89ZM703.831 403.581C703.596 403.741 703.514 403.844 703.73 403.73C703.874 403.64 704.12 403.443 704.077 403.443C703.984 403.478 703.906 403.537 703.829 403.581H703.831ZM683.223 338.97C683.066 338.981 682.594 339.025 682.18 339.06C672.379 339.961 663.21 345.316 657.398 353.565C654.186 358.09 652.099 363.335 651.312 368.854C651.034 370.779 651 371.348 651 373.957C651 376.565 651.034 377.125 651.312 379.05C653.189 392.199 662.404 403.238 674.894 407.328C677.142 408.057 679.497 408.56 682.18 408.869C683.223 408.982 687.733 408.982 688.776 408.869C693.414 408.344 697.33 407.182 701.204 405.176C701.799 404.87 701.911 404.789 701.831 404.721C699.941 402.185 698.067 399.636 696.209 397.075L690.699 389.522L683.796 379.142C681.5 375.667 679.181 372.207 676.838 368.764C676.814 368.764 676.784 373.378 676.771 379.004C676.747 388.859 676.747 389.259 676.625 389.487C676.507 389.762 676.296 389.984 676.03 390.115C675.817 390.218 675.625 390.239 674.605 390.239H673.44L673.136 390.047C672.945 389.923 672.791 389.75 672.688 389.546L672.541 389.237L672.552 375.519L672.575 361.801L672.789 361.528C672.925 361.36 673.093 361.221 673.282 361.119C673.565 360.981 673.677 360.959 674.843 360.959C676.211 360.959 676.437 361.014 676.797 361.414C679.593 365.636 682.365 369.874 685.113 374.128C689.593 381.023 695.709 390.432 698.715 395.048L704.182 403.446L704.452 403.264C707.079 401.492 709.46 399.369 711.531 396.953C715.874 391.906 718.693 385.696 719.648 379.065C719.926 377.14 719.961 376.569 719.961 373.962C719.961 371.352 719.926 370.794 719.648 368.869C717.772 355.72 708.557 344.682 696.067 340.589C693.732 339.838 691.33 339.327 688.895 339.064C688.242 338.996 683.786 338.915 683.225 338.974L683.223 338.97ZM697.332 360.139C697.492 360.219 697.635 360.33 697.752 360.467C697.87 360.604 697.959 360.763 698.015 360.935C698.073 361.119 698.084 364.923 698.073 373.492L698.049 385.794L695.918 382.469L693.774 379.142V370.21C693.774 364.42 693.798 361.173 693.828 361.014C693.933 360.648 694.175 360.338 694.502 360.15C694.769 360.012 694.873 360.001 695.94 360.001C696.937 360.001 697.105 360.012 697.33 360.139H697.332Z" fill="white"/>
<path d="M754.961 373.954V408.954H823.922V338.954H754.961V373.954ZM810.531 371.163C812.184 371.558 813.686 372.437 814.851 373.691C815.481 374.374 816.422 375.627 816.502 375.936C816.524 376.028 813.528 378.066 811.709 379.206C811.643 379.252 811.373 378.968 811.08 378.521C810.194 377.211 809.261 376.642 807.837 376.539C805.749 376.402 804.402 377.509 804.412 379.366C804.401 379.82 804.501 380.27 804.703 380.676C805.165 381.645 806.029 382.225 808.699 383.399C813.638 385.552 815.748 386.976 817.06 388.993C818.53 391.248 818.855 394.849 817.868 397.537C816.769 400.442 814.052 402.424 810.235 403.074C809.057 403.29 806.251 403.255 804.981 403.017C802.21 402.516 799.583 401.125 797.967 399.303C797.327 398.596 796.092 396.739 796.172 396.614C796.206 396.568 796.486 396.387 796.801 396.203L799.361 394.698L801.348 393.525L801.764 394.151C802.348 395.05 803.615 396.282 804.38 396.691C806.58 397.876 809.6 397.706 811.093 396.349C811.699 395.838 812.037 395.05 811.992 394.254C811.992 393.444 811.89 393.081 811.474 392.475C810.936 391.701 809.847 391.04 806.738 389.673C803.18 388.111 801.641 387.155 800.251 385.618C799.376 384.605 798.729 383.412 798.355 382.12C798.096 381.129 798.029 378.644 798.232 377.653C798.962 374.155 801.566 371.729 805.302 371.012C806.516 370.773 809.343 370.863 810.533 371.16L810.531 371.163ZM794.346 374.092L794.368 376.951H785.388V402.849H779.035V376.951H770.068V374.149C770.068 372.587 770.102 371.289 770.145 371.254C770.18 371.209 775.634 371.187 782.257 371.198L794.312 371.233L794.346 374.092Z" fill="white"/>
<path d="M897.251 391.875C897.213 391.962 897.175 392.032 897.251 391.875V391.875ZM928.885 379.188C926.33 379.188 923.81 379.859 921.52 381.157C920.77 379.422 919.996 377.905 919.869 376.768C919.717 375.441 919.551 374.653 919.729 373.078C919.907 371.503 920.707 369.272 920.694 369.112C920.682 368.952 920.517 368.15 918.878 368.135C917.24 368.12 915.831 368.5 915.666 368.995C915.376 369.901 915.151 370.833 914.993 371.781C914.701 373.487 911.719 379.582 910.03 382.761C909.472 381.521 909.002 380.428 908.9 379.553C908.748 378.226 908.583 377.438 908.761 375.864C908.938 374.289 909.738 372.058 909.726 371.897C909.713 371.737 909.548 370.935 907.912 370.92C906.277 370.906 904.865 371.285 904.7 371.781C904.535 372.276 904.357 373.443 904.027 374.566C903.697 375.689 899.722 385.838 898.683 388.477C898.15 389.819 897.693 390.898 897.363 391.627C897.312 391.743 897.274 391.816 897.248 391.875C897.286 391.802 897.312 391.729 897.312 391.758C897.033 392.385 896.867 392.735 896.867 392.735V392.75C896.652 393.216 896.41 393.639 896.296 393.639C896.22 393.639 896.055 392.414 896.334 390.737C896.931 387.208 898.34 381.726 898.328 381.536C898.315 381.434 898.594 380.486 897.401 379.976C896.245 379.494 895.826 380.297 895.725 380.297C895.623 380.297 895.547 380.588 895.547 380.588C895.547 380.588 896.829 374.405 893.083 374.405C890.747 374.405 887.496 377.351 885.899 380.019C884.896 380.646 882.724 382.003 880.439 383.446L877.81 385.109C877.747 385.036 877.696 384.963 877.632 384.89C873.086 379.319 864.695 375.382 865.051 367.902C865.178 365.175 866.003 358.015 881.188 349.324C893.632 342.208 903.58 344.162 905.294 348.507C907.757 354.705 899.973 366.239 887.052 367.902C882.125 368.529 879.537 366.341 878.889 365.525C878.216 364.664 878.115 364.621 877.861 364.781C877.442 365.044 877.708 365.802 877.861 366.254C878.242 367.406 879.829 369.447 882.534 370.468C884.908 371.358 890.683 371.853 897.665 368.747C905.51 365.277 911.618 355.609 909.825 347.516C908.001 339.292 896.126 336.594 884.898 341.173C878.206 343.899 870.971 348.187 865.767 353.772C859.583 360.421 858.595 366.21 859.001 368.631C860.449 377.22 870.757 382.819 874.882 386.961L874.31 387.325C872.241 388.506 864.383 393.231 862.415 398.218C860.193 403.876 862.783 407.93 864.482 408.484C869.79 410.175 875.222 407.128 878.143 402.126C881.063 397.124 880.708 390.592 879.362 387.617C879.349 387.573 879.324 387.544 879.311 387.5C880.835 386.464 882.371 385.453 883.92 384.467C883.412 386.042 883.044 387.938 882.854 390.679C882.625 393.887 883.781 398.043 885.279 399.676C885.939 400.391 886.737 400.405 887.235 400.405C888.987 400.405 889.774 398.743 890.65 396.76C891.73 394.339 892.682 391.525 892.682 391.525C892.682 391.525 891.488 399.137 894.752 399.137C895.946 399.137 897.139 397.372 897.672 396.468V396.483C897.672 396.483 897.698 396.424 897.761 396.308C897.888 396.089 897.952 395.958 897.952 395.958V395.914C898.434 394.966 899.488 392.793 901.076 389.206C903.133 384.569 905.098 378.78 905.098 378.78C905.289 380.052 905.553 381.309 905.886 382.542C906.241 383.927 906.99 385.444 907.587 386.917C907.105 387.675 906.813 388.113 906.813 388.113C906.813 388.124 906.818 388.133 906.825 388.142C906.444 388.725 906.013 389.352 905.568 389.964C903.945 392.181 902.013 394.718 901.759 395.447C901.454 396.308 901.53 396.949 902.114 397.445C902.546 397.824 903.308 397.883 904.108 397.81C905.568 397.693 906.597 397.285 907.092 397.022C908.005 396.646 908.869 396.126 909.657 395.477C911.244 394.135 912.209 392.21 912.12 389.673C912.07 388.273 911.676 386.873 911.194 385.561C911.333 385.327 911.486 385.079 911.625 384.832C913.278 382 914.767 379.047 916.082 375.992C916.273 377.263 916.534 378.52 916.87 379.754C917.174 380.935 917.771 382.233 918.317 383.502C915.955 385.704 914.495 388.255 913.99 389.932C913.05 393.038 913.786 394.438 915.171 394.759C915.793 394.905 916.682 394.57 917.342 394.249C918.322 393.872 919.247 393.327 920.082 392.63C921.669 391.289 923.206 389.407 923.102 386.856C923.064 385.704 922.784 384.552 922.416 383.443C924.41 382.481 927 381.956 930.302 382.393C937.372 383.341 938.756 388.416 938.489 390.53C938.223 392.645 936.737 393.826 936.242 394.176C935.747 394.526 935.594 394.657 935.632 394.919C935.696 395.299 935.924 395.284 936.344 395.197C936.928 395.08 940.051 393.476 940.191 389.553C940.394 384.595 936.242 379.142 928.89 379.185L928.885 379.188ZM874.387 400.289C872.05 403.22 868.777 404.328 867.367 403.395C865.856 402.386 866.453 398.072 869.333 394.949C871.085 393.053 873.345 391.303 874.844 390.224C875.187 389.991 875.682 389.641 876.291 389.218C876.341 389.181 876.392 389.147 876.444 389.116C876.558 389.028 876.685 388.955 876.812 388.868C877.863 393.301 876.85 397.209 874.387 400.286V400.289ZM891.448 386.961C890.635 389.25 888.923 395.083 887.88 394.777C886.991 394.514 886.445 390.067 887.702 385.692C888.337 383.49 889.683 380.865 890.483 379.844C891.765 378.197 893.175 377.672 893.505 378.328C893.949 379.188 891.956 385.531 891.448 386.961ZM905.543 394.689C905.2 394.893 904.883 395.024 904.73 394.922C904.616 394.849 904.87 394.572 904.87 394.572C904.87 394.572 906.635 392.4 907.333 391.408C907.74 390.825 908.209 390.139 908.717 389.381C908.717 389.454 908.73 389.527 908.73 389.614C908.715 392.225 906.531 393.989 905.54 394.689H905.543ZM916.412 391.846C916.158 391.641 916.197 390.956 917.047 388.827C917.378 387.996 918.139 386.596 919.46 385.254C919.61 385.762 919.691 386.293 919.701 386.829C919.689 390.11 917.644 391.335 916.412 391.846V391.846Z" fill="white"/>
<path d="M1039.39 459.473C1039.39 457.465 1038.73 455.514 1037.53 453.925C1036.33 452.336 1034.65 451.199 1032.75 450.691L1041.27 425H999.023L1007.58 450.782C1005.73 451.331 1004.11 452.475 1002.95 454.044C1001.8 455.613 1001.17 457.522 1001.16 459.486C1001.16 462.529 1002.65 465.228 1004.91 466.89C1004 468.202 1002.97 469.415 1001.82 470.512C999.711 472.566 997.242 474.197 994.544 475.322C992.157 473.68 991.134 470.775 992.059 468.192C1001.76 465.103 999.616 450.498 989.473 450.454C987.117 450.456 984.859 451.413 983.193 453.116C981.527 454.818 980.591 457.127 980.589 459.534C980.589 462.008 981.567 464.274 983.164 465.901C983.018 466.175 982.883 466.472 982.738 466.768C981.413 469.57 979.906 472.726 979.328 476.27C978.181 483.368 980.064 489.063 984.613 492.288C987.071 494.061 990.009 495.009 993.018 495C998.223 495 1003.52 492.323 1008.64 489.724C1012.29 487.889 1016.06 485.964 1019.76 485.032C1021.13 484.691 1022.56 484.487 1024.06 484.256C1027.12 483.812 1030.27 483.346 1033.1 481.659C1034.72 480.713 1036.12 479.416 1037.2 477.859C1038.27 476.302 1039 474.523 1039.33 472.647C1039.81 469.789 1039.36 466.852 1038.06 464.274C1038.92 462.872 1039.39 461.245 1039.39 459.477L1039.39 459.473ZM1035.52 459.473C1035.52 460.826 1034.99 462.123 1034.06 463.079C1033.12 464.036 1031.85 464.574 1030.53 464.576C1025.8 464.565 1023.73 458.471 1027.44 455.461L1027.45 455.442C1027.62 455.317 1027.8 455.19 1027.96 455.074C1027.96 455.074 1028 455.074 1028 455.054C1028.07 455.008 1028.15 454.952 1028.23 454.906C1028.25 454.906 1028.26 454.895 1028.28 454.895C1028.36 454.849 1028.46 454.816 1028.56 454.77C1028.66 454.724 1028.76 454.691 1028.84 454.645C1028.86 454.645 1028.88 454.634 1028.9 454.634C1028.98 454.61 1029.07 454.567 1029.14 454.556C1029.15 454.556 1029.2 454.532 1029.22 454.532C1029.32 454.508 1029.4 454.486 1029.5 454.473H1029.51L1029.81 454.405C1029.83 454.405 1029.87 454.405 1029.89 454.381C1029.97 454.381 1030.04 454.357 1030.13 454.357H1030.22C1030.32 454.357 1030.42 454.346 1030.55 454.346H1030.8C1030.88 454.346 1030.95 454.346 1031.03 454.357H1031.06C1031.22 454.381 1031.38 454.403 1031.54 454.451C1032.67 454.695 1033.68 455.327 1034.4 456.241C1035.12 457.155 1035.52 458.296 1035.52 459.473H1035.52ZM1004.55 429.058H1035.74L1028.59 450.634C1028.29 450.693 1028 450.793 1027.69 450.896L1020.16 435.197L1012.6 450.796C1012.29 450.702 1011.98 450.63 1011.67 450.579L1004.55 429.058ZM1018.73 457.708C1018.37 455.837 1017.43 454.134 1016.06 452.843L1020.16 444.38L1024.3 453.024C1023.04 454.296 1022.17 455.928 1021.82 457.708H1018.73ZM1008.8 454.505C1008.89 454.48 1008.99 454.461 1009.08 454.451H1009.13C1009.21 454.427 1009.29 454.427 1009.37 454.405H1009.45C1009.52 454.405 1009.59 454.381 1009.67 454.381H1010.44C1010.52 454.381 1010.58 454.405 1010.64 454.405C1010.68 454.405 1010.69 454.405 1010.74 454.429C1010.82 454.453 1010.88 454.453 1010.95 454.464C1010.98 454.464 1011 454.464 1011.04 454.483L1011.31 454.543H1011.33C1011.41 454.567 1011.5 454.588 1011.58 454.632C1011.59 454.632 1011.61 454.643 1011.66 454.643C1011.71 454.667 1011.79 454.689 1011.86 454.722C1011.87 454.722 1011.89 454.746 1011.91 454.746C1011.99 454.792 1012.07 454.816 1012.15 454.849H1012.17C1012.26 454.884 1012.35 454.934 1012.43 454.997H1012.45C1012.53 455.032 1012.6 455.087 1012.68 455.135C1012.7 455.135 1012.7 455.159 1012.73 455.159C1012.8 455.194 1012.86 455.262 1012.94 455.297L1012.96 455.321C1013.19 455.503 1013.42 455.706 1013.64 455.914L1013.65 455.925C1014.54 456.881 1015.04 458.145 1015.02 459.453C1014.81 466.039 1005.25 466.039 1005.04 459.453C1005.02 457.119 1006.59 455.078 1008.8 454.51L1008.8 454.505ZM989.281 454.357C990.607 454.357 991.878 454.895 992.816 455.853C993.754 456.811 994.28 458.111 994.28 459.466C994.28 460.821 993.754 462.121 992.816 463.079C991.878 464.038 990.607 464.576 989.281 464.576C986.53 464.576 984.287 462.286 984.287 459.473C984.287 456.66 986.53 454.357 989.281 454.357V454.357ZM1035.41 471.939C1035.18 473.234 1034.68 474.462 1033.93 475.537C1033.19 476.612 1032.23 477.507 1031.11 478.159C1028.94 479.435 1026.28 479.846 1023.5 480.242C1021.92 480.447 1020.36 480.733 1018.81 481.097C1014.69 482.136 1010.72 484.151 1006.87 486.1C1001.96 488.595 997.32 490.94 993.018 490.94C990.811 490.954 988.656 490.253 986.864 488.937C982.504 485.859 982.718 480.084 983.241 476.917C983.709 473.953 985.036 471.186 986.306 468.533C986.398 468.373 986.451 468.224 986.53 468.067C986.965 468.224 987.421 468.349 987.9 468.432C987.14 472.726 989.281 477.171 993.45 479.358L994.197 479.754L995.01 479.459C998.478 478.192 1001.7 476.154 1004.53 473.422C1006.1 471.929 1007.49 470.245 1008.65 468.408C1010.83 468.749 1013.05 468.254 1014.89 467.019C1016.73 465.784 1018.05 463.897 1018.61 461.721H1021.94C1022.44 463.665 1023.55 465.387 1025.1 466.616C1026.65 467.844 1028.56 468.511 1030.53 468.511C1032.18 468.511 1033.7 468.045 1035.01 467.258C1035.52 468.773 1035.69 470.357 1035.41 471.941V471.939Z" fill="white"/>
<path d="M1113.64 338.954C1094.54 338.954 1079.16 354.564 1079.16 373.954C1079.16 393.344 1094.54 408.954 1113.64 408.954C1132.74 408.954 1148.12 393.344 1148.12 373.954C1148.12 354.564 1132.74 338.954 1113.64 338.954ZM1121.69 351.592C1122.06 351.58 1122.4 351.988 1122.18 352.403L1113.43 368.678C1113.39 368.761 1113.36 368.854 1113.37 368.948C1113.37 369.042 1113.39 369.135 1113.44 369.216C1113.49 369.297 1113.56 369.364 1113.64 369.411C1113.72 369.458 1113.81 369.482 1113.9 369.483H1129.02C1129.5 369.483 1129.74 370.086 1129.38 370.425L1102.89 395.523C1102.42 395.972 1101.71 395.339 1102.09 394.805L1114.63 377.244C1114.69 377.163 1114.72 377.067 1114.73 376.967C1114.74 376.867 1114.72 376.767 1114.67 376.678C1114.63 376.589 1114.56 376.514 1114.48 376.462C1114.39 376.409 1114.3 376.381 1114.2 376.38H1098.2C1098.09 376.38 1097.99 376.348 1097.9 376.288C1097.81 376.227 1097.75 376.142 1097.71 376.042C1097.66 375.942 1097.65 375.832 1097.68 375.726C1097.7 375.62 1097.75 375.523 1097.82 375.447L1121.33 351.755C1121.42 351.655 1121.55 351.597 1121.69 351.592H1121.69Z" fill="white"/>
<path d="M669.735 450.478L684.647 441.733C684.83 441.625 685.038 441.569 685.249 441.569C685.461 441.569 685.669 441.625 685.852 441.733L700.763 450.478C700.947 450.586 701.099 450.741 701.204 450.928C701.31 451.115 701.365 451.326 701.364 451.541V469.017C701.364 469.232 701.309 469.443 701.203 469.629C701.098 469.816 700.946 469.971 700.763 470.08L685.852 478.81C685.669 478.918 685.461 478.974 685.249 478.974C685.038 478.974 684.83 478.918 684.647 478.81L669.735 470.08C669.552 469.972 669.4 469.817 669.295 469.63C669.189 469.443 669.134 469.232 669.134 469.017V451.541C669.134 451.101 669.367 450.697 669.735 450.478V450.478ZM724.028 458.443L706.211 426.973C705.56 425.829 704.373 425 703.067 425H667.439C666.145 425 664.946 425.829 664.295 426.973L646.478 458.366C646.165 458.932 646 459.571 646 460.22C646 460.87 646.165 461.509 646.478 462.075L664.31 493.286C664.948 494.43 666.148 495 667.441 495H703.082C704.375 495 705.563 494.442 706.213 493.299L724.03 462.047C724.349 461.502 724.518 460.879 724.518 460.244C724.518 459.609 724.349 458.986 724.03 458.441L724.028 458.443ZM709.278 473.57C709.271 473.8 709.206 474.024 709.09 474.221C708.974 474.419 708.809 474.583 708.613 474.698L685.901 487.981C685.707 488.095 685.487 488.155 685.263 488.155C685.039 488.155 684.819 488.095 684.625 487.981L661.9 474.698C661.705 474.582 661.541 474.418 661.425 474.22C661.309 474.023 661.244 473.799 661.235 473.57V446.976C661.235 446.52 661.503 446.092 661.9 445.86L684.6 432.562C684.796 432.454 685.015 432.397 685.238 432.397C685.461 432.397 685.68 432.454 685.876 432.562L708.601 445.86C708.797 445.976 708.96 446.14 709.077 446.337C709.193 446.534 709.258 446.758 709.266 446.988L709.278 473.57Z" fill="white"/>
<path d="M778.701 493.338C778.701 494.261 777.971 495 777.063 495H760.642C758.453 495 758.453 491.662 760.642 491.662H777.063C777.973 491.662 778.701 492.414 778.701 493.338ZM777.063 484.997H773.775C771.585 484.997 771.585 488.335 773.775 488.335H777.063C779.253 488.335 779.253 484.997 777.063 484.997ZM760.642 488.335H767.209C769.398 488.335 769.398 484.997 767.209 484.997H760.642C758.453 484.997 758.453 488.335 760.642 488.335ZM777.063 478.331H760.642C758.453 478.331 758.453 481.669 760.642 481.669H777.063C779.253 481.669 779.253 478.331 777.063 478.331ZM800.049 471.666H770.495C768.305 471.666 768.305 475.004 770.495 475.004H800.049C802.239 475.004 802.239 471.666 800.049 471.666ZM760.642 475.004H763.931C766.12 475.004 766.12 471.666 763.931 471.666H760.642C758.453 471.666 758.453 475.004 760.642 475.004ZM809.904 465.001H800.049C797.86 465.001 797.86 468.328 800.049 468.328H809.904C812.093 468.328 812.093 465.001 809.904 465.001ZM780.352 468.328H793.485C795.674 468.328 795.674 465.001 793.485 465.001H780.352C778.163 465.001 778.163 468.328 780.352 468.328ZM760.642 468.328H773.775C775.964 468.328 775.964 465.001 773.775 465.001H760.642C758.453 465.001 758.453 468.328 760.642 468.328ZM813.182 458.338H786.916C784.727 458.338 784.727 461.665 786.916 461.665H813.182C815.371 461.665 815.371 458.338 813.182 458.338ZM781.99 460C781.99 459.559 781.817 459.136 781.51 458.824C781.203 458.513 780.786 458.338 780.352 458.338H770.497C768.308 458.338 768.308 461.665 770.497 461.665H780.352C780.786 461.665 781.203 461.49 781.51 461.178C781.817 460.866 781.99 460.443 781.99 460.002V460ZM760.642 461.662H763.931C766.12 461.662 766.12 458.335 763.931 458.335H760.642C758.453 458.335 758.453 461.662 760.642 461.662ZM816.47 451.672H800.049C797.86 451.672 797.86 454.999 800.049 454.999H816.47C818.66 454.999 818.66 451.672 816.47 451.672ZM760.642 454.999H777.063C779.253 454.999 779.253 451.672 777.063 451.672H760.642C758.453 451.672 758.453 454.999 760.642 454.999ZM798.411 446.669C798.411 447.582 799.142 448.332 800.049 448.332H816.47C818.66 448.332 818.66 444.994 816.47 444.994H800.049C799.833 444.994 799.619 445.038 799.42 445.123C799.221 445.207 799.04 445.331 798.888 445.487C798.735 445.642 798.615 445.827 798.533 446.03C798.452 446.233 798.41 446.45 798.411 446.669ZM773.775 444.996C771.585 444.996 771.585 448.334 773.775 448.334H777.063C779.253 448.334 779.253 444.996 777.063 444.996H773.775ZM760.642 448.334H767.209C769.398 448.334 769.398 444.996 767.209 444.996H760.642C758.453 444.996 758.453 448.334 760.642 448.334ZM808.255 440.004C808.255 440.916 808.997 441.667 809.906 441.667H813.184C815.373 441.667 815.373 438.328 813.184 438.328H809.906C809.69 438.329 809.476 438.373 809.277 438.457C809.078 438.542 808.897 438.666 808.745 438.821C808.593 438.977 808.472 439.162 808.39 439.364C808.309 439.567 808.267 439.785 808.268 440.004H808.255ZM804.978 440.004C804.978 439.562 804.805 439.138 804.499 438.824C804.192 438.51 803.775 438.332 803.34 438.328H790.196C788.007 438.328 788.007 441.667 790.196 441.667H803.329C803.765 441.667 804.182 441.492 804.492 441.18C804.801 440.869 804.976 440.446 804.98 440.004H804.978ZM760.642 441.669H783.63C785.819 441.669 785.819 438.331 783.63 438.331H760.642C758.453 438.331 758.453 441.669 760.642 441.669ZM775.423 433.328C775.423 434.251 776.154 435.003 777.061 435.003H809.904C812.093 435.003 812.093 431.665 809.904 431.665H777.061C776.627 431.665 776.21 431.84 775.903 432.152C775.596 432.464 775.423 432.887 775.423 433.328ZM760.642 435.003H770.497C772.687 435.003 772.687 431.665 770.497 431.665H760.642C758.453 431.665 758.453 435.003 760.642 435.003ZM760.642 428.338H800.049C802.239 428.338 802.239 425 800.049 425H760.642C758.453 425 758.453 428.338 760.642 428.338Z" fill="white"/>
<path d="M925.396 469.998C925.336 472.345 920.869 473.975 922.688 476.308C926.702 476.88 924.876 479.581 927.075 480.5C923.188 486.926 916.913 487.728 910.947 483.704C909.212 482.654 907.258 482.209 905.655 482.647C904.743 484.129 906.101 484.304 906.966 484.518C911.162 485.366 915.391 491.948 929.59 485.679C931.482 484.87 931.195 482.492 930.375 480.622C931.949 479.941 932.043 478.166 932.275 475.885C933.819 470.742 928.749 471.187 925.396 469.998V469.998ZM903.075 458.83C901.343 458.869 898.795 460.534 897.111 461.362C899.487 462.781 900.431 464.469 903.075 463.942C905.719 463.415 905.671 461.686 904.631 459.678C904.304 459.048 903.752 458.814 903.075 458.83ZM914.247 425.002C911.016 425.152 908.237 433.938 904.942 440.165C895.469 444.164 893.099 438.978 890.006 439.831C884.737 428.931 876.915 418.003 874.801 430.991C875.268 440.808 871.408 441.617 871.75 455.624C871.75 455.624 864.865 469.691 867.674 482.138C869.653 490.908 876.613 494.219 881.288 495C881.772 491.412 887.319 483.323 885.802 481.435C882.016 476.725 883.204 465.187 892.799 463.994C894.11 454.288 900.615 456.115 899.95 453.308C897.864 444.512 906.862 448.618 908.372 451.5C911.085 456.07 912.993 460.562 915.211 462.691C918.031 465.398 921.857 466.877 922.081 466.963C921.277 466.453 914.379 460.529 912.361 455.772C911.147 452.91 911.269 446.464 911.269 446.464C914.769 445.908 916.181 451.886 919.982 457.309C920.139 457.699 920.112 458.012 919.982 458.272C919.458 457.992 919.275 457.288 918.646 457.203C918.073 457.203 917.609 458.028 917.609 459.046C917.609 460.064 918.365 460.427 919.406 460.903C920.858 463.497 922.368 464.45 923.82 465.1L919.134 451.202C918.96 442.498 919.867 433.794 914.899 425.09C914.689 425.022 914.468 424.992 914.247 425.002V425.002ZM914.292 427.777C914.551 427.772 914.791 427.95 915.003 428.355C917.596 433.303 917.692 444.918 917.674 449.024C916.443 446.18 914.597 441.395 908.78 439.936C908.78 439.936 912.178 427.814 914.292 427.777V427.777ZM879.444 428.881C880.626 428.876 881.97 429.579 883.528 432.464C886.022 437.08 887.812 440.15 888.68 441.74C890.458 444.993 887.902 442.421 887.101 450.768C886.943 452.416 886.33 453.209 885.128 454.045C882.527 451.406 880.692 446.825 879.425 441.379C876.941 445.124 881.032 450.913 881.105 455.865C878.346 456.505 876.556 456.281 875.535 455.936C874.255 455.286 873.833 447.36 876.208 441.208C878.186 436.083 877.246 429.566 878.125 429.282C878.73 429.087 878.735 428.884 879.444 428.881Z" fill="white"/>
<path d="M1146.33 453.455C1146.41 453.601 1146.48 453.785 1146.55 453.998C1146.47 453.823 1146.42 453.621 1146.33 453.455C1148.03 460.175 1140.73 468.047 1131.59 465.819H1131.59C1144.8 457.04 1138.29 446.067 1132.14 440.794C1127.08 436.448 1130.07 435.106 1132.2 435.106C1132.88 435.106 1133.47 435.24 1133.69 435.459L1133.68 435.448L1133.69 435.459C1133.64 431.28 1119.14 432.222 1131.83 445.65C1138.34 452.548 1130.65 467.805 1121.49 456.203C1121.42 456.098 1121.35 455.987 1121.29 455.873C1122.77 455.249 1123.98 453.554 1123.98 450.76C1124 449.771 1123.8 448.791 1123.41 447.884C1124.47 445.697 1125.45 443.08 1125.45 439.805C1125.45 431.977 1120.44 425 1113.44 425C1106.43 425 1101.42 431.977 1101.42 439.805C1101.42 443.08 1102.4 445.697 1103.46 447.887C1103.07 448.795 1102.87 449.778 1102.89 450.769C1102.89 453.563 1104.1 455.26 1105.58 455.882C1105.52 455.996 1105.45 456.106 1105.38 456.211C1096.22 467.814 1088.53 452.554 1095.04 445.659C1107.73 432.23 1093.22 431.291 1093.17 435.468L1093.2 435.456C1093.42 435.24 1094 435.106 1094.68 435.106C1096.81 435.106 1099.8 436.448 1094.74 440.794C1088.61 446.044 1082.14 456.946 1095.13 465.708C1095.19 465.746 1095.22 465.787 1095.28 465.825C1086.15 468.053 1078.86 460.201 1080.53 453.481L1080.54 453.452C1080.54 453.458 1080.54 453.467 1080.53 453.47L1080.54 453.461L1080.53 453.481C1077.15 458.177 1078.79 470.337 1091.38 471.471C1091.44 471.48 1091.48 471.498 1091.54 471.506C1079.01 474.423 1082.78 491.981 1091.6 489.17L1091.57 489.167L1091.61 489.158C1085.48 488.152 1085.02 480.417 1088.08 477.754C1091.45 474.82 1095.32 477.354 1103.32 475.035L1103.4 475.024C1103.32 482.158 1110.16 485.99 1106.57 490.074C1102.79 494.37 1097.63 489.782 1098.36 485.553L1098.38 485.468L1098.37 485.492V485.48L1098.36 485.515C1095.19 490.911 1099.2 495 1103.7 495C1106.28 495 1109.03 493.653 1110.68 490.43C1114.17 483.613 1103.82 471.67 1113.44 471.67C1123.04 471.67 1112.7 483.613 1116.19 490.43C1117.84 493.653 1120.59 495 1123.17 495C1127.69 495 1131.71 490.885 1128.49 485.468L1128.5 485.53L1128.49 485.48C1129.28 489.73 1124.08 494.396 1120.28 490.074C1116.71 485.979 1123.53 482.146 1123.46 475.015C1131.52 477.383 1135.41 474.805 1138.79 477.757C1141.85 480.414 1141.39 488.152 1135.26 489.161H1135.28C1144.1 491.955 1147.86 474.42 1135.33 471.495L1135.34 471.492C1148.1 470.436 1149.74 458.154 1146.33 453.455H1146.33ZM1088.18 454.593C1087.78 448.042 1093.38 442.713 1095.11 441.231C1097.51 439.169 1098.45 437.521 1097.97 436.194C1097.82 435.795 1097.57 435.446 1097.24 435.183C1096.9 434.92 1096.51 434.753 1096.09 434.701C1095.54 434.615 1094.98 434.645 1094.44 434.788C1094.93 434.549 1095.49 434.409 1096.09 434.409C1097.46 434.409 1098.58 435.06 1098.95 436.069C1099.29 436.982 1099.3 439.006 1095.58 442.29C1089.7 447.49 1089.22 453.729 1090.74 457.836C1092.05 461.403 1094.96 463.71 1098.15 463.71C1098.66 463.71 1099.17 463.652 1099.68 463.544C1098.13 464.885 1096.35 465.323 1095.62 465.457C1091.33 462.409 1088.41 458.402 1088.18 454.587V454.593ZM1103.14 474.639C1099.88 475.52 1096.55 475.569 1094.41 475.581C1091.76 475.598 1089.66 475.61 1087.71 477.31C1085.94 478.85 1085.2 481.96 1085.96 484.707C1086.22 485.655 1086.51 486.62 1087.18 487.207C1087.7 487.653 1088.57 488.286 1089.45 488.729L1089.4 488.718C1089.45 488.747 1089.49 488.785 1089.55 488.814C1086.7 488.195 1085.03 485.372 1084.83 482.59C1084.58 479.075 1086.56 474.633 1092.97 473.679C1093.99 473.528 1095.06 473.437 1096.13 473.347C1098.75 473.125 1101.45 472.895 1103.31 471.772C1103.24 472.88 1103.17 474.07 1103.14 474.639ZM1103.86 466.81C1101.99 469.721 1098.3 470.173 1095.04 470.573C1094.12 470.684 1093.28 470.815 1092.5 470.975L1091.48 470.905C1086.31 470.45 1082.45 467.971 1080.63 463.917C1079.79 462.043 1079.44 459.977 1079.62 457.923C1079.62 457.923 1079.73 456.827 1079.93 455.678C1079.68 458.871 1080.52 461.913 1082.46 464.419C1083.71 466.018 1085.29 467.311 1087.1 468.201C1088.91 469.09 1090.9 469.554 1092.91 469.558C1096.73 469.558 1100.34 467.837 1103.09 464.708C1104.04 463.628 1104.46 463.547 1104.57 463.547C1104.94 464.089 1104.63 465.612 1103.86 466.81H1103.86ZM1122.17 450.76C1122.17 454.689 1117.78 454.689 1117.78 450.76C1117.78 446.831 1122.17 446.831 1122.17 450.76ZM1116.98 434.742C1116.98 436.903 1113.44 436.903 1113.44 434.742C1113.44 432.583 1116.98 432.583 1116.98 434.742ZM1116.24 458.53C1116.24 460.715 1116.07 462.485 1115.86 462.485C1115.65 462.485 1115.5 460.72 1115.5 458.533C1115.5 456.345 1115.68 454.578 1115.88 454.578C1116.08 454.578 1116.25 456.345 1116.24 458.53ZM1113.51 453.823C1113.67 453.823 1113.79 455.952 1113.79 458.58C1113.79 461.208 1113.67 463.337 1113.51 463.337C1113.35 463.337 1113.22 461.208 1113.22 458.583C1113.22 455.952 1113.35 453.823 1113.51 453.823ZM1112.95 429.877C1112.95 431.367 1110.51 431.367 1110.51 429.877C1110.51 428.386 1112.96 428.401 1112.96 429.877H1112.95ZM1111.27 442.185C1111.27 441.153 1112.95 441.161 1112.95 442.185C1112.95 443.218 1111.27 443.218 1111.27 442.185ZM1111.4 458.583C1111.4 460.823 1111.21 462.637 1111 462.637C1110.79 462.637 1110.63 460.823 1110.63 458.585C1110.63 456.348 1110.81 454.534 1111.02 454.534C1111.24 454.534 1111.4 456.343 1111.4 458.583V458.583ZM1111.4 436.722C1111.4 438.21 1108.96 438.21 1108.96 436.722C1108.96 435.235 1111.4 435.235 1111.4 436.722ZM1108.1 433.123C1108.1 434.153 1106.42 434.153 1106.42 433.123C1106.42 432.093 1108.1 432.093 1108.1 433.123ZM1107.87 440.438C1107.87 441.182 1106.65 441.182 1106.65 440.438C1106.65 439.691 1107.87 439.691 1107.87 440.438H1107.87ZM1104.71 450.763C1104.71 446.834 1109.1 446.834 1109.1 450.763C1109.1 454.692 1104.71 454.692 1104.71 450.763ZM1120.02 477.27C1119.79 479.428 1119.23 481.295 1118.74 482.945C1117.74 486.265 1116.95 488.884 1119.43 491.701C1120.48 492.888 1121.81 493.515 1123.3 493.515C1125.14 493.515 1126.97 492.524 1128.08 490.923C1128.58 490.187 1128.9 489.344 1129.01 488.461C1129.06 488.928 1129.09 489.365 1129.06 489.677C1129 490.338 1128.81 490.98 1128.49 491.561C1127.53 493.297 1125.44 494.42 1123.18 494.42C1120.45 494.42 1118.09 492.868 1116.7 490.164C1115.32 487.46 1116.32 483.707 1117.21 480.393C1118.08 477.141 1118.83 474.335 1117.51 472.583C1116.75 471.576 1115.42 471.089 1113.44 471.089C1111.45 471.089 1110.12 471.576 1109.36 472.583C1108.04 474.333 1108.79 477.141 1109.66 480.393C1110.55 483.707 1111.55 487.46 1110.17 490.164C1108.79 492.868 1106.43 494.42 1103.7 494.42C1101.44 494.42 1099.35 493.297 1098.38 491.561C1097.87 490.623 1097.68 489.534 1097.86 488.475C1098 489.339 1098.27 490.173 1098.79 490.925C1099.9 492.521 1101.73 493.515 1103.57 493.515C1105.06 493.515 1106.4 492.888 1107.44 491.701C1109.92 488.884 1109.13 486.27 1108.13 482.957C1107.64 481.303 1107.07 479.428 1106.86 477.27C1106.57 474.452 1107.2 471.941 1108.58 470.386C1109.73 469.1 1111.36 468.444 1113.44 468.444C1115.51 468.444 1117.15 469.097 1118.29 470.383C1119.67 471.938 1120.3 474.446 1120.02 477.267L1120.02 477.27ZM1128.72 463.716C1131.91 463.716 1134.82 461.412 1136.13 457.842C1137.64 453.735 1137.17 447.496 1131.28 442.296C1127.56 439.009 1127.56 436.988 1127.9 436.072C1128.27 435.065 1129.39 434.412 1130.76 434.412C1131.31 434.412 1131.83 434.543 1132.28 434.748L1132.32 434.759C1131.81 434.647 1131.29 434.629 1130.78 434.707C1130.37 434.759 1129.97 434.925 1129.64 435.188C1129.31 435.451 1129.05 435.801 1128.9 436.2C1128.42 437.527 1129.36 439.175 1131.77 441.24C1133.49 442.719 1139.09 448.048 1138.7 454.593C1138.47 458.408 1135.54 462.415 1131.25 465.463C1129.76 465.189 1128.36 464.53 1127.19 463.55C1127.7 463.66 1128.22 463.716 1128.72 463.716V463.716ZM1142.04 482.584C1141.84 485.372 1140.17 488.19 1137.31 488.808C1137.36 488.785 1137.39 488.755 1137.43 488.729C1138.31 488.283 1139.18 487.656 1139.69 487.213C1140.36 486.623 1140.65 485.658 1140.91 484.71C1141.67 481.963 1140.94 478.853 1139.16 477.313C1137.22 475.616 1135.12 475.601 1132.46 475.584C1130.33 475.572 1126.99 475.523 1123.73 474.642C1123.7 474.07 1123.64 472.886 1123.57 471.775C1125.43 472.9 1128.14 473.131 1130.75 473.355C1131.83 473.446 1132.89 473.536 1133.91 473.685C1140.31 474.639 1142.29 479.075 1142.04 482.581L1142.04 482.584ZM1134.38 470.978C1133.6 470.815 1132.76 470.687 1131.83 470.57C1128.57 470.173 1124.88 469.721 1123.01 466.808C1122.24 465.612 1121.92 464.095 1122.17 463.628C1122.22 463.612 1122.26 463.603 1122.31 463.602C1122.57 463.602 1123 463.815 1123.78 464.708C1126.53 467.837 1130.15 469.558 1133.97 469.558C1138.03 469.558 1141.94 467.633 1144.42 464.416C1146.35 461.913 1147.19 458.874 1146.95 455.683C1147.15 456.83 1147.26 457.929 1147.26 457.929C1147.44 459.982 1147.09 462.046 1146.24 463.92C1144.42 467.974 1140.57 470.453 1135.39 470.908L1134.38 470.978V470.978ZM1106.54 449.118C1106.64 449.185 1106.73 449.281 1106.78 449.395C1106.84 449.509 1106.86 449.636 1106.85 449.763C1106.86 449.858 1106.85 449.954 1106.82 450.045C1106.79 450.135 1106.74 450.219 1106.68 450.29C1106.61 450.36 1106.54 450.417 1106.45 450.456C1106.36 450.494 1106.27 450.514 1106.18 450.514C1106.08 450.514 1105.99 450.494 1105.9 450.456C1105.82 450.417 1105.74 450.36 1105.68 450.29C1105.61 450.219 1105.56 450.135 1105.53 450.045C1105.5 449.954 1105.49 449.858 1105.5 449.763C1105.49 449.635 1105.51 449.506 1105.57 449.391C1105.63 449.276 1105.71 449.179 1105.82 449.112C1105.93 449.045 1106.05 449.01 1106.18 449.011C1106.31 449.012 1106.43 449.049 1106.54 449.118V449.118ZM1118.88 450.41C1118.77 450.343 1118.68 450.246 1118.63 450.132C1118.57 450.018 1118.55 449.89 1118.56 449.763C1118.56 449.669 1118.57 449.575 1118.6 449.487C1118.63 449.399 1118.68 449.318 1118.74 449.249C1118.81 449.181 1118.88 449.126 1118.97 449.089C1119.05 449.052 1119.14 449.032 1119.24 449.032C1119.33 449.032 1119.42 449.052 1119.5 449.089C1119.59 449.126 1119.66 449.181 1119.73 449.249C1119.79 449.318 1119.84 449.399 1119.87 449.487C1119.9 449.575 1119.92 449.669 1119.91 449.763C1119.92 449.89 1119.9 450.018 1119.84 450.132C1119.78 450.246 1119.7 450.342 1119.59 450.41C1119.48 450.477 1119.36 450.513 1119.23 450.513C1119.11 450.513 1118.98 450.477 1118.88 450.41V450.41Z" fill="white"/>
<path d="M642.798 277.76L644.443 273.14C645.423 270.34 646.263 267.96 647.103 265.09H647.243C648.083 267.96 648.923 270.34 649.903 273.14L651.513 277.76H642.798ZM654.733 287H655.923L647.663 263.9H646.683L638.423 287H639.543L642.448 278.74H651.863L654.733 287ZM666.072 290.43C666.072 289.17 666.772 287.77 668.452 286.65C669.362 286.86 670.272 286.93 670.482 286.93H674.332C676.992 286.93 678.392 287.7 678.392 289.66C678.392 291.9 675.872 294.21 671.882 294.21C668.172 294.21 666.072 292.67 666.072 290.43ZM664.952 290.5C664.952 293.3 667.542 295.19 671.812 295.19C676.502 295.19 679.512 292.39 679.512 289.59C679.512 287 677.832 285.81 674.122 285.81H670.412C667.822 285.81 667.122 284.76 667.122 283.5C667.122 282.31 667.822 281.54 668.592 280.91C669.362 281.4 670.482 281.68 671.462 281.68C674.682 281.68 677.202 279.09 677.202 275.73C677.202 273.84 676.362 272.23 675.172 271.25H679.232V270.27H673.632C673.142 270.06 672.372 269.85 671.462 269.85C668.242 269.85 665.722 272.37 665.722 275.73C665.722 277.76 666.772 279.44 667.822 280.35V280.49C667.122 280.98 666.002 282.03 666.002 283.57C666.002 284.83 666.632 285.74 667.472 286.23V286.37C665.932 287.49 664.952 289.03 664.952 290.5ZM671.462 280.7C669.012 280.7 666.842 278.67 666.842 275.73C666.842 272.72 668.942 270.83 671.462 270.83C673.982 270.83 676.082 272.755 676.082 275.73C676.082 278.67 673.912 280.7 671.462 280.7ZM681.427 278.67C681.427 284.2 684.857 287.42 688.847 287.42C692.837 287.42 696.267 284.2 696.267 278.67C696.267 273.07 692.837 269.85 688.847 269.85C684.857 269.85 681.427 273.07 681.427 278.67ZM682.547 278.67C682.547 274.05 685.277 270.83 688.847 270.83C692.417 270.83 695.147 274.05 695.147 278.67C695.147 283.29 692.417 286.44 688.847 286.44C685.277 286.44 682.547 283.29 682.547 278.67ZM701.245 281.05C701.245 285.39 702.855 287.42 706.285 287.42C708.595 287.42 710.345 286.09 712.025 284.13H712.095L712.235 287H713.145V270.27H712.095V282.8C709.995 285.32 708.455 286.44 706.355 286.44C703.485 286.44 702.295 284.62 702.295 280.91V270.27H701.245V281.05ZM719.879 287H720.929V275.38C722.259 272.09 724.079 270.9 725.619 270.9C726.249 270.9 726.529 270.97 727.089 271.18L727.369 270.2C726.809 269.92 726.319 269.85 725.759 269.85C723.729 269.85 722.119 271.39 720.999 273.42H720.929L720.789 270.27H719.879V287ZM730.577 287H731.627V274.19C733.587 271.95 735.337 270.83 736.947 270.83C739.677 270.83 740.937 272.65 740.937 276.36V287H741.987V274.19C743.947 271.95 745.627 270.83 747.307 270.83C750.037 270.83 751.297 272.65 751.297 276.36V287H752.347V276.22C752.347 271.88 750.667 269.85 747.377 269.85C745.487 269.85 743.597 271.18 741.637 273.35C741.077 271.25 739.747 269.85 737.017 269.85C735.197 269.85 733.237 271.18 731.697 272.93H731.627L731.487 270.27H730.577V287ZM757.306 278.67C757.306 284.13 760.736 287.42 764.936 287.42C767.456 287.42 768.856 286.58 770.116 285.81L769.626 284.9C768.366 285.81 766.896 286.44 765.006 286.44C761.016 286.44 758.426 283.15 758.426 278.67H770.746C770.816 278.25 770.816 277.9 770.816 277.55C770.816 272.58 768.366 269.85 764.516 269.85C760.806 269.85 757.306 273.21 757.306 278.67ZM758.426 277.76C758.776 273.49 761.506 270.83 764.516 270.83C767.666 270.83 769.766 273.14 769.766 277.76H758.426ZM775.498 282.59C775.498 285.46 776.338 287.42 779.418 287.42C779.978 287.42 781.028 287.14 782.008 286.79L781.658 285.88C781.028 286.16 780.118 286.44 779.488 286.44C777.038 286.44 776.548 284.9 776.548 282.73V271.25H781.518V270.27H776.548V265.37H775.638L775.498 270.27L772.838 270.41V271.25H775.498V282.59ZM792.648 287H793.698V271.81C793.698 269.64 793.628 267.68 793.558 265.51H793.698L796.358 270.06L806.578 287H807.768V263.9H806.718V278.88C806.718 281.05 806.788 283.15 806.858 285.39H806.718L804.058 280.84L793.838 263.9H792.648V287ZM813.018 278.67C813.018 284.13 816.448 287.42 820.648 287.42C823.168 287.42 824.568 286.58 825.828 285.81L825.338 284.9C824.078 285.81 822.608 286.44 820.718 286.44C816.728 286.44 814.138 283.15 814.138 278.67H826.458C826.528 278.25 826.528 277.9 826.528 277.55C826.528 272.58 824.078 269.85 820.228 269.85C816.518 269.85 813.018 273.21 813.018 278.67ZM814.138 277.76C814.488 273.49 817.218 270.83 820.228 270.83C823.378 270.83 825.478 273.14 825.478 277.76H814.138ZM828.332 287H829.452L832.532 282.17C833.232 281.12 833.862 280.07 834.562 279.09H834.702C835.402 280.07 836.102 281.12 836.732 282.17L839.882 287H841.072L835.332 278.32L840.582 270.27H839.462L836.662 274.75C836.032 275.66 835.472 276.57 834.842 277.48H834.702C834.072 276.57 833.442 275.66 832.882 274.75L830.012 270.27H828.822L834.072 278.25L828.332 287ZM845.258 282.59C845.258 285.46 846.098 287.42 849.178 287.42C849.738 287.42 850.788 287.14 851.768 286.79L851.418 285.88C850.788 286.16 849.878 286.44 849.248 286.44C846.798 286.44 846.308 284.9 846.308 282.73V271.25H851.278V270.27H846.308V265.37H845.398L845.258 270.27L842.598 270.41V271.25H845.258V282.59ZM855.276 286.09C855.276 286.93 855.906 287.42 856.536 287.42C857.166 287.42 857.796 286.93 857.796 286.09C857.796 285.18 857.166 284.69 856.536 284.69C855.906 284.69 855.276 285.18 855.276 286.09ZM863.673 290.43C863.673 292.6 863.323 294.21 861.363 294.21C860.663 294.21 859.963 294 859.543 293.86L859.263 294.77C859.753 294.98 860.593 295.19 861.293 295.19C863.603 295.19 864.723 293.79 864.723 290.57V270.27H863.673V290.43ZM864.233 266C864.863 266 865.423 265.51 865.423 264.81C865.423 264.04 864.863 263.62 864.233 263.62C863.603 263.62 863.043 264.04 863.043 264.81C863.043 265.51 863.603 266 864.233 266ZM869.262 285.11C870.732 286.37 872.832 287.42 875.352 287.42C878.852 287.42 880.812 285.25 880.812 282.8C880.812 279.51 877.872 278.705 875.212 277.69C873.182 276.92 871.152 276.08 871.152 274.12C871.152 272.475 872.412 270.83 875.212 270.83C876.962 270.83 878.152 271.53 879.272 272.37L879.902 271.53C878.712 270.55 876.962 269.85 875.282 269.85C871.852 269.85 870.032 271.88 870.032 274.19C870.032 277.06 872.902 278.04 875.492 278.95C877.452 279.65 879.692 280.63 879.692 282.87C879.692 284.76 878.222 286.44 875.422 286.44C872.902 286.44 871.362 285.46 869.962 284.27L869.262 285.11ZM890.214 285.11C891.684 286.37 893.784 287.42 896.304 287.42C899.804 287.42 901.764 285.25 901.764 282.8C901.764 279.51 898.824 278.705 896.164 277.69C894.134 276.92 892.104 276.08 892.104 274.12C892.104 272.475 893.364 270.83 896.164 270.83C897.914 270.83 899.104 271.53 900.224 272.37L900.854 271.53C899.664 270.55 897.914 269.85 896.234 269.85C892.804 269.85 890.984 271.88 890.984 274.19C890.984 277.06 893.854 278.04 896.444 278.95C898.404 279.65 900.644 280.63 900.644 282.87C900.644 284.76 899.174 286.44 896.374 286.44C893.854 286.44 892.314 285.46 890.914 284.27L890.214 285.11ZM906.748 282.59C906.748 285.46 907.588 287.42 910.668 287.42C911.228 287.42 912.278 287.14 913.258 286.79L912.908 285.88C912.278 286.16 911.368 286.44 910.738 286.44C908.288 286.44 907.798 284.9 907.798 282.73V271.25H912.768V270.27H907.798V265.37H906.888L906.748 270.27L904.088 270.41V271.25H906.748V282.59ZM915.193 282.905C915.193 286.09 917.433 287.42 920.023 287.42C922.263 287.42 924.363 286.16 926.113 284.76H926.183L926.323 287H927.233V276.15C927.233 272.79 926.043 269.85 922.123 269.85C919.393 269.85 917.083 271.25 916.033 272.02L916.593 272.86C917.643 272.02 919.673 270.83 922.053 270.83C925.553 270.83 926.253 273.84 926.183 276.57C918.623 277.41 915.193 279.16 915.193 282.905ZM916.313 282.87C916.313 280 918.833 278.32 926.183 277.48V283.57C923.943 285.46 922.123 286.44 920.093 286.44C918.063 286.44 916.313 285.46 916.313 282.87ZM933.468 287H934.518V275.38C935.848 272.09 937.668 270.9 939.208 270.9C939.838 270.9 940.118 270.97 940.678 271.18L940.958 270.2C940.398 269.92 939.908 269.85 939.348 269.85C937.318 269.85 935.708 271.39 934.588 273.42H934.518L934.378 270.27H933.468V287ZM944.516 282.59C944.516 285.46 945.356 287.42 948.436 287.42C948.996 287.42 950.046 287.14 951.026 286.79L950.676 285.88C950.046 286.16 949.136 286.44 948.506 286.44C946.056 286.44 945.566 284.9 945.566 282.73V271.25H950.536V270.27H945.566V265.37H944.656L944.516 270.27L941.856 270.41V271.25H944.516V282.59ZM952.916 278.67C952.916 284.13 956.346 287.42 960.546 287.42C963.066 287.42 964.466 286.58 965.726 285.81L965.236 284.9C963.976 285.81 962.506 286.44 960.616 286.44C956.626 286.44 954.036 283.15 954.036 278.67H966.356C966.426 278.25 966.426 277.9 966.426 277.55C966.426 272.58 963.976 269.85 960.126 269.85C956.416 269.85 952.916 273.21 952.916 278.67ZM954.036 277.76C954.386 273.49 957.116 270.83 960.126 270.83C963.276 270.83 965.376 273.14 965.376 277.76H954.036ZM971.1 287H972.15V275.38C973.48 272.09 975.3 270.9 976.84 270.9C977.47 270.9 977.75 270.97 978.31 271.18L978.59 270.2C978.03 269.92 977.54 269.85 976.98 269.85C974.95 269.85 973.34 271.39 972.22 273.42H972.15L972.01 270.27H971.1V287ZM993.076 283.08H994.196V275.94H1000.71V274.96H994.196V267.82H993.076V274.96H986.566V275.94H993.076V283.08ZM1012.18 287H1013.09L1013.23 285.46H1013.3C1014.91 286.65 1016.8 287.42 1018.41 287.42C1022.4 287.42 1025.83 284.06 1025.83 278.39C1025.83 273.21 1023.66 269.85 1019.11 269.85C1017.01 269.85 1014.91 271.11 1013.16 272.58L1013.23 269.22V261.73H1012.18V287ZM1013.23 284.13V273.77C1015.33 271.88 1017.29 270.83 1019.04 270.83C1023.17 270.83 1024.71 274.12 1024.71 278.39C1024.71 283.08 1022.12 286.44 1018.48 286.44C1017.15 286.44 1015.19 285.81 1013.23 284.13ZM1029.62 278.67C1029.62 284.2 1033.05 287.42 1037.04 287.42C1041.03 287.42 1044.46 284.2 1044.46 278.67C1044.46 273.07 1041.03 269.85 1037.04 269.85C1033.05 269.85 1029.62 273.07 1029.62 278.67ZM1030.74 278.67C1030.74 274.05 1033.47 270.83 1037.04 270.83C1040.61 270.83 1043.34 274.05 1043.34 278.67C1043.34 283.29 1040.61 286.44 1037.04 286.44C1033.47 286.44 1030.74 283.29 1030.74 278.67ZM1050.27 266C1050.9 266 1051.46 265.51 1051.46 264.81C1051.46 264.04 1050.9 263.62 1050.27 263.62C1049.64 263.62 1049.08 264.04 1049.08 264.81C1049.08 265.51 1049.64 266 1050.27 266ZM1049.71 287H1050.76V270.27H1049.71V287ZM1057.47 285.18C1057.47 286.79 1058.1 287.42 1059.15 287.42C1059.57 287.42 1059.78 287.35 1060.06 287.28L1059.85 286.37C1059.5 286.44 1059.36 286.44 1059.22 286.44C1058.8 286.44 1058.52 286.09 1058.52 285.39V261.73H1057.47V285.18ZM1064.07 278.67C1064.07 284.13 1067.5 287.42 1071.7 287.42C1074.22 287.42 1075.62 286.58 1076.88 285.81L1076.39 284.9C1075.13 285.81 1073.66 286.44 1071.77 286.44C1067.78 286.44 1065.19 283.15 1065.19 278.67H1077.51C1077.58 278.25 1077.58 277.9 1077.58 277.55C1077.58 272.58 1075.13 269.85 1071.28 269.85C1067.57 269.85 1064.07 273.21 1064.07 278.67ZM1065.19 277.76C1065.54 273.49 1068.27 270.83 1071.28 270.83C1074.43 270.83 1076.53 273.14 1076.53 277.76H1065.19ZM1082.25 287H1083.3V275.38C1084.63 272.09 1086.45 270.9 1087.99 270.9C1088.62 270.9 1088.9 270.97 1089.46 271.18L1089.74 270.2C1089.18 269.92 1088.69 269.85 1088.13 269.85C1086.1 269.85 1084.49 271.39 1083.37 273.42H1083.3L1083.16 270.27H1082.25V287ZM1094 285.32C1095.82 286.65 1097.57 287.42 1099.18 287.42C1103.17 287.42 1106.6 284.06 1106.6 278.39C1106.6 273.21 1104.43 269.85 1099.88 269.85C1097.78 269.85 1095.75 271.11 1094.07 272.44H1094L1093.86 270.27H1092.95V294.77H1094V288.47V285.32ZM1094 284.13V273.77C1096.17 271.88 1098.06 270.83 1099.81 270.83C1103.94 270.83 1105.48 274.12 1105.48 278.39C1105.48 283.08 1102.89 286.44 1099.25 286.44C1097.92 286.44 1096.03 285.81 1094 284.13ZM1111.85 285.18C1111.85 286.79 1112.48 287.42 1113.53 287.42C1113.95 287.42 1114.16 287.35 1114.44 287.28L1114.23 286.37C1113.88 286.44 1113.74 286.44 1113.6 286.44C1113.18 286.44 1112.9 286.09 1112.9 285.39V261.73H1111.85V285.18ZM1118.94 282.905C1118.94 286.09 1121.18 287.42 1123.77 287.42C1126.01 287.42 1128.11 286.16 1129.86 284.76H1129.93L1130.07 287H1130.98V276.15C1130.98 272.79 1129.79 269.85 1125.87 269.85C1123.14 269.85 1120.83 271.25 1119.78 272.02L1120.34 272.86C1121.39 272.02 1123.42 270.83 1125.8 270.83C1129.3 270.83 1130 273.84 1129.93 276.57C1122.37 277.41 1118.94 279.16 1118.94 282.905ZM1120.06 282.87C1120.06 280 1122.58 278.32 1129.93 277.48V283.57C1127.69 285.46 1125.87 286.44 1123.84 286.44C1121.81 286.44 1120.06 285.46 1120.06 282.87ZM1137.56 282.59C1137.56 285.46 1138.4 287.42 1141.48 287.42C1142.04 287.42 1143.09 287.14 1144.07 286.79L1143.72 285.88C1143.09 286.16 1142.18 286.44 1141.55 286.44C1139.1 286.44 1138.61 284.9 1138.61 282.73V271.25H1143.58V270.27H1138.61V265.37H1137.7L1137.56 270.27L1134.9 270.41V271.25H1137.56V282.59ZM1145.96 278.67C1145.96 284.13 1149.39 287.42 1153.59 287.42C1156.11 287.42 1157.51 286.58 1158.77 285.81L1158.28 284.9C1157.02 285.81 1155.55 286.44 1153.66 286.44C1149.67 286.44 1147.08 283.15 1147.08 278.67H1159.4C1159.47 278.25 1159.47 277.9 1159.47 277.55C1159.47 272.58 1157.02 269.85 1153.17 269.85C1149.46 269.85 1145.96 273.21 1145.96 278.67ZM1147.08 277.76C1147.43 273.49 1150.16 270.83 1153.17 270.83C1156.32 270.83 1158.42 273.14 1158.42 277.76H1147.08Z" fill="white"/>
<g filter="url(#filter0_d)">
<path d="M598.258 211.668L600.995 211.549C602.661 211.549 604.049 210.161 605.16 207.384C605.874 205.559 606.31 202.664 606.469 198.697C606.627 194.73 606.707 182.949 606.707 163.354V143.124C606.707 141.855 606.31 140.427 605.517 138.84C603.93 135.508 600.836 133.842 596.235 133.842C594.886 133.842 594.212 133.366 594.212 132.414C594.212 131.224 594.569 130.629 595.283 130.629L600.043 130.748L617.417 130.629L630.507 130.272C637.726 130.272 643.755 132.017 648.595 135.508C653.434 138.919 655.854 143.798 655.854 150.145C655.854 156.968 652.284 162.561 645.144 166.924C644.35 167.479 643.954 167.797 643.954 167.876C643.954 168.114 644.628 168.431 645.977 168.828C647.325 169.145 648.952 169.74 650.856 170.613C652.76 171.406 654.624 172.517 656.449 173.945C658.353 175.373 659.979 177.515 661.328 180.371C662.676 183.148 663.351 186.361 663.351 190.01C663.351 193.58 662.359 197.309 660.376 201.196C658.392 205.083 655.854 208.098 652.76 210.24C649.666 212.382 646.611 213.889 643.597 214.762C640.582 215.555 637.21 215.952 633.482 215.952C629.753 215.952 625.271 215.714 620.035 215.238C614.799 214.841 611.903 214.643 611.348 214.643L601.114 215.119H599.448C597.782 215.119 596.949 214.564 596.949 213.453C596.949 212.263 597.385 211.668 598.258 211.668ZM615.87 198.816L615.751 204.052C615.751 208.812 619.638 211.192 627.413 211.192H630.15C634.434 211.192 638.123 210.954 641.217 210.478C644.39 209.923 647.167 208.019 649.547 204.766C652.006 201.513 653.236 197.785 653.236 193.58C653.236 189.375 652.522 185.885 651.094 183.108C649.666 180.252 648.039 178.11 646.215 176.682C644.39 175.254 642.208 174.143 639.67 173.35C636.179 172.239 632.926 171.684 629.912 171.684L620.63 171.565L618.845 171.446C618.131 171.446 617.615 171.565 617.298 171.803C616.98 171.962 616.663 172.715 616.346 174.064C616.028 175.73 615.87 181.283 615.87 190.724V198.816ZM616.465 150.145C616.465 160.141 616.742 165.694 617.298 166.805C617.615 167.36 619.876 167.638 624.081 167.638H631.697C636.695 167.638 640.423 166.329 642.883 163.711C645.421 161.093 646.691 157.642 646.691 153.358C646.691 149.074 644.588 144.869 640.384 140.744C636.258 136.539 630.348 134.437 622.653 134.437C620.193 134.437 618.527 135.191 617.655 136.698C616.861 138.126 616.465 141.458 616.465 146.694V150.145ZM679.366 215L669.132 215.476C666.832 215.476 665.681 215 665.681 214.048C665.681 212.937 666.276 212.184 667.466 211.787C670.005 210.835 672.226 208.733 674.13 205.48C676.034 202.148 680.794 192.192 688.41 175.611C696.106 158.951 702.928 144.274 708.878 131.581C709.434 130.391 709.91 129.637 710.306 129.32C710.782 129.003 711.417 128.844 712.21 128.844C713.083 128.844 713.638 129.003 713.876 129.32C714.114 129.637 714.551 130.708 715.185 132.533C715.82 134.358 716.296 135.746 716.613 136.698C717.01 137.65 717.605 139.197 718.398 141.339C719.192 143.481 720.461 146.694 722.206 150.978C723.952 155.262 727.918 164.663 734.106 179.181C740.374 193.62 743.983 201.831 744.935 203.814C745.887 205.718 747.196 207.384 748.862 208.812C750.528 210.161 751.956 210.914 753.146 211.073C754.416 211.152 755.447 211.351 756.24 211.668C757.113 211.906 757.549 212.501 757.549 213.453C757.549 214.643 756.478 215.238 754.336 215.238L743.626 214.524L732.559 215C730.1 215 728.513 214.921 727.799 214.762C727.165 214.524 726.847 214.088 726.847 213.453C726.847 212.818 727.165 212.342 727.799 212.025C728.434 211.628 729.108 211.39 729.822 211.311C730.536 211.152 731.211 210.795 731.845 210.24C732.48 209.605 732.797 208.614 732.797 207.265C732.797 205.837 731.806 202.426 729.822 197.031C727.839 191.636 726.173 187.67 724.824 185.131C724.11 183.782 722.484 183.108 719.945 183.108L705.546 183.346H699.239C695.669 183.346 693.408 183.544 692.456 183.941C691.584 184.338 690.83 185.171 690.195 186.44C689.64 187.709 688.807 189.494 687.696 191.795C686.586 194.016 685.832 195.563 685.435 196.436C685.039 197.309 684.563 198.419 684.007 199.768C682.976 202.148 682.46 204.131 682.46 205.718C682.46 207.305 682.897 208.574 683.769 209.526C684.721 210.478 685.753 211.033 686.863 211.192C689.799 211.43 691.266 212.184 691.266 213.453C691.266 214.008 691.147 214.445 690.909 214.762C690.671 215 690.116 215.119 689.243 215.119L679.366 215ZM708.045 147.17C707.331 147.17 705.07 151.573 701.262 160.379C697.454 169.106 695.55 173.945 695.55 174.897C695.55 175.849 695.907 176.444 696.621 176.682C697.335 176.92 699.001 177.039 701.619 177.039H705.308L716.613 176.92C719.707 176.92 721.254 176.365 721.254 175.254C721.254 174.064 719.311 169.106 715.423 160.379C711.536 151.573 709.077 147.17 708.045 147.17ZM777.009 215.238L766.894 215.476C765.148 215.476 764.276 214.841 764.276 213.572C764.276 212.858 764.791 212.422 765.823 212.263C766.854 212.025 768.123 211.39 769.631 210.359C771.138 209.328 772.209 207.662 772.844 205.361C773.478 202.981 774.153 195.325 774.867 182.394C775.581 169.463 775.938 160.062 775.938 154.191C775.938 148.32 774.986 143.719 773.082 140.387C771.178 136.976 768.084 135.032 763.8 134.556C762.768 134.477 762.253 133.882 762.253 132.771C762.253 132.295 762.53 131.859 763.086 131.462C763.641 130.986 764.355 130.748 765.228 130.748L769.75 130.867L775.581 130.629C776.295 130.629 777.128 130.867 778.08 131.343C779.032 131.74 779.587 132.136 779.746 132.533C779.904 132.85 780.341 133.445 781.055 134.318C781.769 135.111 782.721 136.182 783.911 137.531C785.101 138.88 786.172 140.189 787.124 141.458C797.913 155.5 812.352 172.438 830.44 192.271C830.916 192.826 831.471 193.461 832.106 194.175C832.82 194.889 833.296 195.444 833.534 195.841C833.851 196.158 834.168 196.476 834.486 196.793C835.041 197.348 835.477 197.626 835.795 197.626C836.588 197.626 836.985 195.167 836.985 190.248V176.325L836.747 151.93V151.097C836.747 143.798 835.477 139.157 832.939 137.174C831.987 136.46 831.193 136.024 830.559 135.865C829.924 135.627 829.012 135.389 827.822 135.151C824.569 134.516 822.943 133.644 822.943 132.533C822.943 131.343 823.696 130.748 825.204 130.748L836.509 130.867C836.509 130.867 840.079 130.788 847.219 130.629C848.567 130.629 849.48 130.788 849.956 131.105C850.511 131.343 850.789 131.74 850.789 132.295C850.789 132.85 850.551 133.287 850.075 133.604C849.44 134.001 848.29 134.477 846.624 135.032C844.006 136.46 842.697 140.942 842.697 148.479V153.001L841.388 211.906V214.286C841.388 216.111 840.832 217.023 839.722 217.023C839.008 217.023 838.373 216.745 837.818 216.19C811.479 185.647 795.731 167.519 790.575 161.807C785.497 156.016 782.681 153.12 782.126 153.12C781.332 153.12 780.936 156.373 780.936 162.878C780.936 169.304 780.777 176.88 780.46 185.607C780.142 194.254 779.984 198.975 779.984 199.768C779.984 203.338 780.579 206.075 781.769 207.979C783.038 209.804 784.387 210.835 785.815 211.073C787.243 211.311 788.552 211.589 789.742 211.906C791.011 212.144 791.646 212.699 791.646 213.572C791.646 214.365 791.487 214.881 791.17 215.119C790.932 215.357 790.456 215.476 789.742 215.476L777.009 215.238ZM875.523 205.718C865.289 198.34 860.172 187.947 860.172 174.54C860.172 161.053 863.901 150.105 871.358 141.696C878.895 133.287 890.517 129.082 906.225 129.082C912.81 129.082 918.72 130.153 923.956 132.295C929.271 134.437 933.436 137.095 936.451 140.268C939.545 143.362 942.123 146.932 944.186 150.978C947.677 157.721 949.422 164.227 949.422 170.494C949.422 176.682 948.47 182.632 946.566 188.344C944.662 193.977 941.687 199.094 937.641 203.695C933.674 208.217 928.994 211.232 923.599 212.739C918.204 214.246 915.507 215.119 915.507 215.357C915.507 216.23 916.261 216.983 917.768 217.618C918.799 218.094 921.457 219.284 925.741 221.188C930.025 223.092 932.683 224.242 933.714 224.639C934.825 225.036 936.292 225.591 938.117 226.305C939.942 227.019 941.449 227.535 942.639 227.852C943.908 228.249 945.297 228.645 946.804 229.042C949.501 229.756 952 230.113 954.301 230.113C956.602 230.113 958.426 229.756 959.775 229.042C961.124 228.407 962.155 227.773 962.869 227.138C963.662 226.503 964.337 226.186 964.892 226.186C965.447 226.186 965.844 226.345 966.082 226.662C966.399 227.059 966.558 227.376 966.558 227.614C966.558 230.391 964.416 232.81 960.132 234.873C955.848 237.015 951.128 238.086 945.971 238.086C940.894 238.086 933.793 236.063 924.67 232.017C915.626 227.971 907.098 223.925 899.085 219.879C891.152 215.833 885.995 213.81 883.615 213.81C879.966 213.81 877.268 215.079 875.523 217.618C873.778 220.157 872.905 223.092 872.905 226.424V228.566C872.905 230.629 872.191 231.66 870.763 231.66C869.97 231.66 869.295 231.144 868.74 230.113C868.185 229.082 867.907 227.931 867.907 226.662C867.907 223.171 868.7 219.879 870.287 216.785C871.874 213.691 873.579 211.509 875.404 210.24C877.229 208.891 878.141 208.138 878.141 207.979C878.141 207.662 877.268 206.908 875.523 205.718ZM902.179 133.842C893.452 133.842 886.074 136.777 880.045 142.648C874.016 148.519 871.001 157.007 871.001 168.114C871.001 179.221 873.936 188.82 879.807 196.912C882.901 201.275 887.304 204.845 893.016 207.622C898.807 210.319 904.162 211.668 909.081 211.668C914 211.668 919.394 210.161 925.265 207.146C928.597 205.401 931.889 201.989 935.142 196.912C938.474 191.755 940.14 185.885 940.14 179.3C940.14 166.527 936.451 155.778 929.073 147.051C921.695 138.245 912.73 133.842 902.179 133.842ZM968.208 163.711L968.446 146.575C968.446 142.212 967.93 139.237 966.899 137.65C965.868 135.984 963.448 134.873 959.64 134.318C957.895 134.08 957.022 133.326 957.022 132.057C957.022 131.422 957.26 131.026 957.736 130.867C958.212 130.629 958.886 130.51 959.759 130.51L973.206 130.986L984.392 130.748C986.058 130.748 986.891 131.303 986.891 132.414C986.891 133.128 986.613 133.564 986.058 133.723C985.503 133.882 984.789 134.001 983.916 134.08C983.123 134.159 982.329 134.437 981.536 134.913C979.553 136.024 978.561 139.713 978.561 145.98V149.312L978.442 175.016C978.442 182.87 978.68 187.987 979.156 190.367C979.632 192.747 980.187 194.968 980.822 197.031C981.457 199.014 982.21 200.601 983.083 201.791C984.035 202.981 985.185 204.29 986.534 205.718C987.962 207.146 989.588 208.257 991.413 209.05C995.697 210.795 1000.58 211.668 1006.05 211.668C1014.62 211.668 1020.57 210.716 1023.9 208.812C1025.33 208.019 1026.95 206.789 1028.78 205.123C1030.68 203.378 1032.15 201.275 1033.18 198.816C1035.64 192.945 1036.87 185.488 1036.87 176.444L1036.75 151.216C1036.75 148.439 1036.67 146.258 1036.51 144.671C1036.43 143.084 1036.04 141.339 1035.32 139.435C1034.69 137.531 1033.86 136.222 1032.83 135.508C1031.79 134.794 1030.64 134.358 1029.37 134.199C1028.1 133.961 1027.07 133.802 1026.28 133.723C1025.49 133.564 1025.09 133.207 1025.09 132.652C1025.09 131.383 1025.88 130.748 1027.47 130.748L1036.63 130.986L1046.75 130.629C1048.41 130.629 1049.25 131.145 1049.25 132.176C1049.25 132.811 1048.37 133.644 1046.63 134.675C1044.96 135.627 1043.93 136.5 1043.54 137.293C1042.66 138.959 1042.23 141.577 1042.23 145.147L1042.35 153.12C1042.35 168.352 1041.71 180.014 1040.44 188.106C1039.17 196.198 1037.23 202.069 1034.61 205.718C1029.29 213.413 1019.89 217.261 1006.41 217.261C992.92 217.261 983.4 214.722 977.847 209.645C973.484 205.599 970.786 200.76 969.755 195.127C968.724 189.415 968.208 179.617 968.208 165.734V163.711ZM1065.48 172.755L1065.84 152.168C1065.84 150.026 1065.76 146.416 1065.6 141.339C1065.52 139.038 1064.53 137.253 1062.63 135.984C1060.72 134.715 1058.5 134.04 1055.96 133.961C1054.69 133.961 1054.06 133.247 1054.06 131.819C1054.06 130.708 1055.17 130.153 1057.39 130.153L1060.6 130.391L1089.64 130.986L1113.44 130.51C1114.95 130.51 1115.7 131.422 1115.7 133.247C1115.7 133.723 1115.46 135.31 1114.99 138.007C1114.51 140.625 1114.27 142.688 1114.27 144.195C1114.27 146.734 1113.64 148.003 1112.37 148.003C1111.18 148.003 1110.58 147.051 1110.58 145.147C1110.58 143.243 1109.91 141.418 1108.56 139.673C1107.21 137.928 1105.55 137.015 1103.56 136.936C1096.42 136.381 1090.95 136.103 1087.14 136.103H1084.05C1079.92 136.103 1077.54 136.381 1076.91 136.936C1075.72 137.967 1075.12 146.734 1075.12 163.235C1075.12 167.202 1075.87 169.225 1077.38 169.304H1089.04C1093.8 169.304 1096.98 169.145 1098.56 168.828C1102.69 168.035 1105.03 165.972 1105.59 162.64C1105.82 161.291 1106.34 160.617 1107.13 160.617C1107.93 160.617 1108.4 160.736 1108.56 160.974C1108.72 161.212 1108.8 161.728 1108.8 162.521L1107.85 175.016L1108.2 182.275C1108.2 184.258 1107.93 185.25 1107.37 185.25C1106.18 185.25 1105.31 184.298 1104.75 182.394C1103.64 179.062 1102.65 177.118 1101.78 176.563C1100.11 175.452 1097.22 174.897 1093.09 174.897H1084.52L1080.71 174.778H1079.88C1076.63 174.778 1075 175.532 1075 177.039L1074.76 194.175V198.935C1074.76 204.647 1075.72 207.82 1077.62 208.455C1079.6 209.01 1081.31 209.288 1082.74 209.288C1094.64 209.288 1103.24 208.336 1108.56 206.432C1113.24 204.687 1116.1 202.862 1117.13 200.958C1118.08 198.975 1118.95 197.983 1119.75 197.983C1120.7 197.983 1121.17 198.657 1121.17 200.006C1121.17 203.417 1119.47 206.868 1116.06 210.359C1112.65 213.85 1109.67 215.595 1107.13 215.595C1101.42 215.595 1094.95 215.397 1087.74 215C1080.6 214.603 1076.15 214.405 1074.41 214.405L1058.22 215.476C1056.56 215.476 1055.72 215.079 1055.72 214.286V212.858C1055.72 212.382 1056.12 212.065 1056.91 211.906C1057.79 211.827 1059.14 211.351 1060.96 210.478C1062.78 209.605 1063.97 207.781 1064.53 205.004C1065.16 202.227 1065.48 196.396 1065.48 187.511V172.755ZM1131.11 129.558C1132.14 129.558 1135.36 129.717 1140.75 130.034C1146.23 130.351 1156.94 130.51 1172.88 130.51C1188.83 130.51 1198.47 130.272 1201.8 129.796C1202.67 129.796 1203.27 130.034 1203.58 130.51C1203.9 130.986 1204.06 131.422 1204.06 131.819L1204.77 141.458C1204.77 143.441 1204.65 144.711 1204.42 145.266C1204.18 145.742 1203.66 145.98 1202.87 145.98C1202.23 145.98 1201.68 145.187 1201.2 143.6C1200.81 141.934 1200.37 140.665 1199.89 139.792C1198.7 137.729 1195.25 136.698 1189.54 136.698H1174.07C1172.17 136.698 1170.98 137.095 1170.5 137.888C1170.1 138.602 1169.91 140.744 1169.91 144.314V150.145L1169.55 193.699L1169.43 201.434C1169.43 204.845 1169.95 207.067 1170.98 208.098C1172.09 209.129 1173.28 209.923 1174.55 210.478C1175.82 210.954 1176.89 211.232 1177.76 211.311C1179.98 211.47 1181.09 212.184 1181.09 213.453C1181.09 214.326 1180.89 214.881 1180.5 215.119C1180.1 215.357 1179.35 215.476 1178.24 215.476L1165.03 214.524L1152.89 215.357C1149.95 215.357 1148.49 214.722 1148.49 213.453C1148.49 212.66 1148.72 212.144 1149.2 211.906C1149.68 211.589 1150.59 211.351 1151.94 211.192C1153.37 210.954 1154.28 210.795 1154.67 210.716C1157.37 210.081 1158.88 208.495 1159.2 205.956C1159.99 198.975 1160.39 183.981 1160.39 160.974L1160.27 139.673C1160.27 138.166 1159.83 137.253 1158.96 136.936C1158.09 136.539 1155.19 136.341 1150.27 136.341C1145.35 136.341 1141.47 136.5 1138.61 136.817C1135.83 137.134 1134.21 137.452 1133.73 137.769C1133.25 138.007 1132.66 138.562 1131.95 139.435C1131.31 140.308 1130.76 141.339 1130.28 142.529C1129.88 143.64 1129.61 144.552 1129.45 145.266C1129.21 147.091 1128.45 148.003 1127.19 148.003C1126.31 148.003 1125.88 147.329 1125.88 145.98C1125.88 142.807 1126.07 139.951 1126.47 137.412C1126.87 134.794 1127.07 133.287 1127.07 132.89C1127.15 132.493 1127.19 132.255 1127.19 132.176C1127.26 132.017 1127.3 131.819 1127.3 131.581C1127.38 131.264 1127.46 131.065 1127.54 130.986C1127.62 130.827 1127.7 130.669 1127.78 130.51C1127.94 130.272 1128.1 130.113 1128.26 130.034C1128.42 129.955 1128.61 129.875 1128.85 129.796C1129.33 129.637 1130.08 129.558 1131.11 129.558Z" fill="#E9C46A"/>
</g>
<defs>
<filter id="filter0_d" x="584.212" y="122.844" width="630.562" height="129.242" filterUnits="userSpaceOnUse" color-interpolation-filters="sRGB">
<feFlood flood-opacity="0" result="BackgroundImageFix"/>
<feColorMatrix in="SourceAlpha" type="matrix" values="0 0 0 0 0 0 0 0 0 0 0 0 0 0 0 0 0 0 127 0" result="hardAlpha"/>
<feOffset dy="4"/>
<feGaussianBlur stdDeviation="5"/>
<feComposite in2="hardAlpha" operator="out"/>
<feColorMatrix type="matrix" values="0 0 0 0 0 0 0 0 0 0 0 0 0 0 0 0 0 0 0.6 0"/>
<feBlend mode="normal" in2="BackgroundImageFix" result="effect1_dropShadow"/>
<feBlend mode="normal" in="SourceGraphic" in2="effect1_dropShadow" result="shape"/>
</filter>
<clipPath id="clip0">
<rect width="497.902" height="497.902" fill="white" transform="translate(36.0979 71)"/>
</clipPath>
</defs>
</svg>
