<svg width="1280" height="640" viewBox="0 0 1280 640" fill="none" xmlns="http://www.w3.org/2000/svg">
<rect width="1280" height="640" fill="#323232"/>
<ellipse cx="297" cy="319.5" rx="165" ry="164.5" fill="#E9C46A"/>
<path fill-rule="evenodd" clip-rule="evenodd" d="M200.391 445.094L197.487 371.869L230.375 370.552C244.423 372.491 258.646 379.525 272.942 387.752L298.483 386.733C310.075 386.982 316.603 398.465 305.657 406.618C296.969 413.552 285.13 413.652 272.967 413.03C264.603 412.956 264.677 424.216 273.389 423.892C276.417 424.017 279.694 423.172 282.548 423.047C297.664 422.426 310 419.046 317.149 406.767L320.624 397.67L357.88 377.288C376.644 370.254 389.278 387.976 375.825 402.392C349.093 423.544 323.205 442.832 294.859 457.299C274.407 470.895 253.408 471.317 231.963 459.809L200.391 445.094ZM182.818 333.517H410.922C412.61 333.517 414 334.934 414 336.599V350.046C414 351.711 412.61 353.128 410.922 353.128H182.818C181.13 353.128 179.74 351.736 179.74 350.046V336.599C179.74 334.909 181.13 333.517 182.818 333.517ZM305.731 204.913C368.181 209.909 420.776 262.479 413.007 324.37H180.757C173.088 262.081 225.882 209.437 288.778 204.838V194.747H278.85C277.112 194.747 275.673 193.305 275.673 191.565V180.182C275.673 178.442 277.088 177 278.85 177H315.386C317.124 177 318.563 178.442 318.563 180.182V191.565C318.563 193.305 317.124 194.747 315.386 194.747H305.731V204.913ZM109 369.359L187.31 365.233L190.785 452.849L112.475 456.951L109 369.359Z" fill="#323232"/>
<path d="M957.564 381.916C959.991 381.849 962.365 382.649 964.277 384.179C965.219 384.985 966.027 385.942 966.668 387.013C967.817 385.02 969.583 383.475 971.686 382.62C974.301 381.654 977.167 381.671 979.771 382.668C981.996 383.58 984.035 384.909 985.783 386.586C987.18 387.843 988.475 389.226 989.914 390.441C990.655 391.102 991.503 391.625 992.422 391.985C993.048 392.187 993.717 392.205 994.352 392.036C994.987 391.868 995.563 391.52 996.014 391.032C996.411 390.564 996.618 389.959 996.593 389.341C996.568 388.723 996.312 388.137 995.879 387.705C995.736 387.582 995.569 387.491 995.389 387.437C995.21 387.384 995.021 387.37 994.836 387.395C994.65 387.421 994.472 387.486 994.313 387.586C994.153 387.686 994.016 387.819 993.91 387.977C993.773 388.248 993.712 388.552 993.734 388.857C993.756 389.161 993.859 389.454 994.033 389.702C993.626 389.459 993.28 389.122 993.023 388.717C992.767 388.313 992.607 387.852 992.557 387.373C992.522 386.81 992.67 386.25 992.977 385.781C993.284 385.312 993.734 384.959 994.257 384.778C995.254 384.389 996.347 384.341 997.373 384.641C998.398 384.94 999.301 385.572 999.946 386.44C1001 388.17 1001.39 390.239 1001.03 392.244C1000.9 393.182 1000.59 394.084 1000.11 394.893C999.625 395.703 998.987 396.403 998.231 396.952C996.029 398.404 993.434 399.108 990.817 398.963C988.339 398.877 985.896 398.341 983.603 397.379C979.769 395.805 976.181 393.627 972.222 392.37C970.848 391.977 969.451 391.672 968.039 391.457C966.981 391.475 965.92 391.419 964.865 391.495C963.573 391.607 962.303 391.903 961.09 392.372C957.064 393.652 953.423 395.893 949.525 397.462C946.222 398.87 942.595 399.284 939.07 398.654C937.065 398.315 935.226 397.307 933.841 395.787C932.724 394.417 932.146 392.671 932.219 390.889C932.088 389.199 932.575 387.52 933.585 386.176C934.095 385.575 934.737 385.106 935.459 384.809C936.18 384.512 936.961 384.394 937.736 384.466C938.238 384.48 938.732 384.604 939.183 384.829C939.634 385.055 940.033 385.377 940.352 385.774C940.57 386.106 940.711 386.486 940.763 386.883C940.815 387.281 940.777 387.685 940.652 388.065C940.364 388.731 939.887 389.295 939.284 389.684C939.46 389.439 939.565 389.149 939.587 388.846C939.61 388.543 939.548 388.24 939.409 387.972C939.298 387.808 939.152 387.67 938.984 387.57C938.815 387.469 938.627 387.407 938.432 387.388C938.237 387.369 938.041 387.394 937.857 387.46C937.672 387.527 937.504 387.633 937.365 387.773C937.029 388.143 936.814 388.609 936.747 389.109C936.681 389.608 936.767 390.116 936.993 390.564C937.266 391.011 937.638 391.386 938.079 391.658C938.52 391.93 939.018 392.092 939.532 392.131C941.018 392.087 942.43 391.456 943.469 390.371C945.658 388.199 947.982 386.175 950.428 384.313C952.522 382.809 955.006 381.975 957.564 381.916Z" fill="white"/>
<path d="M659.178 418.583C658.922 418.721 658.943 418.765 659.189 418.638C659.265 418.606 659.334 418.561 659.394 418.504C659.394 418.458 659.394 418.458 659.178 418.583ZM659.695 418.299C659.573 418.402 659.573 418.402 659.719 418.334C659.773 418.308 659.823 418.273 659.866 418.231C659.866 418.172 659.831 418.185 659.695 418.299ZM660.032 418.093C659.909 418.196 659.909 418.196 660.055 418.128C660.11 418.102 660.159 418.066 660.202 418.023C660.202 417.968 660.167 417.979 660.032 418.093ZM660.372 417.89C660.249 417.992 660.249 417.992 660.391 417.922C660.471 417.879 660.538 417.833 660.538 417.82C660.538 417.765 660.504 417.776 660.372 417.89ZM660.831 417.581C660.596 417.741 660.514 417.844 660.73 417.73C660.874 417.64 661.12 417.443 661.077 417.443C660.984 417.478 660.906 417.537 660.829 417.581H660.831ZM640.223 352.97C640.066 352.981 639.594 353.025 639.18 353.06C629.379 353.961 620.21 359.316 614.398 367.565C611.186 372.09 609.099 377.335 608.312 382.854C608.034 384.779 608 385.348 608 387.957C608 390.565 608.034 391.125 608.312 393.05C610.189 406.199 619.404 417.238 631.894 421.328C634.142 422.057 636.497 422.56 639.18 422.869C640.223 422.982 644.733 422.982 645.776 422.869C650.414 422.344 654.33 421.182 658.204 419.176C658.799 418.87 658.911 418.789 658.831 418.721C656.941 416.185 655.067 413.636 653.209 411.075L647.699 403.522L640.796 393.142C638.5 389.667 636.181 386.207 633.838 382.764C633.814 382.764 633.784 387.378 633.771 393.004C633.747 402.859 633.747 403.259 633.625 403.487C633.507 403.762 633.296 403.984 633.03 404.115C632.817 404.218 632.625 404.239 631.605 404.239H630.44L630.136 404.047C629.945 403.923 629.791 403.75 629.688 403.546L629.541 403.237L629.552 389.519L629.575 375.801L629.789 375.528C629.925 375.36 630.093 375.221 630.282 375.119C630.565 374.981 630.677 374.959 631.843 374.959C633.211 374.959 633.437 375.014 633.797 375.414C636.593 379.636 639.365 383.874 642.113 388.128C646.593 395.023 652.709 404.432 655.715 409.048L661.182 417.446L661.452 417.264C664.079 415.492 666.46 413.369 668.531 410.953C672.874 405.906 675.693 399.696 676.648 393.065C676.926 391.14 676.961 390.569 676.961 387.962C676.961 385.352 676.926 384.794 676.648 382.869C674.772 369.72 665.557 358.682 653.067 354.589C650.732 353.838 648.33 353.327 645.895 353.064C645.242 352.996 640.786 352.915 640.225 352.974L640.223 352.97ZM654.332 374.139C654.492 374.219 654.635 374.33 654.752 374.467C654.87 374.604 654.959 374.763 655.015 374.935C655.073 375.119 655.084 378.923 655.073 387.492L655.049 399.794L652.918 396.469L650.774 393.142V384.21C650.774 378.42 650.798 375.173 650.828 375.014C650.933 374.648 651.175 374.338 651.502 374.15C651.769 374.012 651.873 374.001 652.94 374.001C653.937 374.001 654.105 374.012 654.33 374.139H654.332Z" fill="white"/>
<path d="M711.961 387.954V422.954H780.922V352.954H711.961V387.954ZM767.531 385.163C769.184 385.558 770.686 386.437 771.851 387.691C772.481 388.374 773.422 389.627 773.502 389.936C773.524 390.028 770.528 392.066 768.709 393.206C768.643 393.252 768.373 392.968 768.08 392.521C767.194 391.211 766.261 390.642 764.837 390.539C762.749 390.402 761.402 391.509 761.412 393.366C761.401 393.82 761.501 394.27 761.703 394.676C762.165 395.645 763.029 396.225 765.699 397.399C770.638 399.552 772.748 400.976 774.06 402.993C775.53 405.248 775.855 408.849 774.868 411.537C773.769 414.442 771.052 416.424 767.235 417.074C766.057 417.29 763.251 417.255 761.981 417.017C759.21 416.516 756.583 415.125 754.967 413.303C754.327 412.596 753.092 410.739 753.172 410.614C753.206 410.568 753.486 410.387 753.801 410.203L756.361 408.698L758.348 407.525L758.764 408.151C759.348 409.05 760.615 410.282 761.38 410.691C763.58 411.876 766.6 411.706 768.093 410.349C768.699 409.838 769.037 409.05 768.992 408.254C768.992 407.444 768.89 407.081 768.474 406.475C767.936 405.701 766.847 405.04 763.738 403.673C760.18 402.111 758.641 401.155 757.251 399.618C756.376 398.605 755.729 397.412 755.355 396.12C755.096 395.129 755.029 392.644 755.232 391.653C755.962 388.155 758.566 385.729 762.302 385.012C763.516 384.773 766.343 384.863 767.533 385.16L767.531 385.163ZM751.346 388.092L751.368 390.951H742.388V416.849H736.035V390.951H727.068V388.149C727.068 386.587 727.102 385.289 727.145 385.254C727.18 385.209 732.634 385.187 739.257 385.198L751.312 385.233L751.346 388.092Z" fill="white"/>
<path d="M854.251 405.875C854.213 405.962 854.175 406.032 854.251 405.875V405.875ZM885.885 393.188C883.33 393.188 880.81 393.859 878.52 395.157C877.77 393.422 876.996 391.905 876.869 390.768C876.717 389.441 876.551 388.653 876.729 387.078C876.907 385.503 877.707 383.272 877.694 383.112C877.682 382.952 877.517 382.15 875.878 382.135C874.24 382.12 872.831 382.5 872.666 382.995C872.376 383.901 872.151 384.833 871.993 385.781C871.701 387.487 868.719 393.582 867.03 396.761C866.472 395.521 866.002 394.428 865.9 393.553C865.748 392.226 865.583 391.438 865.761 389.864C865.938 388.289 866.738 386.058 866.726 385.897C866.713 385.737 866.548 384.935 864.912 384.92C863.277 384.906 861.865 385.285 861.7 385.781C861.535 386.276 861.357 387.443 861.027 388.566C860.697 389.689 856.722 399.838 855.683 402.477C855.15 403.819 854.693 404.898 854.363 405.627C854.312 405.743 854.274 405.816 854.248 405.875C854.286 405.802 854.312 405.729 854.312 405.758C854.033 406.385 853.867 406.735 853.867 406.735V406.75C853.652 407.216 853.41 407.639 853.296 407.639C853.22 407.639 853.055 406.414 853.334 404.737C853.931 401.208 855.34 395.726 855.328 395.536C855.315 395.434 855.594 394.486 854.401 393.976C853.245 393.494 852.826 394.297 852.725 394.297C852.623 394.297 852.547 394.588 852.547 394.588C852.547 394.588 853.829 388.405 850.083 388.405C847.747 388.405 844.496 391.351 842.899 394.019C841.896 394.646 839.724 396.003 837.439 397.446L834.81 399.109C834.747 399.036 834.696 398.963 834.632 398.89C830.086 393.319 821.695 389.382 822.051 381.902C822.178 379.175 823.003 372.015 838.188 363.324C850.632 356.208 860.58 358.162 862.294 362.507C864.757 368.705 856.973 380.239 844.052 381.902C839.125 382.529 836.537 380.341 835.889 379.525C835.216 378.664 835.115 378.621 834.861 378.781C834.442 379.044 834.708 379.802 834.861 380.254C835.242 381.406 836.829 383.447 839.534 384.468C841.908 385.358 847.683 385.853 854.665 382.747C862.51 379.277 868.618 369.609 866.825 361.516C865.001 353.292 853.126 350.594 841.898 355.173C835.206 357.899 827.971 362.187 822.767 367.772C816.583 374.421 815.595 380.21 816.001 382.631C817.449 391.22 827.757 396.819 831.882 400.961L831.31 401.325C829.241 402.506 821.383 407.231 819.415 412.218C817.193 417.876 819.783 421.93 821.482 422.484C826.79 424.175 832.222 421.128 835.143 416.126C838.063 411.124 837.708 404.592 836.362 401.617C836.349 401.573 836.324 401.544 836.311 401.5C837.835 400.464 839.371 399.453 840.92 398.467C840.412 400.042 840.044 401.938 839.854 404.679C839.625 407.887 840.781 412.043 842.279 413.676C842.939 414.391 843.737 414.405 844.235 414.405C845.987 414.405 846.774 412.743 847.65 410.76C848.73 408.339 849.682 405.525 849.682 405.525C849.682 405.525 848.488 413.137 851.752 413.137C852.946 413.137 854.139 411.372 854.672 410.468V410.483C854.672 410.483 854.698 410.424 854.761 410.308C854.888 410.089 854.952 409.958 854.952 409.958V409.914C855.434 408.966 856.488 406.793 858.076 403.206C860.133 398.569 862.098 392.78 862.098 392.78C862.289 394.052 862.553 395.309 862.886 396.542C863.241 397.927 863.99 399.444 864.587 400.917C864.105 401.675 863.813 402.113 863.813 402.113C863.813 402.124 863.818 402.133 863.825 402.142C863.444 402.725 863.013 403.352 862.568 403.964C860.945 406.181 859.013 408.718 858.759 409.447C858.454 410.308 858.53 410.949 859.114 411.445C859.546 411.824 860.308 411.883 861.108 411.81C862.568 411.693 863.597 411.285 864.092 411.022C865.005 410.646 865.869 410.126 866.657 409.477C868.244 408.135 869.209 406.21 869.12 403.673C869.07 402.273 868.676 400.873 868.194 399.561C868.333 399.327 868.486 399.079 868.625 398.832C870.278 396 871.767 393.047 873.082 389.992C873.273 391.263 873.534 392.52 873.87 393.754C874.174 394.935 874.771 396.233 875.317 397.502C872.955 399.704 871.495 402.255 870.99 403.932C870.05 407.038 870.786 408.438 872.171 408.759C872.793 408.905 873.682 408.57 874.342 408.249C875.322 407.872 876.247 407.327 877.082 406.63C878.669 405.289 880.206 403.407 880.102 400.856C880.064 399.704 879.784 398.552 879.416 397.443C881.41 396.481 884 395.956 887.302 396.393C894.372 397.341 895.756 402.416 895.489 404.53C895.223 406.645 893.737 407.826 893.242 408.176C892.747 408.526 892.594 408.657 892.632 408.919C892.696 409.299 892.924 409.284 893.344 409.197C893.928 409.08 897.051 407.476 897.191 403.553C897.394 398.595 893.242 393.142 885.89 393.185L885.885 393.188ZM831.387 414.289C829.05 417.22 825.777 418.328 824.367 417.395C822.856 416.386 823.453 412.072 826.333 408.949C828.085 407.053 830.345 405.303 831.844 404.224C832.187 403.991 832.682 403.641 833.291 403.218C833.341 403.181 833.392 403.147 833.444 403.116C833.558 403.028 833.685 402.955 833.812 402.868C834.863 407.301 833.85 411.209 831.387 414.286V414.289ZM848.448 400.961C847.635 403.25 845.923 409.083 844.88 408.777C843.991 408.514 843.445 404.067 844.702 399.692C845.337 397.49 846.683 394.865 847.483 393.844C848.765 392.197 850.175 391.672 850.505 392.328C850.949 393.188 848.956 399.531 848.448 400.961ZM862.543 408.689C862.2 408.893 861.883 409.024 861.73 408.922C861.616 408.849 861.87 408.572 861.87 408.572C861.87 408.572 863.635 406.4 864.333 405.408C864.74 404.825 865.209 404.139 865.717 403.381C865.717 403.454 865.73 403.527 865.73 403.614C865.715 406.225 863.531 407.989 862.54 408.689H862.543ZM873.412 405.846C873.158 405.641 873.197 404.956 874.047 402.827C874.378 401.996 875.139 400.596 876.46 399.254C876.61 399.762 876.691 400.293 876.701 400.829C876.689 404.11 874.644 405.335 873.412 405.846Z" fill="white"/>
<path d="M996.39 473.473C996.387 471.465 995.734 469.514 994.532 467.925C993.33 466.336 991.647 465.199 989.746 464.691L998.273 439H956.023L964.576 464.782C962.731 465.331 961.109 466.475 959.953 468.044C958.797 469.613 958.169 471.522 958.164 473.486C958.164 476.529 959.647 479.228 961.911 480.89C961.005 482.202 959.97 483.415 958.823 484.512C956.711 486.566 954.242 488.197 951.544 489.322C949.157 487.68 948.134 484.775 949.059 482.192C958.756 479.103 956.616 464.498 946.473 464.454C944.117 464.456 941.859 465.413 940.193 467.116C938.527 468.818 937.591 471.126 937.589 473.534C937.589 476.008 938.567 478.274 940.164 479.901C940.018 480.175 939.883 480.472 939.738 480.768C938.413 483.57 936.906 486.726 936.328 490.27C935.181 497.368 937.064 503.063 941.613 506.288C944.071 508.061 947.009 509.009 950.018 509C955.223 509 960.52 506.323 965.635 503.724C969.291 501.889 973.058 499.964 976.759 499.032C978.131 498.691 979.558 498.487 981.063 498.256C984.117 497.812 987.272 497.346 990.103 495.659C991.723 494.713 993.12 493.416 994.197 491.859C995.273 490.302 996.002 488.523 996.334 486.647C996.805 483.789 996.36 480.852 995.065 478.274C995.923 476.872 996.392 475.245 996.392 473.477L996.39 473.473ZM992.522 473.473C992.52 474.826 991.994 476.123 991.058 477.079C990.122 478.036 988.852 478.574 987.529 478.576C982.801 478.565 980.729 472.471 984.438 469.461L984.449 469.442C984.618 469.317 984.798 469.19 984.962 469.074C984.962 469.074 984.997 469.074 984.997 469.054C985.074 469.008 985.151 468.952 985.23 468.906C985.253 468.906 985.264 468.895 985.283 468.895C985.363 468.849 985.463 468.816 985.564 468.77C985.664 468.724 985.763 468.691 985.844 468.645C985.863 468.645 985.876 468.634 985.898 468.634C985.977 468.61 986.067 468.567 986.144 468.556C986.155 468.556 986.202 468.532 986.223 468.532C986.324 468.508 986.401 468.486 986.499 468.473H986.51L986.812 468.405C986.831 468.405 986.865 468.405 986.889 468.381C986.966 468.381 987.045 468.357 987.135 468.357H987.223C987.323 468.357 987.422 468.346 987.546 468.346H987.803C987.882 468.346 987.948 468.346 988.025 468.357H988.059C988.216 468.381 988.383 468.403 988.539 468.451C989.665 468.695 990.675 469.327 991.4 470.241C992.124 471.155 992.52 472.296 992.52 473.473H992.522ZM961.554 443.058H992.745L985.587 464.634C985.286 464.693 984.997 464.793 984.695 464.896L977.161 449.197L969.601 464.796C969.295 464.702 968.982 464.63 968.666 464.579L961.554 443.058ZM975.733 471.708C975.368 469.837 974.43 468.134 973.056 466.843L977.159 458.38L981.305 467.024C980.037 468.296 979.171 469.928 978.82 471.708H975.733ZM965.8 468.505C965.892 468.48 965.986 468.461 966.081 468.451H966.134C966.213 468.427 966.29 468.427 966.367 468.405H966.447C966.524 468.405 966.592 468.381 966.669 468.381H967.438C967.517 468.381 967.583 468.405 967.641 468.405C967.684 468.405 967.694 468.405 967.741 468.429C967.819 468.453 967.876 468.453 967.953 468.464C967.977 468.464 967.998 468.464 968.041 468.483L968.309 468.543H968.332C968.409 468.567 968.501 468.588 968.578 468.632C968.589 468.632 968.613 468.643 968.655 468.643C968.713 468.667 968.79 468.689 968.859 468.722C968.867 468.722 968.891 468.746 968.912 468.746C968.989 468.792 969.068 468.816 969.146 468.849H969.169C969.262 468.884 969.349 468.934 969.426 468.997H969.449C969.527 469.032 969.604 469.087 969.683 469.135C969.702 469.135 969.702 469.159 969.726 469.159C969.805 469.194 969.86 469.262 969.937 469.297L969.961 469.321C970.194 469.503 970.417 469.706 970.644 469.914L970.652 469.925C971.545 470.881 972.037 472.145 972.024 473.453C971.812 480.039 962.247 480.039 962.035 473.453C962.025 471.119 963.585 469.078 965.802 468.51L965.8 468.505ZM946.281 468.357C947.607 468.357 948.878 468.895 949.816 469.853C950.754 470.811 951.28 472.111 951.28 473.466C951.28 474.821 950.754 476.121 949.816 477.079C948.878 478.038 947.607 478.576 946.281 478.576C943.53 478.576 941.287 476.286 941.287 473.473C941.287 470.66 943.53 468.357 946.281 468.357ZM992.409 485.939C992.18 487.234 991.677 488.462 990.934 489.537C990.191 490.612 989.227 491.507 988.109 492.159C985.945 493.435 983.28 493.846 980.496 494.242C978.922 494.447 977.359 494.733 975.813 495.097C971.688 496.136 967.72 498.151 963.872 500.1C958.958 502.595 954.32 504.94 950.018 504.94C947.811 504.954 945.656 504.253 943.864 502.937C939.504 499.859 939.718 494.084 940.241 490.917C940.709 487.953 942.036 485.186 943.306 482.533C943.398 482.373 943.451 482.224 943.53 482.067C943.965 482.224 944.421 482.349 944.9 482.432C944.14 486.726 946.281 491.171 950.45 493.358L951.197 493.754L952.01 493.459C955.478 492.192 958.699 490.154 961.53 487.422C963.1 485.929 964.485 484.245 965.655 482.408C967.83 482.749 970.051 482.254 971.89 481.019C973.729 479.784 975.055 477.897 975.611 475.721H978.944C979.437 477.665 980.547 479.387 982.101 480.616C983.655 481.844 985.564 482.511 987.529 482.511C989.179 482.511 990.705 482.045 992.008 481.258C992.522 482.773 992.687 484.357 992.409 485.941V485.939Z" fill="white"/>
<path d="M1070.64 352.954C1051.54 352.954 1036.16 368.564 1036.16 387.954C1036.16 407.344 1051.54 422.954 1070.64 422.954C1089.74 422.954 1105.12 407.344 1105.12 387.954C1105.12 368.564 1089.74 352.954 1070.64 352.954ZM1078.69 365.592C1079.06 365.58 1079.4 365.988 1079.18 366.403L1070.43 382.678C1070.39 382.761 1070.36 382.854 1070.37 382.948C1070.37 383.042 1070.39 383.135 1070.44 383.216C1070.49 383.297 1070.56 383.364 1070.64 383.411C1070.72 383.458 1070.81 383.482 1070.9 383.483H1086.02C1086.5 383.483 1086.74 384.086 1086.38 384.425L1059.89 409.523C1059.42 409.972 1058.71 409.339 1059.09 408.805L1071.63 391.244C1071.69 391.163 1071.72 391.067 1071.73 390.967C1071.74 390.867 1071.72 390.767 1071.67 390.678C1071.63 390.589 1071.56 390.514 1071.48 390.462C1071.39 390.409 1071.3 390.381 1071.2 390.38H1055.2C1055.09 390.38 1054.99 390.348 1054.9 390.288C1054.81 390.227 1054.75 390.142 1054.71 390.042C1054.66 389.942 1054.65 389.832 1054.68 389.726C1054.7 389.62 1054.75 389.523 1054.82 389.447L1078.33 365.755C1078.42 365.655 1078.55 365.597 1078.69 365.592H1078.69Z" fill="white"/>
<path d="M626.735 464.478L641.647 455.733C641.83 455.625 642.038 455.569 642.249 455.569C642.461 455.569 642.669 455.625 642.852 455.733L657.763 464.478C657.947 464.586 658.099 464.741 658.204 464.928C658.31 465.115 658.365 465.326 658.364 465.541V483.017C658.364 483.232 658.309 483.443 658.203 483.629C658.098 483.816 657.946 483.971 657.763 484.08L642.852 492.81C642.669 492.918 642.461 492.974 642.249 492.974C642.038 492.974 641.83 492.918 641.647 492.81L626.735 484.08C626.552 483.972 626.4 483.817 626.295 483.63C626.189 483.443 626.134 483.232 626.134 483.017V465.541C626.134 465.101 626.367 464.697 626.735 464.478ZM681.028 472.443L663.211 440.973C662.56 439.829 661.373 439 660.067 439H624.439C623.145 439 621.946 439.829 621.295 440.973L603.478 472.366C603.165 472.932 603 473.571 603 474.22C603 474.87 603.165 475.509 603.478 476.075L621.31 507.286C621.948 508.43 623.148 509 624.441 509H660.082C661.375 509 662.563 508.442 663.213 507.299L681.03 476.047C681.349 475.502 681.518 474.879 681.518 474.244C681.518 473.609 681.349 472.986 681.03 472.441L681.028 472.443ZM666.278 487.57C666.271 487.8 666.206 488.024 666.09 488.221C665.974 488.419 665.809 488.583 665.613 488.698L642.901 501.981C642.707 502.095 642.487 502.155 642.263 502.155C642.039 502.155 641.819 502.095 641.625 501.981L618.9 488.698C618.705 488.582 618.541 488.418 618.425 488.22C618.309 488.023 618.244 487.799 618.235 487.57V460.976C618.235 460.52 618.503 460.092 618.9 459.86L641.6 446.562C641.796 446.454 642.015 446.397 642.238 446.397C642.461 446.397 642.68 446.454 642.876 446.562L665.601 459.86C665.797 459.976 665.96 460.14 666.077 460.337C666.193 460.534 666.258 460.758 666.266 460.988L666.278 487.57Z" fill="white"/>
<path d="M735.701 507.338C735.701 508.261 734.971 509 734.063 509H717.642C715.453 509 715.453 505.662 717.642 505.662H734.063C734.973 505.662 735.701 506.414 735.701 507.338ZM734.063 498.997H730.775C728.585 498.997 728.585 502.335 730.775 502.335H734.063C736.253 502.335 736.253 498.997 734.063 498.997ZM717.642 502.335H724.209C726.398 502.335 726.398 498.997 724.209 498.997H717.642C715.453 498.997 715.453 502.335 717.642 502.335ZM734.063 492.331H717.642C715.453 492.331 715.453 495.669 717.642 495.669H734.063C736.253 495.669 736.253 492.331 734.063 492.331ZM757.049 485.666H727.495C725.305 485.666 725.305 489.004 727.495 489.004H757.049C759.239 489.004 759.239 485.666 757.049 485.666ZM717.642 489.004H720.931C723.12 489.004 723.12 485.666 720.931 485.666H717.642C715.453 485.666 715.453 489.004 717.642 489.004ZM766.904 479.001H757.049C754.86 479.001 754.86 482.328 757.049 482.328H766.904C769.093 482.328 769.093 479.001 766.904 479.001ZM737.352 482.328H750.485C752.674 482.328 752.674 479.001 750.485 479.001H737.352C735.163 479.001 735.163 482.328 737.352 482.328ZM717.642 482.328H730.775C732.964 482.328 732.964 479.001 730.775 479.001H717.642C715.453 479.001 715.453 482.328 717.642 482.328ZM770.182 472.338H743.916C741.727 472.338 741.727 475.665 743.916 475.665H770.182C772.371 475.665 772.371 472.338 770.182 472.338ZM738.99 474C738.99 473.559 738.817 473.136 738.51 472.824C738.203 472.513 737.786 472.338 737.352 472.338H727.497C725.308 472.338 725.308 475.665 727.497 475.665H737.352C737.786 475.665 738.203 475.49 738.51 475.178C738.817 474.866 738.99 474.443 738.99 474.002V474ZM717.642 475.662H720.931C723.12 475.662 723.12 472.335 720.931 472.335H717.642C715.453 472.335 715.453 475.662 717.642 475.662ZM773.47 465.672H757.049C754.86 465.672 754.86 468.999 757.049 468.999H773.47C775.66 468.999 775.66 465.672 773.47 465.672ZM717.642 468.999H734.063C736.253 468.999 736.253 465.672 734.063 465.672H717.642C715.453 465.672 715.453 468.999 717.642 468.999ZM755.411 460.669C755.411 461.582 756.142 462.332 757.049 462.332H773.47C775.66 462.332 775.66 458.994 773.47 458.994H757.049C756.833 458.994 756.619 459.038 756.42 459.123C756.221 459.207 756.04 459.331 755.888 459.487C755.735 459.642 755.615 459.827 755.533 460.03C755.452 460.233 755.41 460.45 755.411 460.669ZM730.775 458.996C728.585 458.996 728.585 462.334 730.775 462.334H734.063C736.253 462.334 736.253 458.996 734.063 458.996H730.775ZM717.642 462.334H724.209C726.398 462.334 726.398 458.996 724.209 458.996H717.642C715.453 458.996 715.453 462.334 717.642 462.334ZM765.255 454.004C765.255 454.916 765.997 455.667 766.906 455.667H770.184C772.373 455.667 772.373 452.328 770.184 452.328H766.906C766.69 452.329 766.476 452.373 766.277 452.457C766.078 452.542 765.897 452.666 765.745 452.821C765.593 452.977 765.472 453.162 765.39 453.364C765.309 453.567 765.267 453.785 765.268 454.004H765.255ZM761.978 454.004C761.978 453.562 761.805 453.138 761.499 452.824C761.192 452.51 760.775 452.332 760.34 452.328H747.196C745.007 452.328 745.007 455.667 747.196 455.667H760.329C760.765 455.667 761.182 455.492 761.492 455.18C761.801 454.869 761.976 454.446 761.98 454.004H761.978ZM717.642 455.669H740.63C742.819 455.669 742.819 452.331 740.63 452.331H717.642C715.453 452.331 715.453 455.669 717.642 455.669ZM732.423 447.328C732.423 448.251 733.154 449.003 734.061 449.003H766.904C769.093 449.003 769.093 445.665 766.904 445.665H734.061C733.627 445.665 733.21 445.84 732.903 446.152C732.596 446.464 732.423 446.887 732.423 447.328ZM717.642 449.003H727.497C729.687 449.003 729.687 445.665 727.497 445.665H717.642C715.453 445.665 715.453 449.003 717.642 449.003ZM717.642 442.338H757.049C759.239 442.338 759.239 439 757.049 439H717.642C715.453 439 715.453 442.338 717.642 442.338Z" fill="white"/>
<path d="M882.396 483.998C882.336 486.345 877.869 487.975 879.688 490.308C883.702 490.88 881.876 493.581 884.075 494.5C880.188 500.926 873.913 501.728 867.947 497.704C866.212 496.654 864.258 496.209 862.655 496.647C861.743 498.129 863.101 498.304 863.966 498.518C868.162 499.366 872.391 505.948 886.59 499.679C888.482 498.87 888.195 496.492 887.375 494.622C888.949 493.941 889.043 492.166 889.275 489.885C890.819 484.742 885.749 485.187 882.396 483.998ZM860.075 472.83C858.343 472.869 855.795 474.534 854.111 475.362C856.487 476.781 857.431 478.469 860.075 477.942C862.719 477.415 862.671 475.686 861.631 473.678C861.304 473.048 860.752 472.814 860.075 472.83ZM871.247 439.002C868.016 439.152 865.237 447.938 861.942 454.165C852.469 458.164 850.099 452.978 847.006 453.831C841.737 442.931 833.915 432.003 831.801 444.991C832.268 454.808 828.408 455.617 828.75 469.624C828.75 469.624 821.865 483.691 824.674 496.138C826.653 504.908 833.613 508.219 838.288 509C838.772 505.412 844.319 497.323 842.802 495.435C839.016 490.725 840.204 479.187 849.799 477.994C851.11 468.288 857.615 470.115 856.95 467.308C854.864 458.512 863.862 462.618 865.372 465.5C868.085 470.07 869.993 474.562 872.211 476.691C875.031 479.398 878.857 480.877 879.081 480.963C878.277 480.453 871.379 474.529 869.361 469.772C868.147 466.91 868.269 460.464 868.269 460.464C871.769 459.908 873.181 465.886 876.982 471.309C877.139 471.699 877.112 472.012 876.982 472.272C876.458 471.992 876.275 471.288 875.646 471.203C875.073 471.203 874.609 472.028 874.609 473.046C874.609 474.064 875.365 474.427 876.406 474.903C877.858 477.497 879.368 478.45 880.82 479.1L876.134 465.202C875.96 456.498 876.867 447.794 871.899 439.09C871.689 439.022 871.468 438.992 871.247 439.002ZM871.292 441.777C871.551 441.772 871.791 441.95 872.003 442.355C874.596 447.303 874.692 458.918 874.674 463.024C873.443 460.18 871.597 455.395 865.78 453.936C865.78 453.936 869.178 441.814 871.292 441.777ZM836.444 442.881C837.626 442.876 838.97 443.579 840.528 446.464C843.022 451.08 844.812 454.15 845.68 455.74C847.458 458.993 844.902 456.421 844.101 464.768C843.943 466.416 843.33 467.209 842.128 468.045C839.527 465.406 837.692 460.825 836.425 455.379C833.941 459.124 838.032 464.913 838.105 469.865C835.346 470.505 833.556 470.281 832.535 469.936C831.255 469.286 830.833 461.36 833.208 455.208C835.186 450.083 834.246 443.566 835.125 443.282C835.73 443.087 835.735 442.884 836.444 442.881Z" fill="white"/>
<path d="M1103.33 467.455C1103.41 467.601 1103.48 467.785 1103.55 467.998C1103.47 467.823 1103.42 467.621 1103.33 467.455C1105.03 474.175 1097.73 482.047 1088.59 479.819H1088.59C1101.8 471.04 1095.29 460.067 1089.14 454.794C1084.08 450.448 1087.07 449.106 1089.2 449.106C1089.88 449.106 1090.47 449.24 1090.69 449.459L1090.68 449.448L1090.69 449.459C1090.64 445.28 1076.14 446.222 1088.83 459.65C1095.34 466.548 1087.65 481.805 1078.49 470.203C1078.42 470.098 1078.35 469.987 1078.29 469.873C1079.77 469.249 1080.98 467.554 1080.98 464.76C1081 463.771 1080.8 462.791 1080.41 461.884C1081.47 459.697 1082.45 457.08 1082.45 453.805C1082.45 445.977 1077.44 439 1070.44 439C1063.43 439 1058.42 445.977 1058.42 453.805C1058.42 457.08 1059.4 459.697 1060.46 461.887C1060.07 462.795 1059.87 463.778 1059.89 464.769C1059.89 467.563 1061.1 469.26 1062.58 469.882C1062.52 469.996 1062.45 470.106 1062.38 470.211C1053.22 481.814 1045.53 466.554 1052.04 459.659C1064.73 446.23 1050.22 445.291 1050.17 449.468L1050.2 449.456C1050.42 449.24 1051 449.106 1051.68 449.106C1053.81 449.106 1056.8 450.448 1051.74 454.794C1045.61 460.044 1039.14 470.946 1052.13 479.708C1052.19 479.746 1052.22 479.787 1052.28 479.825C1043.15 482.053 1035.86 474.201 1037.53 467.481L1037.54 467.452C1037.54 467.458 1037.54 467.467 1037.53 467.47L1037.54 467.461L1037.53 467.481C1034.15 472.177 1035.79 484.337 1048.38 485.471C1048.44 485.48 1048.48 485.498 1048.54 485.506C1036.01 488.423 1039.78 505.981 1048.6 503.17L1048.57 503.167L1048.61 503.158C1042.48 502.152 1042.02 494.417 1045.08 491.754C1048.45 488.82 1052.32 491.354 1060.32 489.035L1060.4 489.024C1060.32 496.158 1067.16 499.99 1063.57 504.074C1059.79 508.37 1054.63 503.782 1055.36 499.553L1055.38 499.468L1055.37 499.492V499.48L1055.36 499.515C1052.19 504.911 1056.2 509 1060.7 509C1063.28 509 1066.03 507.653 1067.68 504.43C1071.17 497.613 1060.82 485.67 1070.44 485.67C1080.04 485.67 1069.7 497.613 1073.19 504.43C1074.84 507.653 1077.59 509 1080.17 509C1084.69 509 1088.71 504.885 1085.49 499.468L1085.5 499.53L1085.49 499.48C1086.28 503.73 1081.08 508.396 1077.28 504.074C1073.71 499.979 1080.53 496.146 1080.46 489.015C1088.52 491.383 1092.41 488.805 1095.79 491.757C1098.85 494.414 1098.39 502.152 1092.26 503.161H1092.28C1101.1 505.955 1104.86 488.42 1092.33 485.495L1092.34 485.492C1105.1 484.436 1106.74 472.154 1103.33 467.455H1103.33ZM1045.18 468.593C1044.78 462.042 1050.38 456.713 1052.11 455.231C1054.51 453.169 1055.45 451.521 1054.97 450.194C1054.82 449.795 1054.57 449.446 1054.24 449.183C1053.9 448.92 1053.51 448.753 1053.09 448.701C1052.54 448.615 1051.98 448.645 1051.44 448.788C1051.93 448.549 1052.49 448.409 1053.09 448.409C1054.46 448.409 1055.58 449.06 1055.95 450.069C1056.29 450.982 1056.3 453.006 1052.58 456.29C1046.7 461.49 1046.22 467.729 1047.74 471.836C1049.05 475.403 1051.96 477.71 1055.15 477.71C1055.66 477.71 1056.17 477.652 1056.68 477.544C1055.13 478.885 1053.35 479.323 1052.62 479.457C1048.33 476.409 1045.41 472.402 1045.18 468.587V468.593ZM1060.14 488.639C1056.88 489.52 1053.55 489.569 1051.41 489.581C1048.76 489.598 1046.66 489.61 1044.71 491.31C1042.94 492.85 1042.2 495.96 1042.96 498.707C1043.22 499.655 1043.51 500.62 1044.18 501.207C1044.7 501.653 1045.57 502.286 1046.45 502.729L1046.4 502.718C1046.45 502.747 1046.49 502.785 1046.55 502.814C1043.7 502.195 1042.03 499.372 1041.83 496.59C1041.58 493.075 1043.56 488.633 1049.97 487.679C1050.99 487.528 1052.06 487.437 1053.13 487.347C1055.75 487.125 1058.45 486.895 1060.31 485.772C1060.24 486.88 1060.17 488.07 1060.14 488.639ZM1060.86 480.81C1058.99 483.721 1055.3 484.173 1052.04 484.573C1051.12 484.684 1050.28 484.815 1049.5 484.975L1048.48 484.905C1043.31 484.45 1039.45 481.971 1037.63 477.917C1036.79 476.043 1036.44 473.977 1036.62 471.923C1036.62 471.923 1036.73 470.827 1036.93 469.678C1036.68 472.871 1037.52 475.913 1039.46 478.419C1040.71 480.018 1042.29 481.311 1044.1 482.201C1045.91 483.09 1047.9 483.554 1049.91 483.558C1053.73 483.558 1057.34 481.837 1060.09 478.708C1061.04 477.628 1061.46 477.547 1061.57 477.547C1061.94 478.089 1061.63 479.612 1060.86 480.81H1060.86ZM1079.17 464.76C1079.17 468.689 1074.78 468.689 1074.78 464.76C1074.78 460.831 1079.17 460.831 1079.17 464.76ZM1073.98 448.742C1073.98 450.903 1070.44 450.903 1070.44 448.742C1070.44 446.583 1073.98 446.583 1073.98 448.742ZM1073.24 472.53C1073.24 474.715 1073.07 476.485 1072.86 476.485C1072.65 476.485 1072.5 474.72 1072.5 472.533C1072.5 470.345 1072.68 468.578 1072.88 468.578C1073.08 468.578 1073.25 470.345 1073.24 472.53ZM1070.51 467.823C1070.67 467.823 1070.79 469.952 1070.79 472.58C1070.79 475.208 1070.67 477.337 1070.51 477.337C1070.35 477.337 1070.22 475.208 1070.22 472.583C1070.22 469.952 1070.35 467.823 1070.51 467.823ZM1069.95 443.877C1069.95 445.367 1067.51 445.367 1067.51 443.877C1067.51 442.386 1069.96 442.401 1069.96 443.877H1069.95ZM1068.27 456.185C1068.27 455.153 1069.95 455.161 1069.95 456.185C1069.95 457.218 1068.27 457.218 1068.27 456.185ZM1068.4 472.583C1068.4 474.823 1068.21 476.637 1068 476.637C1067.79 476.637 1067.63 474.823 1067.63 472.585C1067.63 470.348 1067.81 468.534 1068.02 468.534C1068.24 468.534 1068.4 470.343 1068.4 472.583ZM1068.4 450.722C1068.4 452.21 1065.96 452.21 1065.96 450.722C1065.96 449.235 1068.4 449.235 1068.4 450.722ZM1065.1 447.123C1065.1 448.153 1063.42 448.153 1063.42 447.123C1063.42 446.093 1065.1 446.093 1065.1 447.123ZM1064.87 454.438C1064.87 455.182 1063.65 455.182 1063.65 454.438C1063.65 453.691 1064.87 453.691 1064.87 454.438H1064.87ZM1061.71 464.763C1061.71 460.834 1066.1 460.834 1066.1 464.763C1066.1 468.692 1061.71 468.692 1061.71 464.763ZM1077.02 491.27C1076.79 493.428 1076.23 495.295 1075.74 496.945C1074.74 500.265 1073.95 502.884 1076.43 505.701C1077.48 506.888 1078.81 507.515 1080.3 507.515C1082.14 507.515 1083.97 506.524 1085.08 504.923C1085.58 504.187 1085.9 503.344 1086.01 502.461C1086.06 502.928 1086.09 503.365 1086.06 503.677C1086 504.338 1085.81 504.98 1085.49 505.561C1084.53 507.297 1082.44 508.42 1080.18 508.42C1077.45 508.42 1075.09 506.868 1073.7 504.164C1072.32 501.46 1073.32 497.707 1074.21 494.393C1075.08 491.141 1075.83 488.335 1074.51 486.583C1073.75 485.576 1072.42 485.089 1070.44 485.089C1068.45 485.089 1067.12 485.576 1066.36 486.583C1065.04 488.333 1065.79 491.141 1066.66 494.393C1067.55 497.707 1068.55 501.46 1067.17 504.164C1065.79 506.868 1063.43 508.42 1060.7 508.42C1058.44 508.42 1056.35 507.297 1055.38 505.561C1054.87 504.623 1054.68 503.534 1054.86 502.475C1055 503.339 1055.27 504.173 1055.79 504.925C1056.9 506.521 1058.73 507.515 1060.57 507.515C1062.06 507.515 1063.4 506.888 1064.44 505.701C1066.92 502.884 1066.13 500.27 1065.13 496.957C1064.64 495.303 1064.07 493.428 1063.86 491.27C1063.57 488.452 1064.2 485.941 1065.58 484.386C1066.73 483.1 1068.36 482.444 1070.44 482.444C1072.51 482.444 1074.15 483.097 1075.29 484.383C1076.67 485.938 1077.3 488.446 1077.02 491.267L1077.02 491.27ZM1085.72 477.716C1088.91 477.716 1091.82 475.412 1093.13 471.842C1094.64 467.735 1094.17 461.496 1088.28 456.296C1084.56 453.009 1084.56 450.988 1084.9 450.072C1085.27 449.065 1086.39 448.412 1087.76 448.412C1088.31 448.412 1088.83 448.543 1089.28 448.748L1089.32 448.759C1088.81 448.647 1088.29 448.629 1087.78 448.707C1087.37 448.759 1086.97 448.925 1086.64 449.188C1086.31 449.451 1086.05 449.801 1085.9 450.2C1085.42 451.527 1086.36 453.175 1088.77 455.24C1090.49 456.719 1096.09 462.048 1095.7 468.593C1095.47 472.408 1092.54 476.415 1088.25 479.463C1086.76 479.189 1085.36 478.53 1084.19 477.55C1084.7 477.66 1085.22 477.716 1085.72 477.716ZM1099.04 496.584C1098.84 499.372 1097.17 502.19 1094.31 502.808C1094.36 502.785 1094.39 502.755 1094.43 502.729C1095.31 502.283 1096.18 501.656 1096.69 501.213C1097.36 500.623 1097.65 499.658 1097.91 498.71C1098.67 495.963 1097.94 492.853 1096.16 491.313C1094.22 489.616 1092.12 489.601 1089.46 489.584C1087.33 489.572 1083.99 489.523 1080.72 488.642C1080.7 488.07 1080.64 486.886 1080.57 485.775C1082.43 486.9 1085.14 487.131 1087.75 487.355C1088.83 487.446 1089.89 487.536 1090.91 487.685C1097.31 488.639 1099.29 493.075 1099.04 496.581L1099.04 496.584ZM1091.38 484.978C1090.6 484.815 1089.76 484.687 1088.83 484.57C1085.57 484.173 1081.88 483.721 1080.01 480.808C1079.24 479.612 1078.92 478.095 1079.17 477.628C1079.22 477.612 1079.26 477.603 1079.31 477.602C1079.57 477.602 1080 477.815 1080.78 478.708C1083.53 481.837 1087.15 483.558 1090.97 483.558C1095.03 483.558 1098.94 481.633 1101.42 478.416C1103.35 475.913 1104.19 472.874 1103.95 469.683C1104.15 470.83 1104.26 471.929 1104.26 471.929C1104.44 473.982 1104.09 476.046 1103.24 477.92C1101.42 481.974 1097.57 484.453 1092.39 484.908L1091.38 484.978ZM1063.54 463.118C1063.64 463.185 1063.73 463.281 1063.78 463.395C1063.84 463.509 1063.86 463.636 1063.85 463.763C1063.86 463.858 1063.85 463.954 1063.82 464.045C1063.79 464.135 1063.74 464.219 1063.68 464.29C1063.61 464.36 1063.54 464.417 1063.45 464.456C1063.36 464.494 1063.27 464.514 1063.18 464.514C1063.08 464.514 1062.99 464.494 1062.9 464.456C1062.82 464.417 1062.74 464.36 1062.68 464.29C1062.61 464.219 1062.56 464.135 1062.53 464.045C1062.5 463.954 1062.49 463.858 1062.5 463.763C1062.49 463.635 1062.51 463.506 1062.57 463.391C1062.63 463.276 1062.71 463.179 1062.82 463.112C1062.93 463.045 1063.05 463.01 1063.18 463.011C1063.31 463.012 1063.43 463.049 1063.54 463.118ZM1075.88 464.41C1075.77 464.343 1075.68 464.246 1075.63 464.132C1075.57 464.018 1075.55 463.89 1075.56 463.763C1075.56 463.669 1075.57 463.575 1075.6 463.487C1075.63 463.399 1075.68 463.318 1075.74 463.249C1075.81 463.181 1075.88 463.126 1075.97 463.089C1076.05 463.052 1076.14 463.032 1076.24 463.032C1076.33 463.032 1076.42 463.052 1076.5 463.089C1076.59 463.126 1076.66 463.181 1076.73 463.249C1076.79 463.318 1076.84 463.399 1076.87 463.487C1076.9 463.575 1076.92 463.669 1076.91 463.763C1076.92 463.89 1076.9 464.018 1076.84 464.132C1076.78 464.246 1076.7 464.342 1076.59 464.41C1076.48 464.477 1076.36 464.513 1076.23 464.513C1076.11 464.513 1075.98 464.477 1075.88 464.41Z" fill="white"/>
<path d="M599.798 291.76L601.443 287.14C602.423 284.34 603.263 281.96 604.103 279.09H604.243C605.083 281.96 605.923 284.34 606.903 287.14L608.513 291.76H599.798ZM611.733 301H612.923L604.663 277.9H603.683L595.423 301H596.543L599.448 292.74H608.863L611.733 301ZM623.072 304.43C623.072 303.17 623.772 301.77 625.452 300.65C626.362 300.86 627.272 300.93 627.482 300.93H631.332C633.992 300.93 635.392 301.7 635.392 303.66C635.392 305.9 632.872 308.21 628.882 308.21C625.172 308.21 623.072 306.67 623.072 304.43ZM621.952 304.5C621.952 307.3 624.542 309.19 628.812 309.19C633.502 309.19 636.512 306.39 636.512 303.59C636.512 301 634.832 299.81 631.122 299.81H627.412C624.822 299.81 624.122 298.76 624.122 297.5C624.122 296.31 624.822 295.54 625.592 294.91C626.362 295.4 627.482 295.68 628.462 295.68C631.682 295.68 634.202 293.09 634.202 289.73C634.202 287.84 633.362 286.23 632.172 285.25H636.232V284.27H630.632C630.142 284.06 629.372 283.85 628.462 283.85C625.242 283.85 622.722 286.37 622.722 289.73C622.722 291.76 623.772 293.44 624.822 294.35V294.49C624.122 294.98 623.002 296.03 623.002 297.57C623.002 298.83 623.632 299.74 624.472 300.23V300.37C622.932 301.49 621.952 303.03 621.952 304.5ZM628.462 294.7C626.012 294.7 623.842 292.67 623.842 289.73C623.842 286.72 625.942 284.83 628.462 284.83C630.982 284.83 633.082 286.755 633.082 289.73C633.082 292.67 630.912 294.7 628.462 294.7ZM638.427 292.67C638.427 298.2 641.857 301.42 645.847 301.42C649.837 301.42 653.267 298.2 653.267 292.67C653.267 287.07 649.837 283.85 645.847 283.85C641.857 283.85 638.427 287.07 638.427 292.67ZM639.547 292.67C639.547 288.05 642.277 284.83 645.847 284.83C649.417 284.83 652.147 288.05 652.147 292.67C652.147 297.29 649.417 300.44 645.847 300.44C642.277 300.44 639.547 297.29 639.547 292.67ZM658.245 295.05C658.245 299.39 659.855 301.42 663.285 301.42C665.595 301.42 667.345 300.09 669.025 298.13H669.095L669.235 301H670.145V284.27H669.095V296.8C666.995 299.32 665.455 300.44 663.355 300.44C660.485 300.44 659.295 298.62 659.295 294.91V284.27H658.245V295.05ZM676.879 301H677.929V289.38C679.259 286.09 681.079 284.9 682.619 284.9C683.249 284.9 683.529 284.97 684.089 285.18L684.369 284.2C683.809 283.92 683.319 283.85 682.759 283.85C680.729 283.85 679.119 285.39 677.999 287.42H677.929L677.789 284.27H676.879V301ZM687.577 301H688.627V288.19C690.587 285.95 692.337 284.83 693.947 284.83C696.677 284.83 697.937 286.65 697.937 290.36V301H698.987V288.19C700.947 285.95 702.627 284.83 704.307 284.83C707.037 284.83 708.297 286.65 708.297 290.36V301H709.347V290.22C709.347 285.88 707.667 283.85 704.377 283.85C702.487 283.85 700.597 285.18 698.637 287.35C698.077 285.25 696.747 283.85 694.017 283.85C692.197 283.85 690.237 285.18 688.697 286.93H688.627L688.487 284.27H687.577V301ZM714.306 292.67C714.306 298.13 717.736 301.42 721.936 301.42C724.456 301.42 725.856 300.58 727.116 299.81L726.626 298.9C725.366 299.81 723.896 300.44 722.006 300.44C718.016 300.44 715.426 297.15 715.426 292.67H727.746C727.816 292.25 727.816 291.9 727.816 291.55C727.816 286.58 725.366 283.85 721.516 283.85C717.806 283.85 714.306 287.21 714.306 292.67ZM715.426 291.76C715.776 287.49 718.506 284.83 721.516 284.83C724.666 284.83 726.766 287.14 726.766 291.76H715.426ZM732.498 296.59C732.498 299.46 733.338 301.42 736.418 301.42C736.978 301.42 738.028 301.14 739.008 300.79L738.658 299.88C738.028 300.16 737.118 300.44 736.488 300.44C734.038 300.44 733.548 298.9 733.548 296.73V285.25H738.518V284.27H733.548V279.37H732.638L732.498 284.27L729.838 284.41V285.25H732.498V296.59ZM749.648 301H750.698V285.81C750.698 283.64 750.628 281.68 750.558 279.51H750.698L753.358 284.06L763.578 301H764.768V277.9H763.718V292.88C763.718 295.05 763.788 297.15 763.858 299.39H763.718L761.058 294.84L750.838 277.9H749.648V301ZM770.018 292.67C770.018 298.13 773.448 301.42 777.648 301.42C780.168 301.42 781.568 300.58 782.828 299.81L782.338 298.9C781.078 299.81 779.608 300.44 777.718 300.44C773.728 300.44 771.138 297.15 771.138 292.67H783.458C783.528 292.25 783.528 291.9 783.528 291.55C783.528 286.58 781.078 283.85 777.228 283.85C773.518 283.85 770.018 287.21 770.018 292.67ZM771.138 291.76C771.488 287.49 774.218 284.83 777.228 284.83C780.378 284.83 782.478 287.14 782.478 291.76H771.138ZM785.332 301H786.452L789.532 296.17C790.232 295.12 790.862 294.07 791.562 293.09H791.702C792.402 294.07 793.102 295.12 793.732 296.17L796.882 301H798.072L792.332 292.32L797.582 284.27H796.462L793.662 288.75C793.032 289.66 792.472 290.57 791.842 291.48H791.702C791.072 290.57 790.442 289.66 789.882 288.75L787.012 284.27H785.822L791.072 292.25L785.332 301ZM802.258 296.59C802.258 299.46 803.098 301.42 806.178 301.42C806.738 301.42 807.788 301.14 808.768 300.79L808.418 299.88C807.788 300.16 806.878 300.44 806.248 300.44C803.798 300.44 803.308 298.9 803.308 296.73V285.25H808.278V284.27H803.308V279.37H802.398L802.258 284.27L799.598 284.41V285.25H802.258V296.59ZM812.276 300.09C812.276 300.93 812.906 301.42 813.536 301.42C814.166 301.42 814.796 300.93 814.796 300.09C814.796 299.18 814.166 298.69 813.536 298.69C812.906 298.69 812.276 299.18 812.276 300.09ZM820.673 304.43C820.673 306.6 820.323 308.21 818.363 308.21C817.663 308.21 816.963 308 816.543 307.86L816.263 308.77C816.753 308.98 817.593 309.19 818.293 309.19C820.603 309.19 821.723 307.79 821.723 304.57V284.27H820.673V304.43ZM821.233 280C821.863 280 822.423 279.51 822.423 278.81C822.423 278.04 821.863 277.62 821.233 277.62C820.603 277.62 820.043 278.04 820.043 278.81C820.043 279.51 820.603 280 821.233 280ZM826.262 299.11C827.732 300.37 829.832 301.42 832.352 301.42C835.852 301.42 837.812 299.25 837.812 296.8C837.812 293.51 834.872 292.705 832.212 291.69C830.182 290.92 828.152 290.08 828.152 288.12C828.152 286.475 829.412 284.83 832.212 284.83C833.962 284.83 835.152 285.53 836.272 286.37L836.902 285.53C835.712 284.55 833.962 283.85 832.282 283.85C828.852 283.85 827.032 285.88 827.032 288.19C827.032 291.06 829.902 292.04 832.492 292.95C834.452 293.65 836.692 294.63 836.692 296.87C836.692 298.76 835.222 300.44 832.422 300.44C829.902 300.44 828.362 299.46 826.962 298.27L826.262 299.11ZM847.214 299.11C848.684 300.37 850.784 301.42 853.304 301.42C856.804 301.42 858.764 299.25 858.764 296.8C858.764 293.51 855.824 292.705 853.164 291.69C851.134 290.92 849.104 290.08 849.104 288.12C849.104 286.475 850.364 284.83 853.164 284.83C854.914 284.83 856.104 285.53 857.224 286.37L857.854 285.53C856.664 284.55 854.914 283.85 853.234 283.85C849.804 283.85 847.984 285.88 847.984 288.19C847.984 291.06 850.854 292.04 853.444 292.95C855.404 293.65 857.644 294.63 857.644 296.87C857.644 298.76 856.174 300.44 853.374 300.44C850.854 300.44 849.314 299.46 847.914 298.27L847.214 299.11ZM863.748 296.59C863.748 299.46 864.588 301.42 867.668 301.42C868.228 301.42 869.278 301.14 870.258 300.79L869.908 299.88C869.278 300.16 868.368 300.44 867.738 300.44C865.288 300.44 864.798 298.9 864.798 296.73V285.25H869.768V284.27H864.798V279.37H863.888L863.748 284.27L861.088 284.41V285.25H863.748V296.59ZM872.193 296.905C872.193 300.09 874.433 301.42 877.023 301.42C879.263 301.42 881.363 300.16 883.113 298.76H883.183L883.323 301H884.233V290.15C884.233 286.79 883.043 283.85 879.123 283.85C876.393 283.85 874.083 285.25 873.033 286.02L873.593 286.86C874.643 286.02 876.673 284.83 879.053 284.83C882.553 284.83 883.253 287.84 883.183 290.57C875.623 291.41 872.193 293.16 872.193 296.905ZM873.313 296.87C873.313 294 875.833 292.32 883.183 291.48V297.57C880.943 299.46 879.123 300.44 877.093 300.44C875.063 300.44 873.313 299.46 873.313 296.87ZM890.468 301H891.518V289.38C892.848 286.09 894.668 284.9 896.208 284.9C896.838 284.9 897.118 284.97 897.678 285.18L897.958 284.2C897.398 283.92 896.908 283.85 896.348 283.85C894.318 283.85 892.708 285.39 891.588 287.42H891.518L891.378 284.27H890.468V301ZM901.516 296.59C901.516 299.46 902.356 301.42 905.436 301.42C905.996 301.42 907.046 301.14 908.026 300.79L907.676 299.88C907.046 300.16 906.136 300.44 905.506 300.44C903.056 300.44 902.566 298.9 902.566 296.73V285.25H907.536V284.27H902.566V279.37H901.656L901.516 284.27L898.856 284.41V285.25H901.516V296.59ZM909.916 292.67C909.916 298.13 913.346 301.42 917.546 301.42C920.066 301.42 921.466 300.58 922.726 299.81L922.236 298.9C920.976 299.81 919.506 300.44 917.616 300.44C913.626 300.44 911.036 297.15 911.036 292.67H923.356C923.426 292.25 923.426 291.9 923.426 291.55C923.426 286.58 920.976 283.85 917.126 283.85C913.416 283.85 909.916 287.21 909.916 292.67ZM911.036 291.76C911.386 287.49 914.116 284.83 917.126 284.83C920.276 284.83 922.376 287.14 922.376 291.76H911.036ZM928.1 301H929.15V289.38C930.48 286.09 932.3 284.9 933.84 284.9C934.47 284.9 934.75 284.97 935.31 285.18L935.59 284.2C935.03 283.92 934.54 283.85 933.98 283.85C931.95 283.85 930.34 285.39 929.22 287.42H929.15L929.01 284.27H928.1V301ZM950.076 297.08H951.196V289.94H957.706V288.96H951.196V281.82H950.076V288.96H943.566V289.94H950.076V297.08ZM969.184 301H970.094L970.234 299.46H970.304C971.914 300.65 973.804 301.42 975.414 301.42C979.404 301.42 982.834 298.06 982.834 292.39C982.834 287.21 980.664 283.85 976.114 283.85C974.014 283.85 971.914 285.11 970.164 286.58L970.234 283.22V275.73H969.184V301ZM970.234 298.13V287.77C972.334 285.88 974.294 284.83 976.044 284.83C980.174 284.83 981.714 288.12 981.714 292.39C981.714 297.08 979.124 300.44 975.484 300.44C974.154 300.44 972.194 299.81 970.234 298.13ZM986.615 292.67C986.615 298.2 990.045 301.42 994.035 301.42C998.025 301.42 1001.46 298.2 1001.46 292.67C1001.46 287.07 998.025 283.85 994.035 283.85C990.045 283.85 986.615 287.07 986.615 292.67ZM987.735 292.67C987.735 288.05 990.465 284.83 994.035 284.83C997.605 284.83 1000.34 288.05 1000.34 292.67C1000.34 297.29 997.605 300.44 994.035 300.44C990.465 300.44 987.735 297.29 987.735 292.67ZM1007.27 280C1007.9 280 1008.46 279.51 1008.46 278.81C1008.46 278.04 1007.9 277.62 1007.27 277.62C1006.64 277.62 1006.08 278.04 1006.08 278.81C1006.08 279.51 1006.64 280 1007.27 280ZM1006.71 301H1007.76V284.27H1006.71V301ZM1014.47 299.18C1014.47 300.79 1015.1 301.42 1016.15 301.42C1016.57 301.42 1016.78 301.35 1017.06 301.28L1016.85 300.37C1016.5 300.44 1016.36 300.44 1016.22 300.44C1015.8 300.44 1015.52 300.09 1015.52 299.39V275.73H1014.47V299.18ZM1021.07 292.67C1021.07 298.13 1024.5 301.42 1028.7 301.42C1031.22 301.42 1032.62 300.58 1033.88 299.81L1033.39 298.9C1032.13 299.81 1030.66 300.44 1028.77 300.44C1024.78 300.44 1022.19 297.15 1022.19 292.67H1034.51C1034.58 292.25 1034.58 291.9 1034.58 291.55C1034.58 286.58 1032.13 283.85 1028.28 283.85C1024.57 283.85 1021.07 287.21 1021.07 292.67ZM1022.19 291.76C1022.54 287.49 1025.27 284.83 1028.28 284.83C1031.43 284.83 1033.53 287.14 1033.53 291.76H1022.19ZM1039.25 301H1040.3V289.38C1041.63 286.09 1043.45 284.9 1044.99 284.9C1045.62 284.9 1045.9 284.97 1046.46 285.18L1046.74 284.2C1046.18 283.92 1045.69 283.85 1045.13 283.85C1043.1 283.85 1041.49 285.39 1040.37 287.42H1040.3L1040.16 284.27H1039.25V301ZM1051 299.32C1052.82 300.65 1054.57 301.42 1056.18 301.42C1060.17 301.42 1063.6 298.06 1063.6 292.39C1063.6 287.21 1061.43 283.85 1056.88 283.85C1054.78 283.85 1052.75 285.11 1051.07 286.44H1051L1050.86 284.27H1049.95V308.77H1051V302.47V299.32ZM1051 298.13V287.77C1053.17 285.88 1055.06 284.83 1056.81 284.83C1060.94 284.83 1062.48 288.12 1062.48 292.39C1062.48 297.08 1059.89 300.44 1056.25 300.44C1054.92 300.44 1053.03 299.81 1051 298.13ZM1068.85 299.18C1068.85 300.79 1069.48 301.42 1070.53 301.42C1070.95 301.42 1071.16 301.35 1071.44 301.28L1071.23 300.37C1070.88 300.44 1070.74 300.44 1070.6 300.44C1070.18 300.44 1069.9 300.09 1069.9 299.39V275.73H1068.85V299.18ZM1075.94 296.905C1075.94 300.09 1078.18 301.42 1080.77 301.42C1083.01 301.42 1085.11 300.16 1086.86 298.76H1086.93L1087.07 301H1087.98V290.15C1087.98 286.79 1086.79 283.85 1082.87 283.85C1080.14 283.85 1077.83 285.25 1076.78 286.02L1077.34 286.86C1078.39 286.02 1080.42 284.83 1082.8 284.83C1086.3 284.83 1087 287.84 1086.93 290.57C1079.37 291.41 1075.94 293.16 1075.94 296.905ZM1077.06 296.87C1077.06 294 1079.58 292.32 1086.93 291.48V297.57C1084.69 299.46 1082.87 300.44 1080.84 300.44C1078.81 300.44 1077.06 299.46 1077.06 296.87ZM1094.56 296.59C1094.56 299.46 1095.4 301.42 1098.48 301.42C1099.04 301.42 1100.09 301.14 1101.07 300.79L1100.72 299.88C1100.09 300.16 1099.18 300.44 1098.55 300.44C1096.1 300.44 1095.61 298.9 1095.61 296.73V285.25H1100.58V284.27H1095.61V279.37H1094.7L1094.56 284.27L1091.9 284.41V285.25H1094.56V296.59ZM1102.96 292.67C1102.96 298.13 1106.39 301.42 1110.59 301.42C1113.11 301.42 1114.51 300.58 1115.77 299.81L1115.28 298.9C1114.02 299.81 1112.55 300.44 1110.66 300.44C1106.67 300.44 1104.08 297.15 1104.08 292.67H1116.4C1116.47 292.25 1116.47 291.9 1116.47 291.55C1116.47 286.58 1114.02 283.85 1110.17 283.85C1106.46 283.85 1102.96 287.21 1102.96 292.67ZM1104.08 291.76C1104.43 287.49 1107.16 284.83 1110.17 284.83C1113.32 284.83 1115.42 287.14 1115.42 291.76H1104.08Z" fill="white"/>
<g filter="url(#filter0_d)">
<path d="M589.39 142.748C591.056 142.827 593.238 142.907 595.935 142.986C598.632 143.065 601.29 143.105 603.908 143.105C607.637 143.105 611.207 143.065 614.618 142.986C618.029 142.907 620.449 142.867 621.877 142.867C630.207 142.867 636.474 144.612 640.679 148.103C644.884 151.594 646.986 156.076 646.986 161.55C646.986 164.327 646.391 167.064 645.201 169.761C644.09 172.379 642.186 174.799 639.489 177.02C636.871 179.162 633.341 180.907 628.898 182.256V182.494C635.165 183.287 640.044 184.795 643.535 187.016C647.105 189.158 649.604 191.697 651.032 194.632C652.46 197.567 653.174 200.661 653.174 203.914C653.174 210.657 650.635 216.211 645.558 220.574C640.56 224.858 633.579 227 624.614 227C622.869 227 620.251 226.96 616.76 226.881C613.269 226.722 609.065 226.643 604.146 226.643C601.369 226.643 598.632 226.683 595.935 226.762C593.238 226.762 591.056 226.841 589.39 227V224.62C592.087 224.461 594.11 224.144 595.459 223.668C596.887 223.192 597.839 222.24 598.315 220.812C598.791 219.384 599.029 217.242 599.029 214.386V155.362C599.029 152.427 598.791 150.285 598.315 148.936C597.839 147.508 596.887 146.556 595.459 146.08C594.11 145.525 592.087 145.207 589.39 145.128V142.748ZM618.902 145.128C615.253 145.128 612.873 145.802 611.762 147.151C610.651 148.5 610.096 151.237 610.096 155.362V214.386C610.096 218.511 610.651 221.209 611.762 222.478C612.952 223.668 615.372 224.263 619.021 224.263C626.796 224.263 632.428 222.478 635.919 218.908C639.489 215.259 641.274 210.102 641.274 203.438C641.274 197.329 639.608 192.609 636.276 189.277C633.023 185.945 627.629 184.279 620.092 184.279H607.835C607.835 184.279 607.835 183.962 607.835 183.327C607.835 182.613 607.835 182.256 607.835 182.256H618.069C622.75 182.256 626.359 181.383 628.898 179.638C631.437 177.813 633.182 175.433 634.134 172.498C635.086 169.483 635.562 166.27 635.562 162.859C635.562 156.988 634.253 152.585 631.635 149.65C629.096 146.635 624.852 145.128 618.902 145.128ZM696.158 142.153L725.194 217.004C726.384 220.019 727.733 222.042 729.24 223.073C730.748 224.025 732.136 224.541 733.405 224.62V227C731.819 226.841 729.875 226.762 727.574 226.762C725.274 226.683 722.973 226.643 720.672 226.643C717.578 226.643 714.683 226.683 711.985 226.762C709.288 226.762 707.106 226.841 705.44 227V224.62C709.486 224.461 712.065 223.787 713.175 222.597C714.286 221.328 714.048 218.67 712.461 214.624L690.327 155.481L692.231 153.934L671.525 207.722C669.859 212.006 669.066 215.378 669.145 217.837C669.225 220.217 670.137 221.923 671.882 222.954C673.628 223.985 676.166 224.541 679.498 224.62V227C677.277 226.841 674.937 226.762 672.477 226.762C670.097 226.683 667.876 226.643 665.813 226.643C663.83 226.643 662.124 226.683 660.696 226.762C659.348 226.762 658.078 226.841 656.888 227V224.62C658.475 224.223 660.101 223.311 661.767 221.883C663.433 220.376 664.941 217.837 666.289 214.267L694.254 142.153C694.572 142.153 694.889 142.153 695.206 142.153C695.524 142.153 695.841 142.153 696.158 142.153ZM710.676 192.728V195.108H675.214L676.404 192.728H710.676ZM810.083 142.748V145.128C807.386 145.207 805.323 145.604 803.895 146.318C802.546 147.032 801.634 148.182 801.158 149.769C800.682 151.356 800.444 153.617 800.444 156.552V227.595C799.968 227.595 799.492 227.595 799.016 227.595C798.619 227.595 798.183 227.595 797.707 227.595L747.727 150.364V213.196C747.727 216.052 747.965 218.313 748.441 219.979C748.996 221.566 750.028 222.716 751.535 223.43C753.122 224.065 755.462 224.461 758.556 224.62V227C757.128 226.841 755.264 226.762 752.963 226.762C750.662 226.683 748.481 226.643 746.418 226.643C744.435 226.643 742.412 226.683 740.349 226.762C738.366 226.762 736.7 226.841 735.351 227V224.62C738.048 224.461 740.071 224.065 741.42 223.43C742.848 222.716 743.8 221.566 744.276 219.979C744.752 218.313 744.99 216.052 744.99 213.196V155.362C744.99 152.427 744.752 150.285 744.276 148.936C743.8 147.508 742.848 146.556 741.42 146.08C740.071 145.525 738.048 145.207 735.351 145.128V142.748C736.7 142.827 738.366 142.907 740.349 142.986C742.412 143.065 744.435 143.105 746.418 143.105C748.163 143.105 749.829 143.065 751.416 142.986C753.003 142.907 754.431 142.827 755.7 142.748L797.707 207.484V156.552C797.707 153.617 797.429 151.356 796.874 149.769C796.398 148.182 795.367 147.032 793.78 146.318C792.273 145.604 789.972 145.207 786.878 145.128V142.748C788.306 142.827 790.17 142.907 792.471 142.986C794.851 143.065 797.033 143.105 799.016 143.105C801.079 143.105 803.102 143.065 805.085 142.986C807.148 142.907 808.814 142.827 810.083 142.748ZM902.572 229.737L904.357 230.451C903.405 233.704 902.294 236.401 901.025 238.543C899.835 240.764 898.447 242.589 896.86 244.017C895.353 245.366 893.29 246.595 890.672 247.706C888.133 248.817 884.841 249.372 880.795 249.372C876.59 249.372 872.505 248.658 868.538 247.23C864.651 245.881 860.605 244.215 856.4 242.232C852.195 240.249 847.554 238.424 842.477 236.758C841.922 236.599 841.406 236.441 840.93 236.282C840.454 236.123 840.018 236.004 839.621 235.925C838.114 236.48 836.487 236.917 834.742 237.234C832.997 237.551 831.331 237.71 829.744 237.71C828.157 237.71 826.848 237.512 825.817 237.115C824.786 236.718 824.27 236.123 824.27 235.33C824.27 233.664 826.412 232.831 830.696 232.831C833.473 232.831 836.448 233.148 839.621 233.783C842.477 232.99 844.936 232.077 846.999 231.046C849.062 230.094 851.164 229.182 853.306 228.309C855.527 227.436 858.185 226.881 861.279 226.643L861.398 228.547C859.018 228.785 856.955 229.221 855.21 229.856C853.465 230.57 851.719 231.324 849.974 232.117C848.229 232.91 846.166 233.664 843.786 234.378C847.753 235.171 852.076 236.004 856.757 236.877C861.438 237.75 865.96 238.503 870.323 239.138C874.686 239.773 878.415 240.09 881.509 240.09C887.221 240.09 891.703 239.257 894.956 237.591C898.288 235.925 900.827 233.307 902.572 229.737ZM857.709 141.082C865.246 141.082 871.83 142.788 877.463 146.199C883.175 149.61 887.578 154.529 890.672 160.955C893.845 167.302 895.432 175.037 895.432 184.16C895.432 193.045 893.806 200.82 890.553 207.484C887.38 214.148 882.937 219.344 877.225 223.073C871.513 226.802 864.968 228.666 857.59 228.666C850.053 228.666 843.429 226.96 837.717 223.549C832.084 220.138 827.681 215.219 824.508 208.793C821.414 202.367 819.867 194.632 819.867 185.588C819.867 176.703 821.493 168.928 824.746 162.264C827.999 155.6 832.441 150.404 838.074 146.675C843.786 142.946 850.331 141.082 857.709 141.082ZM857.233 143.224C852.076 143.224 847.594 145.009 843.786 148.579C839.978 152.149 837.003 157.068 834.861 163.335C832.798 169.602 831.767 176.861 831.767 185.112C831.767 193.521 832.917 200.86 835.218 207.127C837.598 213.315 840.771 218.115 844.738 221.526C848.784 224.858 853.227 226.524 858.066 226.524C863.223 226.524 867.705 224.739 871.513 221.169C875.321 217.599 878.256 212.68 880.319 206.413C882.461 200.066 883.532 192.807 883.532 184.636C883.532 176.147 882.342 168.809 879.962 162.621C877.661 156.433 874.528 151.673 870.561 148.341C866.594 144.93 862.152 143.224 857.233 143.224ZM979.012 142.748V145.128C976.315 145.207 974.252 145.604 972.824 146.318C971.475 147.032 970.563 148.182 970.087 149.769C969.611 151.356 969.373 153.617 969.373 156.552V192.371C969.373 197.924 969.016 202.764 968.302 206.889C967.588 211.014 966.319 214.584 964.494 217.599C962.511 220.931 959.615 223.628 955.807 225.691C951.999 227.674 947.636 228.666 942.717 228.666C938.909 228.666 935.26 228.19 931.769 227.238C928.358 226.365 925.343 224.699 922.725 222.24C920.424 220.019 918.6 217.678 917.251 215.219C915.982 212.76 915.109 209.745 914.633 206.175C914.157 202.605 913.919 198.123 913.919 192.728V155.362C913.919 152.427 913.681 150.285 913.205 148.936C912.729 147.508 911.777 146.556 910.349 146.08C909 145.525 906.977 145.207 904.28 145.128V142.748C905.946 142.827 908.128 142.907 910.825 142.986C913.522 143.065 916.418 143.105 919.512 143.105C922.289 143.105 925.026 143.065 927.723 142.986C930.5 142.907 932.8 142.827 934.625 142.748V145.128C931.928 145.207 929.865 145.525 928.437 146.08C927.088 146.556 926.176 147.508 925.7 148.936C925.224 150.285 924.986 152.427 924.986 155.362V194.751C924.986 200.146 925.383 205.104 926.176 209.626C926.969 214.148 928.675 217.758 931.293 220.455C933.99 223.152 938.155 224.501 943.788 224.501C949.817 224.501 954.458 223.192 957.711 220.574C961.043 217.877 963.344 214.188 964.613 209.507C965.962 204.826 966.636 199.551 966.636 193.68V156.552C966.636 153.617 966.279 151.356 965.565 149.769C964.93 148.182 963.82 147.032 962.233 146.318C960.646 145.604 958.504 145.207 955.807 145.128V142.748C957.235 142.827 959.099 142.907 961.4 142.986C963.78 143.065 965.962 143.105 967.945 143.105C970.008 143.105 972.031 143.065 974.014 142.986C976.077 142.907 977.743 142.827 979.012 142.748ZM1046.56 142.748C1046.24 145.525 1046.01 148.222 1045.85 150.84C1045.77 153.458 1045.73 155.441 1045.73 156.79C1045.73 158.218 1045.77 159.606 1045.85 160.955C1045.93 162.224 1046.01 163.295 1046.09 164.168H1043.35C1042.87 159.487 1042.2 155.798 1041.33 153.101C1040.45 150.324 1038.95 148.381 1036.8 147.27C1034.74 146.08 1031.61 145.485 1027.4 145.485H1017.53C1014.83 145.485 1012.77 145.723 1011.34 146.199C1009.99 146.596 1009.08 147.508 1008.6 148.936C1008.12 150.285 1007.89 152.427 1007.89 155.362V214.386C1007.89 217.242 1008.12 219.384 1008.6 220.812C1009.08 222.24 1009.99 223.192 1011.34 223.668C1012.77 224.065 1014.83 224.263 1017.53 224.263H1026.21C1031.21 224.263 1034.98 223.589 1037.52 222.24C1040.14 220.891 1042 218.71 1043.11 215.695C1044.3 212.601 1045.17 208.436 1045.73 203.2H1048.47C1048.23 205.342 1048.11 208.198 1048.11 211.768C1048.11 213.275 1048.15 215.457 1048.23 218.313C1048.39 221.09 1048.62 223.985 1048.94 227C1044.9 226.841 1040.33 226.762 1035.26 226.762C1030.18 226.683 1025.66 226.643 1021.69 226.643C1019.31 226.643 1016.14 226.643 1012.17 226.643C1008.28 226.643 1004.12 226.683 999.675 226.762C995.232 226.762 991.067 226.841 987.18 227V224.62C989.877 224.461 991.9 224.144 993.249 223.668C994.677 223.192 995.629 222.24 996.105 220.812C996.581 219.384 996.819 217.242 996.819 214.386V155.362C996.819 152.427 996.581 150.285 996.105 148.936C995.629 147.508 994.677 146.556 993.249 146.08C991.9 145.525 989.877 145.207 987.18 145.128V142.748C991.067 142.827 995.232 142.907 999.675 142.986C1004.12 143.065 1008.28 143.105 1012.17 143.105C1016.14 143.105 1019.31 143.105 1021.69 143.105C1025.34 143.105 1029.46 143.105 1034.07 143.105C1038.75 143.026 1042.91 142.907 1046.56 142.748ZM1026.09 183.446C1026.09 183.446 1026.09 183.843 1026.09 184.636C1026.09 185.429 1026.09 185.826 1026.09 185.826H1004.32C1004.32 185.826 1004.32 185.429 1004.32 184.636C1004.32 183.843 1004.32 183.446 1004.32 183.446H1026.09ZM1029.54 167.738C1029.23 172.26 1029.07 175.711 1029.07 178.091C1029.15 180.471 1029.19 182.653 1029.19 184.636C1029.19 186.619 1029.23 188.801 1029.31 191.181C1029.39 193.561 1029.58 197.012 1029.9 201.534H1027.16C1026.85 198.995 1026.45 196.536 1025.97 194.156C1025.58 191.697 1024.63 189.713 1023.12 188.206C1021.69 186.619 1019.23 185.826 1015.74 185.826V183.446C1019.23 183.446 1021.65 182.534 1023 180.709C1024.43 178.884 1025.34 176.742 1025.74 174.283C1026.13 171.824 1026.49 169.642 1026.81 167.738H1029.54ZM1125.15 142.748C1124.83 145.763 1124.59 148.698 1124.43 151.554C1124.35 154.331 1124.31 156.473 1124.31 157.98C1124.31 159.884 1124.35 161.669 1124.43 163.335C1124.51 165.001 1124.59 166.469 1124.67 167.738H1121.93C1121.38 162.185 1120.62 157.821 1119.67 154.648C1118.72 151.395 1117.05 149.055 1114.67 147.627C1112.29 146.199 1108.6 145.485 1103.61 145.485H1097.18V213.196C1097.18 216.369 1097.46 218.749 1098.01 220.336C1098.65 221.923 1099.84 222.994 1101.58 223.549C1103.33 224.104 1105.87 224.461 1109.2 224.62V227C1107.14 226.841 1104.52 226.762 1101.35 226.762C1098.17 226.683 1094.96 226.643 1091.71 226.643C1088.14 226.643 1084.77 226.683 1081.59 226.762C1078.5 226.762 1076 226.841 1074.09 227V224.62C1077.43 224.461 1079.97 224.104 1081.71 223.549C1083.46 222.994 1084.61 221.923 1085.16 220.336C1085.8 218.749 1086.11 216.369 1086.11 213.196V145.485H1079.69C1074.77 145.485 1071.08 146.199 1068.62 147.627C1066.24 149.055 1064.57 151.395 1063.62 154.648C1062.67 157.821 1061.92 162.185 1061.36 167.738H1058.62C1058.78 166.469 1058.86 165.001 1058.86 163.335C1058.94 161.669 1058.98 159.884 1058.98 157.98C1058.98 156.473 1058.9 154.331 1058.74 151.554C1058.66 148.698 1058.47 145.763 1058.15 142.748C1061.48 142.827 1065.09 142.907 1068.98 142.986C1072.94 143.065 1076.91 143.105 1080.88 143.105C1084.84 143.105 1088.45 143.105 1091.71 143.105C1094.96 143.105 1098.53 143.105 1102.42 143.105C1106.38 143.105 1110.35 143.065 1114.32 142.986C1118.28 142.907 1121.89 142.827 1125.15 142.748Z" fill="#E9C46A"/>
</g>
<defs>
<filter id="filter0_d" x="579.39" y="135.082" width="555.756" height="128.29" filterUnits="userSpaceOnUse" color-interpolation-filters="sRGB">
<feFlood flood-opacity="0" result="BackgroundImageFix"/>
<feColorMatrix in="SourceAlpha" type="matrix" values="0 0 0 0 0 0 0 0 0 0 0 0 0 0 0 0 0 0 127 0" result="hardAlpha"/>
<feOffset dy="4"/>
<feGaussianBlur stdDeviation="5"/>
<feComposite in2="hardAlpha" operator="out"/>
<feColorMatrix type="matrix" values="0 0 0 0 0 0 0 0 0 0 0 0 0 0 0 0 0 0 0.6 0"/>
<feBlend mode="normal" in2="BackgroundImageFix" result="effect1_dropShadow"/>
<feBlend mode="normal" in="SourceGraphic" in2="effect1_dropShadow" result="shape"/>
</filter>
</defs>
</svg>
