<svg width="512" height="512" viewBox="0 0 512 512" fill="none" xmlns="http://www.w3.org/2000/svg">
<rect width="512" height="512" rx="256" fill="#E9C46A"/>
<g clip-path="url(#clip0)">
<circle cx="251.933" cy="257" r="200" fill="#323232"/>
</g>
<path fill-rule="evenodd" clip-rule="evenodd" d="M134.266 409.224L130.73 320.395L170.77 318.797C187.874 321.148 205.19 329.682 222.596 339.662L253.691 338.426C267.803 338.727 275.751 352.658 262.424 362.548C251.848 370.96 237.433 371.081 222.626 370.327C212.442 370.237 212.533 383.896 223.14 383.504C226.827 383.654 230.815 382.629 234.291 382.478C252.694 381.725 267.713 377.624 276.416 362.729L280.646 351.693L326.005 326.968C348.85 318.435 364.232 339.933 347.853 357.422C315.308 383.081 283.789 406.48 249.279 424.028C224.379 440.522 198.814 441.034 172.704 427.074L134.266 409.224ZM112.871 273.87H390.583C392.638 273.87 394.33 275.588 394.33 277.608V293.921C394.33 295.941 392.638 297.66 390.583 297.66H112.871C110.816 297.66 109.124 295.971 109.124 293.921V277.608C109.124 275.558 110.816 273.87 112.871 273.87ZM262.515 117.861C338.546 123.922 402.58 187.694 393.121 262.773H110.363C101.025 187.212 165.301 123.349 241.876 117.771V105.529H229.788C227.673 105.529 225.92 103.78 225.92 101.669V87.8595C225.92 85.7488 227.642 84 229.788 84H274.27C276.386 84 278.138 85.7488 278.138 87.8595V101.669C278.138 103.78 276.386 105.529 274.27 105.529H262.515V117.861ZM23 317.349L118.341 312.344L122.571 418.631L56 395L23 317.349Z" fill="#E9C46A"/>
<defs>
<clipPath id="clip0">
<rect width="400" height="400" fill="white" transform="translate(52 56)"/>
</clipPath>
</defs>
</svg>
