<svg width="1280" height="640" viewBox="0 0 1280 640" fill="none" xmlns="http://www.w3.org/2000/svg">
<rect width="1280" height="640" fill="#323232"/>
<g clip-path="url(#clip0)">
<circle cx="244.933" cy="320" r="200" fill="#E9C46A"/>
</g>
<path fill-rule="evenodd" clip-rule="evenodd" d="M127.266 472.224L123.73 383.395L163.77 381.797C180.874 384.148 198.19 392.682 215.596 402.662L246.691 401.426C260.803 401.727 268.751 415.658 255.424 425.548C244.848 433.96 230.433 434.081 215.626 433.327C205.442 433.237 205.533 446.896 216.14 446.504C219.827 446.654 223.815 445.629 227.291 445.478C245.694 444.725 260.713 440.624 269.416 425.729L273.646 414.693L319.005 389.968C341.85 381.435 357.232 402.933 340.853 420.422C308.307 446.081 276.789 469.48 242.279 487.028C217.379 503.522 191.814 504.034 165.704 490.074L127.266 472.224ZM105.871 336.87H383.583C385.638 336.87 387.33 338.588 387.33 340.608V356.921C387.33 358.941 385.638 360.66 383.583 360.66H105.871C103.816 360.66 102.124 358.971 102.124 356.921V340.608C102.124 338.558 103.816 336.87 105.871 336.87ZM255.515 180.861C331.546 186.922 395.58 250.694 386.121 325.773H103.363C94.0252 250.212 158.301 186.349 234.876 180.771V168.529H222.788C220.673 168.529 218.92 166.78 218.92 164.669V150.86C218.92 148.749 220.642 147 222.788 147H267.27C269.386 147 271.138 148.749 271.138 150.86V164.669C271.138 166.78 269.386 168.529 267.27 168.529H255.515V180.861ZM16 380.349L111.341 375.344L115.571 481.631L20.2306 486.606L16 380.349Z" fill="#323232"/>
<path d="M560.234 513H562.263V504.372C562.263 501.481 563.822 499.468 566.516 499.468C569.165 499.468 570.225 501.193 570.225 503.888V513H572.253V503.418C572.192 500.149 570.497 497.636 566.97 497.636C564.972 497.636 563.216 498.605 562.263 500.452V491.612H560.234V513ZM581.88 513.227C582.728 513.227 583.545 513.076 584.014 512.924L583.984 511.093C583.56 511.259 582.879 511.456 582.213 511.456C580.608 511.456 579.761 510.578 579.761 508.444V499.574H583.999V497.878H579.761V492.036L577.793 493.504V497.878H575.25V499.574H577.763V508.762C577.763 511.653 579.201 513.227 581.88 513.227ZM592.506 513.227C593.354 513.227 594.171 513.076 594.64 512.924L594.61 511.093C594.186 511.259 593.505 511.456 592.839 511.456C591.234 511.456 590.387 510.578 590.387 508.444V499.574H594.625V497.878H590.387V492.036L588.419 493.504V497.878H585.876V499.574H588.389V508.762C588.389 511.653 589.827 513.227 592.506 513.227ZM598.349 519.267H600.407V509.67C601.361 511.88 603.404 513.227 605.811 513.227C609.898 513.227 612.244 509.746 612.244 505.447C612.244 501.163 609.898 497.636 605.841 497.636C603.45 497.636 601.361 498.983 600.407 501.224V497.878H598.349V519.267ZM605.372 511.411C602.224 511.411 600.241 508.837 600.241 505.447C600.241 502.056 602.224 499.498 605.372 499.498C608.536 499.498 610.231 502.086 610.231 505.447C610.231 508.792 608.536 511.411 605.372 511.411ZM620.978 513.227C623.93 513.227 626.352 511.698 626.352 508.671C626.352 502.874 617.527 505.295 617.527 501.542C617.527 500.194 618.768 499.256 620.721 499.256C622.567 499.256 623.824 500.27 624.55 501.632L626.094 500.8C625.035 498.802 623.173 497.636 620.781 497.636C617.89 497.636 615.604 499.104 615.604 501.799C615.604 507.263 624.384 504.66 624.384 508.762C624.384 510.351 623.173 511.547 620.887 511.547C618.541 511.547 617.042 510.154 616.467 508.535L614.848 509.246C615.62 511.547 617.996 513.227 620.978 513.227ZM631.634 501.89H633.799V498.56H631.634V501.89ZM631.634 513H633.799V509.67H631.634V513ZM637.825 519.463H639.732L650.676 491.612H648.769L637.825 519.463ZM648.027 519.463H649.935L660.878 491.612H658.971L648.027 519.463ZM669.673 511.002H666.282C664.632 511.002 663.3 510.548 663.27 509.049C663.24 508.353 663.497 507.748 664.269 507.172C665.162 507.732 666.282 508.035 667.523 508.035C670.717 508.035 673.139 506.007 673.139 502.919C673.139 501.935 672.897 501.012 672.443 500.24L674.744 498.242L673.714 496.94L671.398 498.983C670.43 498.136 669.113 497.636 667.539 497.636C664.299 497.636 661.893 499.786 661.893 502.843C661.893 504.13 662.316 505.265 663.058 506.143C661.862 507.021 661.363 508.081 661.393 509.231C661.423 510.79 662.316 511.759 663.391 512.258L661.015 513.893C660.924 514.211 660.878 514.544 660.878 514.907C660.878 518.146 663.875 519.917 668.083 519.917C672.231 519.917 674.471 518.025 674.471 515.119C674.471 512.364 672.503 511.002 669.673 511.002ZM667.569 499.256C669.794 499.256 671.202 500.785 671.202 502.889C671.202 504.962 669.794 506.416 667.554 506.416C665.313 506.416 663.891 504.947 663.891 502.874C663.891 500.8 665.344 499.256 667.569 499.256ZM667.962 518.343C663.83 518.343 662.755 516.572 662.755 514.877V514.453L664.647 512.652C664.875 512.682 665.102 512.697 665.313 512.697H668.901C671.277 512.697 672.549 513.59 672.549 515.286C672.549 517.45 670.581 518.343 667.962 518.343ZM678.255 494.715H680.344V491.612H678.255V494.715ZM678.301 513H680.284V497.878H678.301V513ZM690.319 513.227C691.167 513.227 691.984 513.076 692.454 512.924L692.423 511.093C692 511.259 691.318 511.456 690.652 511.456C689.048 511.456 688.2 510.578 688.2 508.444V499.574H692.438V497.878H688.2V492.036L686.232 493.504V497.878H683.689V499.574H686.202V508.762C686.202 511.653 687.64 513.227 690.319 513.227ZM696.011 513H698.039V504.372C698.039 501.481 699.598 499.468 702.292 499.468C704.941 499.468 706.001 501.193 706.001 503.888V513H708.029V503.418C707.969 500.149 706.273 497.636 702.747 497.636C700.749 497.636 698.993 498.605 698.039 500.452V491.612H696.011V513ZM717.702 513.227C719.7 513.227 721.501 512.273 722.439 510.427V513H724.422V497.878H722.439V506.809C722.439 509.761 720.774 511.365 718.231 511.365C715.749 511.365 714.447 509.746 714.447 506.991V497.878H712.464V507.445C712.525 510.714 714.16 513.227 717.702 513.227ZM737.379 513.227C741.436 513.227 743.782 509.715 743.782 505.417C743.782 501.133 741.436 497.636 737.349 497.636C734.942 497.636 732.899 498.983 731.945 501.208V491.612H729.887V513H731.945V509.655C732.899 511.88 734.988 513.227 737.379 513.227ZM736.91 511.365C733.762 511.365 731.779 508.822 731.779 505.417C731.779 502.041 733.762 499.468 736.91 499.468C740.074 499.468 741.769 502.071 741.769 505.417C741.769 508.777 740.074 511.365 736.91 511.365ZM748.505 513H750.518V509.67H748.505V513ZM762.007 513.227C764.792 513.227 766.987 511.698 767.91 509.064L766.079 508.368C765.473 510.245 763.959 511.411 761.992 511.411C758.722 511.411 757.224 508.58 757.224 505.462C757.224 502.389 758.722 499.468 761.977 499.468C763.914 499.468 765.443 500.648 766.154 502.541L768.062 501.799C766.941 499.074 764.731 497.636 761.977 497.636C757.436 497.636 755.195 501.496 755.195 505.462C755.195 509.746 757.663 513.227 762.007 513.227ZM777.628 513.227C781.942 513.227 784.984 509.746 784.984 505.401C784.984 501.087 781.942 497.636 777.628 497.636C773.329 497.636 770.332 501.087 770.332 505.401C770.332 509.761 773.329 513.227 777.628 513.227ZM777.628 511.486C774.358 511.486 772.406 508.762 772.406 505.401C772.406 502.056 774.358 499.392 777.628 499.392C780.928 499.392 782.911 502.071 782.911 505.401C782.911 508.747 780.928 511.486 777.628 511.486ZM789.117 513H791.115V504.039C791.115 501.405 792.704 499.513 795.232 499.513C797.714 499.513 798.789 501.178 798.789 503.857V513H800.787V504.039C800.787 501.405 802.376 499.513 804.889 499.513C807.462 499.513 808.461 501.269 808.461 504.402V513H810.459V504.16C810.459 500.285 808.885 497.636 805.252 497.636C803.012 497.636 801.15 498.771 800.257 500.981C799.576 498.666 797.82 497.636 795.595 497.636C793.567 497.636 791.872 498.575 791.039 500.512V497.878H789.102L789.117 513ZM812.987 519.463H814.895L825.838 491.612H823.931L812.987 519.463ZM978.79 519.463H980.697L991.641 491.612H989.734L978.79 519.463ZM992.882 513H994.88V504.039C994.88 501.405 996.47 499.513 998.998 499.513C1001.48 499.513 1002.55 501.178 1002.55 503.857V513H1004.55V504.039C1004.55 501.405 1006.14 499.513 1008.65 499.513C1011.23 499.513 1012.23 501.269 1012.23 504.402V513H1014.23V504.16C1014.23 500.285 1012.65 497.636 1009.02 497.636C1006.78 497.636 1004.92 498.771 1004.02 500.981C1003.34 498.666 1001.59 497.636 999.361 497.636C997.333 497.636 995.637 498.575 994.805 500.512V497.878H992.867L992.882 513ZM1024.37 497.636C1021.69 497.636 1019.93 498.726 1018.46 500.754L1019.99 501.875C1021.04 500.315 1022.37 499.407 1024.38 499.407C1027.41 499.407 1028.57 500.921 1028.57 504.115V504.296H1024.22C1020.31 504.296 1017.87 505.538 1017.87 508.61C1017.87 511.517 1020.02 513.227 1023.1 513.227C1025.35 513.227 1027.45 512.122 1028.59 509.927L1028.73 513H1030.39V503.767C1030.39 499.967 1028.24 497.636 1024.37 497.636ZM1023.47 511.517C1021.2 511.517 1019.92 510.396 1019.92 508.671C1019.92 506.854 1021.34 505.78 1024.32 505.78H1028.57V507.324C1027.88 509.806 1026.11 511.517 1023.47 511.517ZM1035.36 494.715H1037.44V491.612H1035.36V494.715ZM1035.4 513H1037.38V497.878H1035.4V513ZM1042.82 513H1044.82V504.054C1044.82 501.118 1046.47 499.498 1049.02 499.498C1051.51 499.498 1052.81 501.133 1052.81 503.888V513H1054.81V503.418C1054.75 500.149 1053.08 497.636 1049.55 497.636C1047.56 497.636 1045.77 498.605 1044.82 500.452V497.878H1042.82V513ZM1059.7 504.357H1067.87V502.798H1059.7V504.357ZM1078.72 513.227C1081.51 513.227 1083.7 511.698 1084.63 509.064L1082.79 508.368C1082.19 510.245 1080.68 511.411 1078.71 511.411C1075.44 511.411 1073.94 508.58 1073.94 505.462C1073.94 502.389 1075.44 499.468 1078.69 499.468C1080.63 499.468 1082.16 500.648 1082.87 502.541L1084.78 501.799C1083.66 499.074 1081.45 497.636 1078.69 497.636C1074.15 497.636 1071.91 501.496 1071.91 505.462C1071.91 509.746 1074.38 513.227 1078.72 513.227ZM1094.34 513.227C1098.66 513.227 1101.7 509.746 1101.7 505.401C1101.7 501.087 1098.66 497.636 1094.34 497.636C1090.04 497.636 1087.05 501.087 1087.05 505.401C1087.05 509.761 1090.04 513.227 1094.34 513.227ZM1094.34 511.486C1091.07 511.486 1089.12 508.762 1089.12 505.401C1089.12 502.056 1091.07 499.392 1094.34 499.392C1097.64 499.392 1099.63 502.071 1099.63 505.401C1099.63 508.747 1097.64 511.486 1094.34 511.486ZM1110.56 513.227C1112.55 513.227 1114.35 512.273 1115.29 510.427V513H1117.28V497.878H1115.29V506.809C1115.29 509.761 1113.63 511.365 1111.08 511.365C1108.6 511.365 1107.3 509.746 1107.3 506.991V497.878H1105.32V507.445C1105.38 510.714 1107.01 513.227 1110.56 513.227ZM1122.71 513H1124.65V505.28C1124.65 501.178 1127.04 499.589 1129.05 499.589C1129.66 499.589 1130.25 499.74 1130.78 500.028L1131.69 498.363C1131.04 497.878 1130.17 497.636 1129.32 497.636C1127.52 497.636 1125.42 498.711 1124.66 501.042V497.878H1122.71V513ZM1138.53 513.227C1141.48 513.227 1143.9 511.698 1143.9 508.671C1143.9 502.874 1135.08 505.295 1135.08 501.542C1135.08 500.194 1136.32 499.256 1138.27 499.256C1140.12 499.256 1141.37 500.27 1142.1 501.632L1143.64 500.8C1142.58 498.802 1140.72 497.636 1138.33 497.636C1135.44 497.636 1133.15 499.104 1133.15 501.799C1133.15 507.263 1141.93 504.66 1141.93 508.762C1141.93 510.351 1140.72 511.547 1138.44 511.547C1136.09 511.547 1134.59 510.154 1134.02 508.535L1132.4 509.246C1133.17 511.547 1135.55 513.227 1138.53 513.227ZM1153.79 513.227C1156.22 513.227 1157.93 512.485 1159.63 510.714L1158.24 509.488C1156.87 510.911 1155.62 511.411 1153.8 511.411C1150.76 511.411 1149 509.352 1148.85 505.977H1159.99C1160.05 505.75 1160.1 505.144 1160.1 504.629C1160.1 501.632 1158.48 497.636 1153.54 497.636C1149.14 497.636 1146.73 501.239 1146.73 505.507C1146.73 509.852 1149.23 513.227 1153.79 513.227ZM1148.85 504.493C1149.11 501.466 1150.77 499.347 1153.53 499.347C1156.53 499.347 1157.89 501.496 1158.07 503.54C1158.11 503.842 1158.11 504.175 1158.1 504.493H1148.85Z" fill="#E5E5E5"/>
<path d="M834.06 513.33C832.63 513.33 831.445 512.93 830.505 512.13C829.575 511.33 829.11 510.05 829.11 508.29V501.72H826.65V498.21H829.11V495.12L833.67 492.69V498.21H836.76V501.72H833.67V507C833.67 507.93 833.785 508.605 834.015 509.025C834.255 509.435 834.69 509.64 835.32 509.64C835.67 509.64 836.15 509.56 836.76 509.4V512.85C835.92 513.17 835.02 513.33 834.06 513.33ZM838.459 498.21H842.989V513H838.459V498.21ZM838.429 492.09H843.049V496.17H838.429V492.09ZM845.323 498.21H849.853V499.98C850.343 499.21 850.943 498.67 851.653 498.36C852.373 498.04 853.123 497.88 853.903 497.88C855.753 497.88 857.138 498.56 858.058 499.92C858.628 499.19 859.278 498.67 860.008 498.36C860.738 498.04 861.493 497.88 862.273 497.88C863.493 497.88 864.518 498.15 865.348 498.69C866.188 499.23 866.808 499.925 867.208 500.775C867.618 501.625 867.823 502.52 867.823 503.46V513H863.293V504.57C863.293 502.73 862.593 501.81 861.193 501.81C860.383 501.81 859.783 502.135 859.393 502.785C859.013 503.435 858.823 504.45 858.823 505.83V513H854.323V504.57C854.323 503.67 854.148 502.985 853.798 502.515C853.458 502.045 852.973 501.81 852.343 501.81C851.493 501.81 850.863 502.14 850.453 502.8C850.053 503.45 849.853 504.46 849.853 505.83V513H845.323V498.21ZM869.97 498.21H874.5V499.98C874.99 499.21 875.59 498.67 876.3 498.36C877.02 498.04 877.77 497.88 878.55 497.88C880.4 497.88 881.785 498.56 882.705 499.92C883.275 499.19 883.925 498.67 884.655 498.36C885.385 498.04 886.14 497.88 886.92 497.88C888.14 497.88 889.165 498.15 889.995 498.69C890.835 499.23 891.455 499.925 891.855 500.775C892.265 501.625 892.47 502.52 892.47 503.46V513H887.94V504.57C887.94 502.73 887.24 501.81 885.84 501.81C885.03 501.81 884.43 502.135 884.04 502.785C883.66 503.435 883.47 504.45 883.47 505.83V513H878.97V504.57C878.97 503.67 878.795 502.985 878.445 502.515C878.105 502.045 877.62 501.81 876.99 501.81C876.14 501.81 875.51 502.14 875.1 502.8C874.7 503.45 874.5 504.46 874.5 505.83V513H869.97V498.21ZM898.318 511.59L892.858 498.21H897.808L900.718 507.09L903.718 498.21H908.578L900.088 519.12H895.198L898.318 511.59ZM917.996 513.33C916.246 513.33 914.946 512.61 914.096 511.17V513H909.596V492.09H914.096V500.07C914.536 499.32 915.096 498.77 915.776 498.42C916.466 498.06 917.206 497.88 917.996 497.88C919.116 497.88 920.131 498.185 921.041 498.795C921.961 499.395 922.686 500.28 923.216 501.45C923.756 502.61 924.026 503.99 924.026 505.59C924.026 507.08 923.786 508.41 923.306 509.58C922.836 510.75 922.146 511.67 921.236 512.34C920.326 513 919.246 513.33 917.996 513.33ZM913.676 505.59C913.676 506.72 913.931 507.605 914.441 508.245C914.961 508.875 915.676 509.19 916.586 509.19C917.506 509.19 918.221 508.875 918.731 508.245C919.241 507.615 919.496 506.73 919.496 505.59C919.496 504.47 919.241 503.595 918.731 502.965C918.221 502.335 917.506 502.02 916.586 502.02C915.676 502.02 914.961 502.34 914.441 502.98C913.931 503.61 913.676 504.48 913.676 505.59ZM929.418 511.59L923.958 498.21H928.908L931.818 507.09L934.818 498.21H939.678L931.188 519.12H926.298L929.418 511.59ZM947.086 513.33C945.656 513.33 944.471 512.93 943.531 512.13C942.601 511.33 942.136 510.05 942.136 508.29V501.72H939.676V498.21H942.136V495.12L946.696 492.69V498.21H949.786V501.72H946.696V507C946.696 507.93 946.811 508.605 947.041 509.025C947.281 509.435 947.716 509.64 948.346 509.64C948.696 509.64 949.176 509.56 949.786 509.4V512.85C948.946 513.17 948.046 513.33 947.086 513.33ZM958.415 513.33C956.685 513.33 955.255 512.975 954.125 512.265C953.005 511.545 952.185 510.605 951.665 509.445C951.145 508.285 950.885 507.03 950.885 505.68C950.885 504.36 951.135 503.11 951.635 501.93C952.145 500.74 952.945 499.77 954.035 499.02C955.135 498.26 956.515 497.88 958.175 497.88C959.675 497.88 960.955 498.215 962.015 498.885C963.075 499.545 963.875 500.47 964.415 501.66C964.955 502.84 965.225 504.2 965.225 505.74C965.225 506.07 965.195 506.55 965.135 507.18H955.415C955.515 507.81 955.81 508.315 956.3 508.695C956.8 509.065 957.515 509.25 958.445 509.25C959.035 509.25 959.6 509.135 960.14 508.905C960.69 508.665 961.165 508.3 961.565 507.81L964.685 510.57C963.895 511.47 962.975 512.155 961.925 512.625C960.875 513.095 959.705 513.33 958.415 513.33ZM960.935 503.85C960.895 503.17 960.615 502.63 960.095 502.23C959.585 501.83 958.975 501.63 958.265 501.63C957.355 501.63 956.67 501.85 956.21 502.29C955.75 502.73 955.465 503.25 955.355 503.85H960.935ZM972.214 513.33C971.144 513.33 970.189 513.175 969.349 512.865C968.519 512.555 967.829 512.195 967.279 511.785C966.739 511.375 966.224 510.92 965.734 510.42L968.794 507.72C969.284 508.32 969.789 508.805 970.309 509.175C970.829 509.545 971.474 509.73 972.244 509.73C972.814 509.73 973.264 509.625 973.594 509.415C973.934 509.195 974.104 508.94 974.104 508.65C974.104 508.42 973.999 508.225 973.789 508.065C973.589 507.905 973.334 507.77 973.024 507.66C972.714 507.55 972.264 507.41 971.674 507.24C970.634 506.95 969.759 506.65 969.049 506.34C968.339 506.02 967.724 505.55 967.204 504.93C966.684 504.3 966.424 503.48 966.424 502.47C966.424 501.56 966.664 500.76 967.144 500.07C967.634 499.37 968.319 498.83 969.199 498.45C970.089 498.07 971.114 497.88 972.274 497.88C973.494 497.88 974.599 498.115 975.589 498.585C976.579 499.045 977.364 499.7 977.944 500.55L975.184 502.77C974.824 502.29 974.369 501.91 973.819 501.63C973.279 501.35 972.724 501.21 972.154 501.21C971.724 501.21 971.364 501.29 971.074 501.45C970.794 501.61 970.654 501.81 970.654 502.05C970.654 502.21 970.719 502.35 970.849 502.47C970.979 502.59 971.204 502.71 971.524 502.83C971.854 502.94 972.334 503.07 972.964 503.22C974.064 503.49 974.989 503.78 975.739 504.09C976.489 504.39 977.144 504.87 977.704 505.53C978.264 506.18 978.544 507.05 978.544 508.14C978.544 509.16 978.279 510.065 977.749 510.855C977.219 511.635 976.474 512.245 975.514 512.685C974.564 513.115 973.464 513.33 972.214 513.33Z" fill="#E9C46A"/>
<path d="M1127.91 385.008C1130.2 384.945 1132.43 385.689 1134.24 387.109C1135.12 387.857 1135.89 388.746 1136.49 389.741C1137.57 387.89 1139.24 386.455 1141.22 385.662C1143.68 384.764 1146.39 384.78 1148.84 385.706C1150.94 386.553 1152.86 387.787 1154.51 389.344C1155.82 390.512 1157.04 391.796 1158.4 392.924C1159.1 393.538 1159.9 394.023 1160.76 394.358C1161.35 394.545 1161.98 394.562 1162.58 394.405C1163.18 394.249 1163.73 393.925 1164.15 393.473C1164.52 393.038 1164.72 392.477 1164.7 391.902C1164.67 391.328 1164.43 390.785 1164.02 390.383C1163.89 390.269 1163.73 390.184 1163.56 390.135C1163.39 390.085 1163.21 390.072 1163.04 390.096C1162.86 390.119 1162.7 390.18 1162.55 390.273C1162.4 390.366 1162.27 390.489 1162.17 390.635C1162.04 390.887 1161.98 391.17 1162 391.453C1162.02 391.735 1162.12 392.007 1162.28 392.237C1161.9 392.012 1161.57 391.699 1161.33 391.323C1161.09 390.948 1160.94 390.52 1160.89 390.075C1160.86 389.552 1161 389.032 1161.29 388.597C1161.58 388.161 1162 387.834 1162.49 387.665C1163.43 387.304 1164.46 387.259 1165.43 387.538C1166.4 387.816 1167.25 388.402 1167.86 389.209C1168.85 390.815 1169.21 392.736 1168.88 394.598C1168.76 395.469 1168.46 396.306 1168.01 397.058C1167.55 397.81 1166.95 398.46 1166.24 398.969C1164.16 400.318 1161.72 400.972 1159.25 400.838C1156.92 400.757 1154.61 400.259 1152.45 399.366C1148.84 397.905 1145.46 395.882 1141.72 394.715C1140.43 394.35 1139.11 394.067 1137.78 393.867C1136.78 393.884 1135.79 393.832 1134.79 393.902C1133.57 394.007 1132.38 394.281 1131.23 394.717C1127.44 395.906 1124.01 397.986 1120.33 399.443C1117.22 400.751 1113.8 401.135 1110.48 400.55C1108.59 400.235 1106.85 399.299 1105.55 397.888C1104.5 396.616 1103.95 394.994 1104.02 393.339C1103.9 391.771 1104.35 390.211 1105.31 388.963C1105.79 388.405 1106.39 387.97 1107.07 387.694C1107.75 387.418 1108.49 387.309 1109.22 387.376C1109.69 387.388 1110.16 387.503 1110.58 387.713C1111.01 387.922 1111.38 388.221 1111.69 388.59C1111.89 388.899 1112.02 389.251 1112.07 389.62C1112.12 389.989 1112.09 390.364 1111.97 390.717C1111.7 391.336 1111.25 391.86 1110.68 392.221C1110.84 391.994 1110.94 391.724 1110.96 391.443C1110.99 391.162 1110.93 390.88 1110.8 390.631C1110.69 390.478 1110.55 390.351 1110.4 390.258C1110.24 390.164 1110.06 390.106 1109.88 390.089C1109.69 390.071 1109.51 390.094 1109.33 390.156C1109.16 390.218 1109 390.317 1108.87 390.446C1108.55 390.79 1108.35 391.223 1108.29 391.687C1108.23 392.15 1108.31 392.622 1108.52 393.038C1108.78 393.453 1109.13 393.801 1109.54 394.054C1109.96 394.307 1110.43 394.457 1110.91 394.493C1112.31 394.453 1113.64 393.867 1114.62 392.858C1116.69 390.842 1118.88 388.963 1121.18 387.233C1123.16 385.837 1125.5 385.063 1127.91 385.008Z" fill="#E5E5E5"/>
<path d="M601.239 421.941C600.997 422.069 601.017 422.11 601.249 421.992C601.32 421.963 601.386 421.921 601.442 421.868C601.442 421.826 601.442 421.826 601.239 421.941ZM601.726 421.677C601.61 421.773 601.61 421.773 601.748 421.71C601.8 421.686 601.846 421.654 601.887 421.614C601.887 421.56 601.854 421.572 601.726 421.677ZM602.043 421.486C601.927 421.582 601.927 421.582 602.065 421.519C602.117 421.495 602.163 421.462 602.203 421.421C602.203 421.371 602.171 421.381 602.043 421.486ZM602.364 421.298C602.248 421.393 602.248 421.393 602.382 421.328C602.457 421.287 602.52 421.245 602.52 421.233C602.52 421.182 602.488 421.192 602.364 421.298ZM602.797 421.011C602.575 421.159 602.498 421.255 602.701 421.149C602.837 421.066 603.069 420.883 603.028 420.883C602.941 420.916 602.868 420.971 602.795 421.011H602.797ZM583.372 361.015C583.224 361.025 582.779 361.066 582.389 361.098C573.151 361.935 564.509 366.908 559.031 374.568C556.003 378.769 554.035 383.639 553.295 388.764C553.032 390.552 553 391.08 553 393.503C553 395.925 553.032 396.445 553.295 398.232C555.064 410.442 563.749 420.692 575.522 424.491C577.64 425.167 579.86 425.634 582.389 425.921C583.372 426.026 587.624 426.026 588.607 425.921C592.978 425.433 596.668 424.355 600.321 422.492C600.881 422.208 600.987 422.132 600.912 422.069C599.13 419.714 597.364 417.348 595.612 414.97L590.419 407.956L583.913 398.318C581.749 395.09 579.562 391.878 577.354 388.681C577.332 388.681 577.303 392.965 577.291 398.19C577.269 407.341 577.269 407.712 577.153 407.924C577.042 408.179 576.843 408.386 576.592 408.507C576.391 408.602 576.21 408.622 575.25 408.622H574.151L573.864 408.444C573.685 408.328 573.539 408.168 573.442 407.978L573.304 407.692L573.314 394.954L573.336 382.216L573.537 381.962C573.666 381.805 573.824 381.676 574.002 381.582C574.269 381.454 574.374 381.433 575.473 381.433C576.763 381.433 576.976 381.484 577.315 381.856C579.951 385.776 582.564 389.711 585.154 393.662C589.377 400.064 595.141 408.801 597.975 413.087L603.128 420.885L603.382 420.717C605.858 419.071 608.102 417.1 610.054 414.856C614.148 410.17 616.804 404.403 617.705 398.246C617.967 396.459 618 395.929 618 393.507C618 391.084 617.967 390.566 617.705 388.779C615.936 376.569 607.251 366.319 595.478 362.518C593.278 361.821 591.013 361.347 588.718 361.102C588.103 361.039 583.902 360.964 583.374 361.019L583.372 361.015ZM596.671 380.672C596.822 380.746 596.956 380.85 597.067 380.977C597.178 381.103 597.262 381.251 597.314 381.411C597.369 381.582 597.379 385.114 597.369 393.071L597.347 404.495L595.338 401.407L593.317 398.318V390.024C593.317 384.647 593.339 381.633 593.368 381.484C593.467 381.144 593.695 380.856 594.004 380.682C594.255 380.554 594.353 380.544 595.358 380.544C596.299 380.544 596.457 380.554 596.668 380.672H596.671Z" fill="#E5E5E5"/>
<path d="M662 393.5V426H727V361H662V393.5ZM714.378 390.908C715.936 391.275 717.352 392.092 718.45 393.256C719.044 393.89 719.931 395.054 720.006 395.34C720.027 395.426 717.203 397.319 715.489 398.377C715.426 398.42 715.172 398.156 714.896 397.741C714.061 396.525 713.181 395.996 711.839 395.901C709.87 395.773 708.601 396.801 708.611 398.525C708.601 398.947 708.695 399.365 708.885 399.742C709.32 400.642 710.135 401.18 712.651 402.271C717.307 404.27 719.295 405.592 720.533 407.465C721.918 409.559 722.225 412.903 721.294 415.399C720.258 418.096 717.697 419.937 714.1 420.54C712.988 420.741 710.344 420.709 709.147 420.487C706.535 420.022 704.059 418.73 702.536 417.038C701.932 416.382 700.768 414.657 700.844 414.542C700.876 414.499 701.14 414.33 701.437 414.16L703.85 412.762L705.723 411.674L706.115 412.255C706.665 413.089 707.86 414.233 708.581 414.613C710.655 415.714 713.5 415.555 714.908 414.296C715.479 413.821 715.798 413.089 715.755 412.35C715.755 411.598 715.66 411.261 715.268 410.699C714.76 409.98 713.734 409.366 710.803 408.097C707.449 406.646 705.999 405.759 704.689 404.331C703.864 403.391 703.254 402.282 702.901 401.083C702.658 400.162 702.595 397.855 702.785 396.935C703.474 393.687 705.928 391.434 709.45 390.768C710.594 390.547 713.259 390.63 714.38 390.906L714.378 390.908ZM699.123 393.628L699.143 396.283H690.679V420.331H684.691V396.283H676.239V393.681C676.239 392.23 676.272 391.026 676.312 390.993C676.345 390.951 681.486 390.93 687.728 390.941L699.091 390.973L699.123 393.628Z" fill="#E5E5E5"/>
<path d="M807.128 410.141C807.092 410.222 807.056 410.287 807.128 410.141V410.141ZM836.944 398.361C834.536 398.361 832.162 398.983 830.002 400.189C829.296 398.577 828.566 397.169 828.446 396.113C828.303 394.881 828.147 394.149 828.315 392.687C828.482 391.225 829.236 389.153 829.224 389.004C829.212 388.855 829.057 388.11 827.513 388.097C825.969 388.083 824.64 388.435 824.485 388.896C824.211 389.737 823.999 390.602 823.85 391.482C823.575 393.066 820.765 398.726 819.173 401.678C818.646 400.527 818.203 399.511 818.108 398.699C817.964 397.467 817.808 396.736 817.976 395.273C818.144 393.811 818.898 391.739 818.886 391.59C818.874 391.441 818.718 390.697 817.177 390.683C815.635 390.67 814.304 391.022 814.148 391.482C813.993 391.942 813.825 393.026 813.514 394.068C813.203 395.111 809.457 404.535 808.478 406.986C807.975 408.232 807.544 409.234 807.233 409.911C807.185 410.019 807.149 410.087 807.125 410.141C807.161 410.073 807.185 410.005 807.185 410.033C806.922 410.615 806.766 410.94 806.766 410.94V410.953C806.563 411.387 806.335 411.779 806.227 411.779C806.156 411.779 806 410.642 806.263 409.085C806.826 405.808 808.154 400.717 808.142 400.541C808.131 400.446 808.394 399.566 807.269 399.092C806.18 398.645 805.785 399.39 805.689 399.39C805.593 399.39 805.521 399.66 805.521 399.66C805.521 399.66 806.73 393.919 803.199 393.919C800.997 393.919 797.933 396.654 796.427 399.132C795.482 399.715 793.435 400.974 791.281 402.314L788.803 403.858C788.743 403.79 788.696 403.723 788.636 403.655C784.351 398.482 776.442 394.826 776.777 387.88C776.897 385.348 777.675 378.7 791.987 370.629C803.716 364.022 813.093 365.836 814.709 369.871C817.031 375.626 809.694 386.337 797.514 387.88C792.87 388.462 790.431 386.431 789.821 385.673C789.186 384.874 789.09 384.834 788.851 384.982C788.456 385.226 788.707 385.93 788.851 386.35C789.21 387.42 790.706 389.315 793.256 390.263C795.494 391.089 800.937 391.55 807.518 388.666C814.912 385.443 820.669 376.465 818.979 368.95C817.26 361.314 806.067 358.809 795.484 363.06C789.177 365.592 782.357 369.573 777.452 374.759C771.623 380.934 770.692 386.309 771.075 388.557C772.439 396.533 782.156 401.732 786.043 405.578L785.505 405.916C783.554 407.013 776.147 411.4 774.292 416.031C772.198 421.285 774.639 425.049 776.241 425.564C781.244 427.134 786.364 424.304 789.117 419.66C791.87 415.015 791.535 408.949 790.266 406.187C790.254 406.146 790.23 406.119 790.218 406.079C791.654 405.116 793.103 404.177 794.563 403.262C794.084 404.725 793.737 406.485 793.557 409.031C793.342 412.009 794.431 415.868 795.843 417.385C796.466 418.049 797.217 418.062 797.687 418.062C799.338 418.062 800.08 416.518 800.906 414.677C801.923 412.429 802.821 409.816 802.821 409.816C802.821 409.816 801.696 416.884 804.772 416.884C805.897 416.884 807.022 415.246 807.525 414.406V414.42C807.525 414.42 807.549 414.365 807.609 414.257C807.728 414.054 807.788 413.932 807.788 413.932V413.892C808.243 413.011 809.236 410.994 810.733 407.663C812.671 403.357 814.524 397.981 814.524 397.981C814.704 399.162 814.953 400.329 815.266 401.475C815.601 402.761 816.308 404.169 816.87 405.537C816.415 406.241 816.14 406.647 816.14 406.647C816.14 406.658 816.145 406.666 816.152 406.674C815.793 407.216 815.386 407.798 814.967 408.367C813.437 410.425 811.616 412.781 811.376 413.458C811.089 414.257 811.161 414.853 811.712 415.313C812.119 415.665 812.837 415.72 813.591 415.652C814.967 415.544 815.937 415.164 816.403 414.921C817.264 414.572 818.078 414.089 818.821 413.485C820.317 412.24 821.227 410.452 821.143 408.096C821.095 406.796 820.724 405.496 820.269 404.278C820.401 404.061 820.545 403.831 820.676 403.601C822.234 400.972 823.637 398.23 824.877 395.392C825.057 396.573 825.303 397.74 825.619 398.886C825.907 399.983 826.469 401.188 826.984 402.366C824.758 404.41 823.381 406.78 822.905 408.337C822.019 411.221 822.713 412.521 824.018 412.819C824.604 412.955 825.442 412.643 826.065 412.345C826.989 411.996 827.86 411.489 828.647 410.842C830.144 409.597 831.592 407.85 831.494 405.48C831.458 404.41 831.194 403.341 830.847 402.312C832.726 401.418 835.168 400.931 838.28 401.337C844.944 402.217 846.249 406.929 845.997 408.892C845.746 410.856 844.346 411.953 843.879 412.278C843.412 412.603 843.269 412.724 843.304 412.968C843.364 413.32 843.58 413.307 843.975 413.225C844.525 413.117 847.47 411.628 847.601 407.985C847.793 403.381 843.879 398.317 836.949 398.358L836.944 398.361ZM785.576 417.954C783.374 420.675 780.289 421.704 778.96 420.838C777.536 419.901 778.098 415.896 780.813 412.995C782.465 411.235 784.595 409.61 786.007 408.608C786.33 408.391 786.797 408.066 787.372 407.674C787.418 407.64 787.466 407.608 787.515 407.579C787.623 407.498 787.743 407.43 787.862 407.349C788.854 411.465 787.898 415.094 785.576 417.951V417.954ZM801.658 405.578C800.892 407.704 799.278 413.12 798.295 412.835C797.457 412.592 796.942 408.462 798.127 404.4C798.725 402.355 799.994 399.918 800.748 398.97C801.957 397.44 803.286 396.952 803.597 397.562C804.016 398.361 802.137 404.251 801.658 405.578ZM814.943 412.754C814.62 412.944 814.321 413.066 814.177 412.971C814.069 412.903 814.309 412.646 814.309 412.646C814.309 412.646 815.972 410.628 816.631 409.708C817.014 409.166 817.457 408.53 817.935 407.825C817.935 407.893 817.947 407.961 817.947 408.042C817.933 410.466 815.874 412.104 814.941 412.754H814.943ZM825.188 410.114C824.949 409.924 824.985 409.288 825.787 407.311C826.098 406.539 826.816 405.239 828.061 403.993C828.202 404.465 828.279 404.958 828.288 405.456C828.276 408.502 826.349 409.64 825.188 410.114Z" fill="#E5E5E5"/>
<path d="M948.921 393.01C948.919 391.146 948.303 389.334 947.17 387.859C946.037 386.383 944.451 385.327 942.659 384.856L950.696 361H910.873L918.935 384.941C917.195 385.45 915.666 386.512 914.577 387.969C913.487 389.426 912.896 391.199 912.891 393.023C912.891 395.848 914.289 398.354 916.423 399.898C915.569 401.116 914.593 402.243 913.512 403.262C911.522 405.168 909.195 406.683 906.651 407.728C904.401 406.203 903.437 403.505 904.309 401.107C913.449 398.239 911.432 384.677 901.872 384.636C899.651 384.638 897.522 385.527 895.952 387.107C894.382 388.688 893.499 390.832 893.498 393.067C893.498 395.365 894.42 397.469 895.924 398.98C895.787 399.234 895.66 399.51 895.523 399.784C894.274 402.386 892.854 405.317 892.309 408.607C891.228 415.198 893.003 420.487 897.29 423.481C899.608 425.128 902.376 426.008 905.212 426C910.119 426 915.112 423.514 919.933 421.101C923.379 419.397 926.93 417.609 930.418 416.744C931.711 416.427 933.056 416.238 934.474 416.023C937.353 415.611 940.327 415.178 942.996 413.612C944.522 412.734 945.839 411.529 946.854 410.084C947.868 408.638 948.556 406.986 948.868 405.244C949.313 402.59 948.893 399.863 947.672 397.469C948.481 396.167 948.923 394.656 948.923 393.015L948.921 393.01ZM945.275 393.01C945.274 394.267 944.778 395.471 943.895 396.359C943.013 397.248 941.817 397.747 940.569 397.749C936.113 397.739 934.16 392.08 937.656 389.285L937.666 389.267C937.825 389.151 937.995 389.034 938.15 388.926C938.15 388.926 938.182 388.926 938.182 388.908C938.255 388.865 938.328 388.812 938.402 388.769C938.424 388.769 938.435 388.759 938.453 388.759C938.527 388.717 938.622 388.686 938.717 388.644C938.812 388.601 938.905 388.57 938.981 388.528C938.999 388.528 939.012 388.518 939.032 388.518C939.106 388.495 939.191 388.455 939.264 388.445C939.274 388.445 939.318 388.422 939.338 388.422C939.433 388.4 939.506 388.38 939.599 388.367H939.609L939.893 388.304C939.911 388.304 939.944 388.304 939.966 388.282C940.038 388.282 940.113 388.26 940.198 388.26H940.28C940.375 388.26 940.468 388.25 940.585 388.25H940.827C940.902 388.25 940.964 388.25 941.037 388.26H941.069C941.217 388.282 941.374 388.302 941.521 388.347C942.583 388.574 943.535 389.161 944.218 390.01C944.901 390.859 945.274 391.918 945.273 393.01H945.275ZM916.086 364.768H945.485L938.739 384.803C938.455 384.858 938.182 384.951 937.898 385.046L930.797 370.469L923.671 384.953C923.382 384.866 923.088 384.799 922.79 384.752L916.086 364.768ZM929.451 391.371C929.106 389.635 928.223 388.053 926.927 386.854L930.795 378.996L934.702 387.023C933.507 388.204 932.692 389.719 932.36 391.371H929.451ZM920.089 388.398C920.175 388.374 920.264 388.357 920.353 388.347H920.403C920.478 388.325 920.551 388.325 920.623 388.304H920.698C920.77 388.304 920.835 388.282 920.908 388.282H921.632C921.707 388.282 921.769 388.304 921.824 388.304C921.864 388.304 921.874 388.304 921.918 388.327C921.991 388.349 922.045 388.349 922.118 388.359C922.14 388.359 922.16 388.359 922.201 388.377L922.453 388.432H922.475C922.548 388.455 922.635 388.475 922.707 388.516C922.717 388.516 922.739 388.526 922.78 388.526C922.834 388.548 922.907 388.568 922.971 388.599C922.979 388.599 923.002 388.621 923.022 388.621C923.094 388.664 923.169 388.686 923.242 388.717H923.264C923.352 388.749 923.433 388.796 923.506 388.855H923.528C923.601 388.887 923.673 388.938 923.748 388.983C923.766 388.983 923.766 389.005 923.788 389.005C923.863 389.038 923.916 389.101 923.988 389.133L924.01 389.155C924.23 389.324 924.44 389.513 924.654 389.706L924.662 389.716C925.503 390.604 925.967 391.778 925.955 392.992C925.755 399.108 916.74 399.108 916.54 392.992C916.53 390.825 918.001 388.93 920.091 388.402L920.089 388.398ZM901.69 388.26C902.94 388.26 904.139 388.76 905.022 389.649C905.906 390.539 906.403 391.746 906.403 393.004C906.403 394.263 905.906 395.47 905.022 396.359C904.139 397.249 902.94 397.749 901.69 397.749C899.098 397.749 896.984 395.622 896.984 393.01C896.984 390.398 899.098 388.26 901.69 388.26ZM945.169 404.586C944.954 405.788 944.479 406.929 943.779 407.927C943.079 408.925 942.17 409.756 941.116 410.362C939.076 411.546 936.564 411.928 933.94 412.296C932.456 412.487 930.983 412.752 929.526 413.09C925.638 414.055 921.898 415.926 918.271 417.735C913.639 420.053 909.267 422.23 905.212 422.23C903.132 422.243 901.102 421.592 899.413 420.37C895.303 417.512 895.505 412.15 895.997 409.209C896.439 406.457 897.69 403.887 898.886 401.423C898.973 401.275 899.023 401.137 899.098 400.991C899.507 401.137 899.937 401.253 900.389 401.33C899.673 405.317 901.69 409.444 905.62 411.475L906.324 411.843L907.091 411.569C910.359 410.393 913.395 408.5 916.064 405.963C917.544 404.577 918.849 403.013 919.951 401.308C922.001 401.624 924.095 401.165 925.828 400.018C927.562 398.871 928.811 397.119 929.336 395.098H932.477C932.942 396.903 933.988 398.502 935.453 399.643C936.918 400.784 938.717 401.403 940.569 401.403C942.124 401.403 943.563 400.97 944.791 400.239C945.275 401.647 945.431 403.117 945.169 404.588V404.586Z" fill="#E5E5E5"/>
<path d="M1027.5 361C1009.49 361 995 375.495 995 393.5C995 411.505 1009.49 426 1027.5 426C1045.5 426 1060 411.505 1060 393.5C1060 375.495 1045.5 361 1027.5 361ZM1035.08 372.735C1035.44 372.724 1035.75 373.104 1035.55 373.488L1027.3 388.601C1027.26 388.678 1027.24 388.764 1027.24 388.852C1027.24 388.939 1027.27 389.025 1027.31 389.1C1027.36 389.176 1027.42 389.238 1027.5 389.282C1027.57 389.325 1027.66 389.348 1027.75 389.348H1041.99C1042.45 389.348 1042.67 389.909 1042.34 390.223L1017.37 413.528C1016.92 413.945 1016.26 413.357 1016.62 412.862L1028.43 396.555C1028.49 396.479 1028.52 396.391 1028.53 396.298C1028.53 396.205 1028.52 396.112 1028.47 396.03C1028.43 395.947 1028.37 395.877 1028.29 395.829C1028.21 395.78 1028.12 395.754 1028.03 395.753H1012.95C1012.85 395.753 1012.75 395.723 1012.67 395.667C1012.58 395.611 1012.52 395.532 1012.48 395.439C1012.44 395.346 1012.43 395.244 1012.45 395.146C1012.47 395.047 1012.52 394.957 1012.59 394.887L1034.75 372.887C1034.84 372.794 1034.96 372.74 1035.09 372.735H1035.08Z" fill="#E5E5E5"/>
<path d="M555.282 282.214C555.282 287.492 558.994 289.696 563.286 289.696C566.998 289.696 570.478 287.608 573.378 285.288H573.494L573.726 289H575.234V271.02C575.234 265.452 573.262 260.58 566.766 260.58C562.242 260.58 558.414 262.9 556.674 264.176L557.602 265.568C559.342 264.176 562.706 262.204 566.65 262.204C572.45 262.204 573.61 267.192 573.494 271.716C560.966 273.108 555.282 276.008 555.282 282.214ZM557.138 282.156C557.138 277.4 561.314 274.616 573.494 273.224V283.316C569.782 286.448 566.766 288.072 563.402 288.072C560.038 288.072 557.138 286.448 557.138 282.156ZM597.064 289H598.804V267.772C602.4 264.06 604.952 262.204 608.432 262.204C613.188 262.204 615.16 265.22 615.16 271.368V289H616.9V271.136C616.9 263.944 614.232 260.58 608.548 260.58C604.72 260.58 601.82 262.784 598.804 265.8V259.536V247.124H597.064V289ZM624.931 275.196C624.931 284.244 630.615 289.696 637.575 289.696C641.751 289.696 644.071 288.304 646.159 287.028L645.347 285.52C643.259 287.028 640.823 288.072 637.691 288.072C631.079 288.072 626.787 282.62 626.787 275.196H647.203C647.319 274.5 647.319 273.92 647.319 273.34C647.319 265.104 643.259 260.58 636.879 260.58C630.731 260.58 624.931 266.148 624.931 275.196ZM626.787 273.688C627.367 266.612 631.891 262.204 636.879 262.204C642.099 262.204 645.579 266.032 645.579 273.688H626.787ZM652.534 282.214C652.534 287.492 656.246 289.696 660.538 289.696C664.25 289.696 667.73 287.608 670.63 285.288H670.746L670.978 289H672.486V271.02C672.486 265.452 670.514 260.58 664.018 260.58C659.494 260.58 655.666 262.9 653.926 264.176L654.854 265.568C656.594 264.176 659.958 262.204 663.902 262.204C669.702 262.204 670.862 267.192 670.746 271.716C658.218 273.108 652.534 276.008 652.534 282.214ZM654.39 282.156C654.39 277.4 658.566 274.616 670.746 273.224V283.316C667.034 286.448 664.018 288.072 660.654 288.072C657.29 288.072 654.39 286.448 654.39 282.156ZM682.818 289H684.558V269.744C686.762 264.292 689.778 262.32 692.33 262.32C693.374 262.32 693.838 262.436 694.766 262.784L695.23 261.16C694.302 260.696 693.49 260.58 692.562 260.58C689.198 260.58 686.53 263.132 684.674 266.496H684.558L684.326 261.276H682.818V289ZM701.127 281.692C701.127 286.448 702.519 289.696 707.623 289.696C708.551 289.696 710.291 289.232 711.915 288.652L711.335 287.144C710.291 287.608 708.783 288.072 707.739 288.072C703.679 288.072 702.867 285.52 702.867 281.924V262.9H711.103V261.276H702.867V253.156H701.359L701.127 261.276L696.719 261.508V262.9H701.127V281.692ZM714.104 299.672L713.64 301.296C714.336 301.644 715.38 301.876 716.308 301.876C721.064 301.876 723.848 297.236 725.24 292.944L736.376 261.276H734.52L728.256 279.488C727.444 281.808 726.516 284.824 725.588 287.26H725.356C724.312 284.824 723.152 281.808 722.224 279.488L715.148 261.276H713.176L724.66 289.696L723.848 292.248C722.34 296.772 719.904 300.136 716.424 300.136C715.612 300.136 714.684 299.904 714.104 299.672ZM754.129 289H755.869V263.828C755.869 260.232 755.753 256.984 755.637 253.388H755.869L760.277 260.928L777.213 289H779.185V250.72H777.445V275.544C777.445 279.14 777.561 282.62 777.677 286.332H777.445L773.037 278.792L756.101 250.72H754.129V289ZM787.886 275.196C787.886 284.244 793.57 289.696 800.53 289.696C804.706 289.696 807.026 288.304 809.114 287.028L808.302 285.52C806.214 287.028 803.778 288.072 800.646 288.072C794.034 288.072 789.742 282.62 789.742 275.196H810.158C810.274 274.5 810.274 273.92 810.274 273.34C810.274 265.104 806.214 260.58 799.834 260.58C793.686 260.58 787.886 266.148 787.886 275.196ZM789.742 273.688C790.322 266.612 794.846 262.204 799.834 262.204C805.054 262.204 808.534 266.032 808.534 273.688H789.742ZM813.263 289H815.119L820.223 280.996C821.383 279.256 822.427 277.516 823.587 275.892H823.819C824.979 277.516 826.139 279.256 827.183 280.996L832.403 289H834.375L824.863 274.616L833.563 261.276H831.707L827.067 268.7C826.023 270.208 825.095 271.716 824.051 273.224H823.819C822.775 271.716 821.731 270.208 820.803 268.7L816.047 261.276H814.075L822.775 274.5L813.263 289ZM841.312 281.692C841.312 286.448 842.704 289.696 847.808 289.696C848.736 289.696 850.476 289.232 852.1 288.652L851.52 287.144C850.476 287.608 848.968 288.072 847.924 288.072C843.864 288.072 843.052 285.52 843.052 281.924V262.9H851.288V261.276H843.052V253.156H841.544L841.312 261.276L836.904 261.508V262.9H841.312V281.692ZM857.913 287.492C857.913 288.884 858.957 289.696 860.001 289.696C861.045 289.696 862.089 288.884 862.089 287.492C862.089 285.984 861.045 285.172 860.001 285.172C858.957 285.172 857.913 285.984 857.913 287.492ZM871.828 294.684C871.828 298.28 871.248 300.948 868 300.948C866.84 300.948 865.68 300.6 864.984 300.368L864.52 301.876C865.332 302.224 866.724 302.572 867.884 302.572C871.712 302.572 873.568 300.252 873.568 294.916V261.276H871.828V294.684ZM872.756 254.2C873.8 254.2 874.728 253.388 874.728 252.228C874.728 250.952 873.8 250.256 872.756 250.256C871.712 250.256 870.784 250.952 870.784 252.228C870.784 253.388 871.712 254.2 872.756 254.2ZM881.089 285.868C883.525 287.956 887.005 289.696 891.181 289.696C896.981 289.696 900.229 286.1 900.229 282.04C900.229 276.588 895.357 275.254 890.949 273.572C887.585 272.296 884.221 270.904 884.221 267.656C884.221 264.93 886.309 262.204 890.949 262.204C893.849 262.204 895.821 263.364 897.677 264.756L898.721 263.364C896.749 261.74 893.849 260.58 891.065 260.58C885.381 260.58 882.365 263.944 882.365 267.772C882.365 272.528 887.121 274.152 891.413 275.66C894.661 276.82 898.373 278.444 898.373 282.156C898.373 285.288 895.937 288.072 891.297 288.072C887.121 288.072 884.569 286.448 882.249 284.476L881.089 285.868ZM919.406 289H920.914L921.146 286.448H921.262C923.93 288.42 927.062 289.696 929.73 289.696C936.342 289.696 942.026 284.128 942.026 274.732C942.026 266.148 938.43 260.58 930.89 260.58C927.41 260.58 923.93 262.668 921.03 265.104L921.146 259.536V247.124H919.406V289ZM921.146 284.244V267.076C924.626 263.944 927.874 262.204 930.774 262.204C937.618 262.204 940.17 267.656 940.17 274.732C940.17 282.504 935.878 288.072 929.846 288.072C927.642 288.072 924.394 287.028 921.146 284.244ZM948.292 275.196C948.292 284.36 953.976 289.696 960.588 289.696C967.2 289.696 972.884 284.36 972.884 275.196C972.884 265.916 967.2 260.58 960.588 260.58C953.976 260.58 948.292 265.916 948.292 275.196ZM950.148 275.196C950.148 267.54 954.672 262.204 960.588 262.204C966.504 262.204 971.028 267.54 971.028 275.196C971.028 282.852 966.504 288.072 960.588 288.072C954.672 288.072 950.148 282.852 950.148 275.196ZM982.525 254.2C983.569 254.2 984.497 253.388 984.497 252.228C984.497 250.952 983.569 250.256 982.525 250.256C981.481 250.256 980.553 250.952 980.553 252.228C980.553 253.388 981.481 254.2 982.525 254.2ZM981.597 289H983.337V261.276H981.597V289ZM994.455 285.984C994.455 288.652 995.499 289.696 997.239 289.696C997.935 289.696 998.283 289.58 998.747 289.464L998.399 287.956C997.819 288.072 997.587 288.072 997.355 288.072C996.659 288.072 996.195 287.492 996.195 286.332V247.124H994.455V285.984ZM1005.39 275.196C1005.39 284.244 1011.07 289.696 1018.03 289.696C1022.21 289.696 1024.53 288.304 1026.61 287.028L1025.8 285.52C1023.71 287.028 1021.28 288.072 1018.15 288.072C1011.53 288.072 1007.24 282.62 1007.24 275.196H1027.66C1027.77 274.5 1027.77 273.92 1027.77 273.34C1027.77 265.104 1023.71 260.58 1017.33 260.58C1011.19 260.58 1005.39 266.148 1005.39 275.196ZM1007.24 273.688C1007.82 266.612 1012.35 262.204 1017.33 262.204C1022.55 262.204 1026.03 266.032 1026.03 273.688H1007.24ZM1035.52 289H1037.26V269.744C1039.46 264.292 1042.48 262.32 1045.03 262.32C1046.08 262.32 1046.54 262.436 1047.47 262.784L1047.93 261.16C1047 260.696 1046.19 260.58 1045.26 260.58C1041.9 260.58 1039.23 263.132 1037.38 266.496H1037.26L1037.03 261.276H1035.52V289ZM1054.99 286.216C1058 288.42 1060.9 289.696 1063.57 289.696C1070.18 289.696 1075.87 284.128 1075.87 274.732C1075.87 266.148 1072.27 260.58 1064.73 260.58C1061.25 260.58 1057.89 262.668 1055.1 264.872H1054.99L1054.76 261.276H1053.25V301.876H1054.99V291.436V286.216ZM1054.99 284.244V267.076C1058.58 263.944 1061.72 262.204 1064.62 262.204C1071.46 262.204 1074.01 267.656 1074.01 274.732C1074.01 282.504 1069.72 288.072 1063.69 288.072C1061.48 288.072 1058.35 287.028 1054.99 284.244ZM1084.57 285.984C1084.57 288.652 1085.61 289.696 1087.35 289.696C1088.05 289.696 1088.4 289.58 1088.86 289.464L1088.51 287.956C1087.93 288.072 1087.7 288.072 1087.47 288.072C1086.77 288.072 1086.31 287.492 1086.31 286.332V247.124H1084.57V285.984ZM1096.31 282.214C1096.31 287.492 1100.03 289.696 1104.32 289.696C1108.03 289.696 1111.51 287.608 1114.41 285.288H1114.53L1114.76 289H1116.27V271.02C1116.27 265.452 1114.29 260.58 1107.8 260.58C1103.27 260.58 1099.45 262.9 1097.71 264.176L1098.63 265.568C1100.37 264.176 1103.74 262.204 1107.68 262.204C1113.48 262.204 1114.64 267.192 1114.53 271.716C1102 273.108 1096.31 276.008 1096.31 282.214ZM1098.17 282.156C1098.17 277.4 1102.35 274.616 1114.53 273.224V283.316C1110.81 286.448 1107.8 288.072 1104.43 288.072C1101.07 288.072 1098.17 286.448 1098.17 282.156ZM1127.18 281.692C1127.18 286.448 1128.57 289.696 1133.67 289.696C1134.6 289.696 1136.34 289.232 1137.97 288.652L1137.39 287.144C1136.34 287.608 1134.83 288.072 1133.79 288.072C1129.73 288.072 1128.92 285.52 1128.92 281.924V262.9H1137.15V261.276H1128.92V253.156H1127.41L1127.18 261.276L1122.77 261.508V262.9H1127.18V281.692ZM1141.1 275.196C1141.1 284.244 1146.78 289.696 1153.74 289.696C1157.92 289.696 1160.24 288.304 1162.32 287.028L1161.51 285.52C1159.42 287.028 1156.99 288.072 1153.86 288.072C1147.24 288.072 1142.95 282.62 1142.95 275.196H1163.37C1163.48 274.5 1163.48 273.92 1163.48 273.34C1163.48 265.104 1159.42 260.58 1153.04 260.58C1146.9 260.58 1141.1 266.148 1141.1 275.196ZM1142.95 273.688C1143.53 266.612 1148.06 262.204 1153.04 262.204C1158.26 262.204 1161.74 266.032 1161.74 273.688H1142.95Z" fill="#E5E5E5"/>
<path d="M548.113 221.995L550.995 224.887L553.887 222.005L551.005 219.113L548.113 221.995ZM1172.89 223.005L1170 220.113L1167.11 222.995L1170 225.887L1172.89 223.005ZM550.999 222.5L1170 223.5L1170 222.5L551.001 221.5L550.999 222.5Z" fill="#E5E5E5"/>
<path d="M630.887 126.795H640.785C644.354 126.795 647.72 126.761 650.885 126.694C654.117 126.627 656.979 126.559 659.47 126.492L658.965 128.512C656.676 128.579 654.891 128.849 653.612 129.32C652.333 129.724 651.323 130.532 650.582 131.744C649.909 132.889 649.235 134.707 648.562 137.198L635.23 187.294C634.287 190.997 634.186 193.354 634.927 194.364C635.735 195.307 637.822 195.845 641.189 195.98L640.785 198C638.294 197.865 635.466 197.798 632.301 197.798C629.136 197.731 625.77 197.697 622.201 197.697C618.565 197.697 615.097 197.731 611.798 197.798C608.566 197.798 605.974 197.865 604.021 198L604.425 195.98C606.782 195.845 608.566 195.576 609.778 195.172C611.057 194.768 612.067 193.96 612.808 192.748C613.549 191.536 614.222 189.718 614.828 187.294L629.473 132.855L587.558 198.505H585.336L576.347 139.521L564.631 184.163C564.16 186.048 563.924 187.9 563.924 189.718C563.991 191.469 564.665 192.916 565.944 194.061C567.223 195.206 569.513 195.845 572.812 195.98L572.408 198C571.196 197.865 569.311 197.798 566.752 197.798C564.261 197.731 562.14 197.697 560.389 197.697C558.638 197.697 556.888 197.731 555.137 197.798C553.386 197.798 551.939 197.865 550.794 198L551.198 195.98C554.699 195.845 557.258 194.566 558.874 192.142C560.49 189.718 561.668 187.058 562.409 184.163L574.933 137.198C575.876 133.495 575.943 131.172 575.135 130.229C574.394 129.219 572.341 128.647 568.974 128.512L569.479 126.492C571.364 126.559 573.822 126.627 576.852 126.694C579.949 126.761 583.181 126.795 586.548 126.795C588.231 126.795 589.881 126.761 591.497 126.694C593.113 126.627 594.561 126.559 595.84 126.492L601.698 172.548L630.887 126.795ZM672.016 192.546C672.689 192.546 673.396 192.277 674.137 191.738C674.878 191.199 675.652 190.29 676.46 189.011C677.268 187.664 678.143 185.813 679.086 183.456C680.029 181.099 681.039 178.069 682.116 174.366L679.49 185.375C677.807 190.762 675.551 194.465 672.723 196.485C669.962 198.438 666.798 199.414 663.229 199.414C658.987 199.414 655.822 198.337 653.735 196.182C651.715 193.96 650.705 190.829 650.705 186.789C650.705 182.884 651.345 178.911 652.624 174.871C653.971 170.831 655.755 166.993 657.977 163.357C660.266 159.654 662.791 156.388 665.552 153.56C668.38 150.665 671.309 148.375 674.339 146.692C677.369 145.009 680.298 144.167 683.126 144.167C685.281 144.167 686.93 144.84 688.075 146.187C689.287 147.534 689.725 149.924 689.388 153.358L688.277 153.964C688.614 152.281 688.614 151.069 688.277 150.328C687.94 149.52 687.368 149.116 686.56 149.116C685.146 149.116 683.463 150.227 681.51 152.449C679.625 154.671 677.773 157.634 675.955 161.337C674.204 164.973 672.723 169.047 671.511 173.558C670.299 178.069 669.693 182.614 669.693 187.193C669.693 189.078 669.861 190.459 670.198 191.334C670.535 192.142 671.141 192.546 672.016 192.546ZM690.701 145.682C694.404 145.615 697.67 145.48 700.498 145.278C703.393 145.009 706.221 144.638 708.982 144.167L695.347 189.415C695.01 190.492 694.842 191.368 694.842 192.041C694.909 192.647 695.078 193.085 695.347 193.354C695.684 193.556 696.088 193.657 696.559 193.657C697.165 193.657 697.939 193.32 698.882 192.647C699.825 191.906 700.835 190.122 701.912 187.294L704.033 181.638H705.952L703.427 189.011C701.946 193.253 699.825 196.047 697.064 197.394C694.371 198.741 691.677 199.414 688.984 199.414C684.877 199.414 681.948 198.236 680.197 195.879C679.187 194.465 678.615 192.613 678.48 190.324C678.413 188.035 678.85 185.274 679.793 182.042L690.701 145.682ZM727.266 129.724C727.266 126.088 728.445 123.395 730.801 121.644C733.158 119.893 736.087 119.018 739.588 119.018C742.551 119.018 744.773 119.59 746.254 120.735C747.803 121.88 748.577 123.597 748.577 125.886C748.577 129.051 747.365 131.609 744.941 133.562C742.585 135.447 739.656 136.39 736.154 136.39C733.259 136.39 731.037 135.818 729.488 134.673C728.007 133.528 727.266 131.879 727.266 129.724ZM723.024 154.166C723.967 151.338 723.664 149.924 722.115 149.924C721.105 149.924 720.163 150.395 719.287 151.338C718.412 152.213 717.503 153.863 716.56 156.287L714.237 162.448H712.318L715.146 154.57C716.493 150.799 718.446 148.14 721.004 146.591C723.63 144.975 726.694 144.167 730.195 144.167C733.629 144.167 736.154 144.908 737.77 146.389C739.386 147.87 740.329 149.688 740.598 151.843C740.868 153.998 740.632 156.152 739.891 158.307L729.387 189.415C728.849 191.098 728.748 192.243 729.084 192.849C729.421 193.388 729.926 193.657 730.599 193.657C731.205 193.657 731.98 193.32 732.922 192.647C733.865 191.906 734.875 190.122 735.952 187.294L738.073 181.638H739.992L737.467 189.011C735.986 193.253 733.865 196.047 731.104 197.394C728.411 198.741 725.718 199.414 723.024 199.414C720.062 199.414 717.638 198.808 715.752 197.596C713.934 196.317 712.823 194.398 712.419 191.839C712.015 189.213 712.453 185.947 713.732 182.042L723.024 154.166ZM762.307 198H744.43L756.752 154.166C757.089 153.089 757.291 152.247 757.358 151.641C757.425 151.035 757.324 150.597 757.055 150.328C756.853 150.059 756.449 149.924 755.843 149.924C754.833 149.924 753.89 150.395 753.015 151.338C752.14 152.213 751.231 153.863 750.288 156.287L747.965 162.448H746.046L748.874 154.57C750.153 151.001 751.904 148.375 754.126 146.692C756.348 145.009 759.21 144.167 762.711 144.167C766.28 144.167 768.838 144.908 770.387 146.389C772.003 147.803 772.946 149.621 773.215 151.843C773.484 153.998 773.316 156.152 772.71 158.307L762.307 198ZM764.63 183.557C767.391 175.342 769.916 168.676 772.205 163.559C774.562 158.374 776.817 154.368 778.972 151.54C781.194 148.712 783.45 146.793 785.739 145.783C788.096 144.706 790.621 144.167 793.314 144.167C796.681 144.167 799.138 144.84 800.687 146.187C802.236 147.534 803.044 149.385 803.111 151.742C803.246 154.031 802.842 156.59 801.899 159.418L791.9 189.415C791.227 191.3 791.126 192.479 791.597 192.95C792.136 193.421 792.641 193.657 793.112 193.657C793.718 193.657 794.492 193.32 795.435 192.647C796.378 191.906 797.388 190.122 798.465 187.294L800.586 181.638H802.505L799.98 189.011C798.499 193.253 796.378 196.047 793.617 197.394C790.924 198.741 788.23 199.414 785.537 199.414C781.228 199.414 778.198 198.202 776.447 195.778C775.437 194.364 774.865 192.613 774.73 190.526C774.663 188.371 775.201 185.543 776.346 182.042L785.032 155.883C785.436 154.671 785.672 153.661 785.739 152.853C785.874 152.045 785.874 151.439 785.739 151.035C785.604 150.631 785.301 150.429 784.83 150.429C783.483 150.429 781.834 151.843 779.881 154.671C777.928 157.432 775.875 161.135 773.72 165.781C771.633 170.36 769.579 175.443 767.559 181.032C765.606 186.553 763.889 192.108 762.408 197.697L764.63 183.557ZM910.169 126.492C909.159 129.118 908.115 132.316 907.038 136.087C905.96 139.79 904.849 144.335 903.705 149.722H901.483C902.089 146.355 902.392 143.325 902.392 140.632C902.459 137.939 901.92 135.616 900.776 133.663C899.496 131.441 897.948 129.926 896.13 129.118C894.312 128.31 892.157 127.906 889.666 127.906C886.434 127.906 883.303 128.748 880.273 130.431C877.31 132.047 874.583 134.37 872.092 137.4C869.6 140.363 867.412 143.83 865.527 147.803C863.641 151.776 862.16 156.119 861.083 160.832C860.073 165.545 859.568 170.427 859.568 175.477C859.568 182.48 860.746 187.597 863.103 190.829C865.527 193.994 868.759 195.576 872.799 195.576C875.021 195.576 877.31 195.071 879.667 194.061C882.091 193.051 884.178 191.603 885.929 189.718C887.747 187.765 889.295 185.611 890.575 183.254C891.921 180.83 893.403 177.665 895.019 173.76H897.241C895.557 179.887 894.244 184.836 893.302 188.607C892.426 192.31 891.753 195.441 891.282 198H889.06C889.262 196.586 889.363 195.441 889.363 194.566C889.363 193.219 889.093 192.411 888.555 192.142C888.016 191.805 887.174 192.041 886.03 192.849C883.336 194.734 880.306 196.317 876.94 197.596C873.573 198.808 869.87 199.414 865.83 199.414C855.528 199.414 848.02 197.125 843.307 192.546C838.661 187.967 836.338 181.638 836.338 173.558C836.338 168.71 837.146 163.963 838.762 159.317C840.378 154.604 842.701 150.193 845.731 146.086C848.761 141.979 852.397 138.343 856.639 135.178C860.881 132.013 865.594 129.556 870.779 127.805C876.031 125.987 881.619 125.078 887.545 125.078C891.585 125.078 894.716 125.751 896.938 127.098C899.16 128.377 901.011 129.892 902.493 131.643C903.368 132.72 904.243 132.821 905.119 131.946C906.061 131.071 907.038 129.253 908.048 126.492H910.169ZM938.569 146.187C937.425 146.187 936.078 147.163 934.529 149.116C932.981 151.001 931.398 153.56 929.782 156.792C928.166 160.024 926.651 163.626 925.237 167.599C923.891 171.572 922.78 175.645 921.904 179.82C921.096 183.995 920.692 187.967 920.692 191.738C920.692 193.825 920.827 195.307 921.096 196.182C921.433 196.99 921.938 197.394 922.611 197.394C923.689 197.394 924.968 196.485 926.449 194.667C927.998 192.849 929.547 190.391 931.095 187.294C932.711 184.197 934.193 180.695 935.539 176.79C936.953 172.885 938.098 168.811 938.973 164.569C939.849 160.26 940.286 156.085 940.286 152.045C940.286 149.486 940.118 147.87 939.781 147.197C939.445 146.524 939.041 146.187 938.569 146.187ZM903.926 182.244C903.926 178.271 904.6 174.097 905.946 169.72C907.36 165.276 909.515 161.135 912.41 157.297C915.306 153.392 918.942 150.227 923.318 147.803C927.762 145.379 933.014 144.167 939.074 144.167C944.932 144.167 949.376 145.648 952.406 148.611C955.504 151.574 957.052 155.816 957.052 161.337C957.052 165.31 956.345 169.518 954.931 173.962C953.585 178.339 951.464 182.48 948.568 186.385C945.673 190.223 942.003 193.354 937.559 195.778C933.183 198.202 927.964 199.414 921.904 199.414C916.046 199.414 911.569 197.933 908.471 194.97C905.441 192.007 903.926 187.765 903.926 182.244ZM999.032 162.246C996.406 170.124 993.948 176.521 991.659 181.436C989.37 186.284 987.114 190.021 984.892 192.647C982.737 195.206 980.482 196.99 978.125 198C975.836 198.943 973.344 199.414 970.651 199.414C966.544 199.414 963.716 198.135 962.167 195.576C960.686 193.017 960.787 189.213 962.47 184.163L972.267 154.166C972.94 152.213 973.008 151.035 972.469 150.631C971.998 150.16 971.526 149.924 971.055 149.924C970.449 149.924 969.675 150.294 968.732 151.035C967.789 151.708 966.779 153.459 965.702 156.287L963.581 161.943H961.662L964.187 154.57C965.668 150.328 967.756 147.534 970.449 146.187C973.21 144.84 975.937 144.167 978.63 144.167C981.66 144.167 984.084 144.807 985.902 146.086C987.72 147.298 988.831 149.183 989.235 151.742C989.639 154.301 989.168 157.566 987.821 161.539L979.135 187.698C977.923 191.334 977.99 193.152 979.337 193.152C980.684 193.152 982.333 191.772 984.286 189.011C986.239 186.183 988.292 182.48 990.447 177.901C992.602 173.255 994.655 168.138 996.608 162.549C998.628 156.96 1000.38 151.405 1001.86 145.884L999.032 162.246ZM1007.42 189.415C1006.94 190.964 1006.74 192.075 1006.81 192.748C1006.94 193.354 1007.45 193.657 1008.32 193.657C1009.33 193.657 1010.28 193.219 1011.15 192.344C1012.09 191.401 1013 189.718 1013.88 187.294L1016.2 181.133H1018.12L1015.29 189.011C1013.95 192.782 1011.96 195.475 1009.33 197.091C1006.71 198.64 1003.88 199.414 1000.85 199.414C998.493 199.414 996.574 199.044 995.093 198.303C993.679 197.63 992.602 196.687 991.861 195.475C991.053 194.128 990.649 192.58 990.649 190.829C990.716 189.011 990.986 187.159 991.457 185.274L1001.86 145.581C1005.36 145.514 1008.63 145.379 1011.66 145.177C1014.69 144.975 1017.52 144.638 1020.14 144.167L1007.42 189.415ZM1040.06 198H1022.18L1034.5 154.166C1034.91 152.617 1035.04 151.54 1034.91 150.934C1034.77 150.261 1034.33 149.924 1033.59 149.924C1032.58 149.924 1031.64 150.395 1030.76 151.338C1029.89 152.213 1028.98 153.863 1028.04 156.287L1025.71 162.448H1023.8L1026.62 154.57C1027.97 150.799 1029.92 148.14 1032.48 146.591C1035.11 144.975 1038.17 144.167 1041.67 144.167C1044.77 144.167 1047.03 144.908 1048.44 146.389C1049.85 147.803 1050.66 149.621 1050.86 151.843C1051.13 153.998 1051 156.152 1050.46 158.307L1040.06 198ZM1065.81 146.187C1064.53 146.187 1063.15 146.389 1061.67 146.793C1060.26 147.197 1058.74 148.241 1057.13 149.924C1055.58 151.54 1053.89 154.166 1052.08 157.802C1050.33 161.438 1048.44 166.488 1046.42 172.952C1044.4 179.416 1042.28 187.664 1040.06 197.697L1042.18 183.557C1044.2 175.679 1046.05 169.215 1047.73 164.165C1049.42 159.048 1051.1 155.041 1052.78 152.146C1054.47 149.183 1056.32 147.13 1058.34 145.985C1060.36 144.773 1062.71 144.167 1065.41 144.167C1068.57 144.167 1071 145.11 1072.68 146.995C1074.36 148.88 1075.2 151.203 1075.2 153.964C1075.2 157.331 1074.13 160.293 1071.97 162.852C1069.89 165.343 1067.16 166.589 1063.79 166.589C1061.3 166.589 1059.42 165.949 1058.14 164.67C1056.86 163.391 1056.22 161.505 1056.22 159.014C1056.22 156.051 1057.29 153.358 1059.45 150.934C1061.67 148.51 1064.26 147.029 1067.23 146.49C1067.02 146.423 1066.79 146.355 1066.52 146.288C1066.32 146.221 1066.08 146.187 1065.81 146.187ZM1080.76 196.586C1081.3 196.855 1081.84 197.057 1082.38 197.192C1082.98 197.259 1083.62 197.293 1084.3 197.293C1086.38 197.293 1088.1 196.62 1089.45 195.273C1090.86 193.859 1091.57 191.974 1091.57 189.617C1091.57 187.328 1091.03 184.937 1089.95 182.446C1088.88 179.955 1087.46 177.329 1085.71 174.568C1084.1 171.942 1082.68 169.484 1081.47 167.195C1080.26 164.838 1079.65 162.246 1079.65 159.418C1079.65 155.109 1081.3 151.506 1084.6 148.611C1087.97 145.648 1093.02 144.167 1099.75 144.167C1102.58 144.167 1105.31 144.504 1107.93 145.177C1110.62 145.85 1112.81 147.029 1114.5 148.712C1116.25 150.328 1117.12 152.685 1117.12 155.782C1117.12 157.869 1116.52 159.889 1115.3 161.842C1114.09 163.795 1112.31 164.771 1109.95 164.771C1107.93 164.771 1106.35 163.997 1105.2 162.448C1104.06 160.832 1103.49 158.778 1103.49 156.287C1103.49 154.132 1103.82 152.213 1104.5 150.53C1105.24 148.847 1105.98 147.601 1106.72 146.793C1106.18 146.524 1105.34 146.389 1104.19 146.389C1101.84 146.389 1100.05 147.062 1098.84 148.409C1097.7 149.756 1097.09 151.708 1097.02 154.267C1096.96 156.556 1097.56 158.812 1098.84 161.034C1100.19 163.256 1101.57 165.579 1102.98 168.003C1105.2 171.774 1106.75 174.871 1107.63 177.295C1108.57 179.652 1109.04 181.975 1109.04 184.264C1109.04 187.025 1108.27 189.55 1106.72 191.839C1105.24 194.128 1102.98 195.98 1099.95 197.394C1096.99 198.741 1093.29 199.414 1088.84 199.414C1085.68 199.414 1082.65 199.01 1079.75 198.202C1076.92 197.461 1074.6 196.148 1072.78 194.263C1071.03 192.378 1070.16 189.785 1070.16 186.486C1070.16 183.995 1070.8 181.874 1072.08 180.123C1073.29 178.372 1074.94 177.497 1077.03 177.497C1078.98 177.497 1080.56 178.305 1081.77 179.921C1082.98 181.537 1083.59 183.692 1083.59 186.385C1083.59 188.54 1083.22 190.526 1082.48 192.344C1081.81 194.162 1081.23 195.576 1080.76 196.586ZM1133.72 176.79C1135.87 175.78 1137.99 174.568 1140.08 173.154C1142.17 171.74 1144.08 170.191 1145.84 168.508C1148.53 165.882 1150.72 162.886 1152.4 159.519C1154.15 156.152 1155.03 152.516 1155.03 148.611C1155.03 147.668 1154.89 147.029 1154.62 146.692C1154.35 146.288 1153.95 146.086 1153.41 146.086C1151.73 146.086 1149.88 147.231 1147.86 149.52C1145.84 151.809 1143.92 154.772 1142.1 158.408C1140.28 162.044 1138.8 165.983 1137.65 170.225C1136.51 174.467 1135.94 178.507 1135.94 182.345C1135.94 186.25 1136.71 188.876 1138.26 190.223C1139.81 191.502 1141.83 192.142 1144.32 192.142C1145.67 192.142 1147.69 191.637 1150.38 190.627C1153.07 189.617 1155.77 187.765 1158.46 185.072L1160.08 185.88C1158.6 188.102 1156.64 190.257 1154.22 192.344C1151.79 194.431 1148.93 196.148 1145.63 197.495C1142.33 198.774 1138.63 199.414 1134.52 199.414C1129.81 199.414 1125.7 198.236 1122.2 195.879C1118.77 193.455 1117.05 189.886 1117.05 185.173C1117.05 181.2 1117.66 177.261 1118.87 173.356C1120.15 169.451 1121.93 165.747 1124.22 162.246C1126.51 158.745 1129.24 155.647 1132.4 152.954C1135.63 150.193 1139.2 148.039 1143.11 146.49C1147.01 144.941 1151.19 144.167 1155.63 144.167C1159.2 144.167 1162.16 144.908 1164.52 146.389C1166.94 147.803 1168.16 150.025 1168.16 153.055C1168.16 155.614 1167.48 158.038 1166.14 160.327C1164.79 162.549 1162.94 164.603 1160.58 166.488C1158.22 168.306 1155.57 169.956 1152.6 171.437C1149.64 172.918 1146.51 174.198 1143.21 175.275C1139.98 176.352 1136.78 177.194 1133.61 177.8L1133.72 176.79Z" fill="#E9C46A"/>
<defs>
<clipPath id="clip0">
<rect width="400" height="400" fill="white" transform="translate(45 119)"/>
</clipPath>
</defs>
</svg>
