<?xml version="1.0" encoding="utf-8"?>
<!-- Generator: Adobe Illustrator 24.0.2, SVG Export Plug-In . SVG Version: 6.00 Build 0)  -->
<svg version="1.1" id="Layer_1" xmlns="http://www.w3.org/2000/svg" xmlns:xlink="http://www.w3.org/1999/xlink" x="0px" y="0px"
	 viewBox="0 0 122.9 110.8" style="enable-background:new 0 0 122.9 110.8;" xml:space="preserve">
<g>
	<path d="M54,20.4c10,0,19.1,4.1,25.7,10.6s10.7,15.7,10.7,25.7s-4.1,19.1-10.7,25.7S64.1,93.1,54,93.1c-10,0-19.1-4.1-25.7-10.7
		S17.7,66.8,17.7,56.7S21.8,37.6,28.3,31C34.9,24.5,44,20.4,54,20.4L54,20.4z M106.8,26.5h-0.4c0-3.5-1.3-6.5-3.9-9.1
		c-2.6-2.6-5.6-3.9-9.1-3.9V13c3.5,0,6.5-1.3,9.1-3.9c2.6-2.6,3.9-5.7,3.9-9.1h0.4c0,3.5,1.3,6.5,3.9,9.1c2.6,2.6,5.7,3.9,9.1,3.9
		v0.4c-3.5,0-6.5,1.3-9.1,3.9C108.1,20,106.8,23,106.8,26.5L106.8,26.5z M114.9,48.3h-0.3c0-2.1-0.8-4-2.4-5.6s-3.5-2.4-5.6-2.4V40
		c2.1,0,4-0.8,5.6-2.4c1.6-1.6,2.4-3.5,2.4-5.6h0.3c0,2.1,0.8,4,2.4,5.6s3.5,2.4,5.6,2.4v0.3c-2.1,0-4,0.8-5.6,2.4
		C115.7,44.3,114.9,46.1,114.9,48.3L114.9,48.3L114.9,48.3z M91.7,40.4h-0.2c0-1.6-0.6-3-1.8-4.2c-1.2-1.2-2.6-1.8-4.2-1.8v-0.2
		c1.6,0,3-0.6,4.2-1.8c1.2-1.2,1.8-2.6,1.8-4.2h0.2c0,1.6,0.6,3,1.8,4.2c1.2,1.2,2.6,1.8,4.2,1.8v0.2c-1.6,0-3,0.6-4.2,1.8
		C92.3,37.5,91.7,38.8,91.7,40.4L91.7,40.4L91.7,40.4z M73.9,63c0.2-0.7,0.9-1.1,1.7-0.9c0.7,0.2,1.1,1,0.9,1.7
		c-1.2,4-3.2,7.3-5.6,9.8c-2.7,2.8-5.8,4.7-9.1,5.5c-0.7,0.2-1.4-0.2-1.6-1c-0.2-0.7,0.2-1.4,1-1.6c2.8-0.7,5.5-2.3,7.8-4.8
		C71.1,69.4,72.9,66.5,73.9,63L73.9,63z M54,2.7c14.9,0,28.4,6.1,38.2,15.8s15.8,23.3,15.8,38.2S102,85.2,92.2,95S69,110.8,54,110.8
		S25.6,104.7,15.8,95C6.1,85.2,0,71.7,0,56.7s6.1-28.4,15.8-38.2S39.1,2.7,54,2.7L54,2.7z M89.8,21C80.6,11.9,68,6.2,54,6.2
		c-14,0-26.6,5.6-35.7,14.8S3.5,42.8,3.5,56.7c0,14,5.7,26.6,14.8,35.7s21.8,14.8,35.7,14.8s26.6-5.7,35.7-14.8s14.8-21.8,14.8-35.7
		C104.5,42.8,98.9,30.2,89.8,21L89.8,21z M77.6,33.2c-6-6-14.4-9.8-23.6-9.8s-17.5,3.7-23.6,9.8s-9.8,14.4-9.8,23.6
		s3.7,17.5,9.8,23.6c6,6,14.4,9.8,23.6,9.8s17.5-3.7,23.6-9.8s9.8-14.4,9.8-23.6C87.4,47.5,83.6,39.2,77.6,33.2L77.6,33.2z"/>
</g>
<path d="M42,47.3h8.6V48h-7.8v5.2h7.3v0.7h-7.3v5.7h7.9v0.7H42V47.3z M51.4,47.3h0.9l4,5.7l4.1-5.7l5.6-7.2l-9.2,13.4l4.8,6.6h-1
	l-4.3-6l-4.4,6h-0.9l4.8-6.6L51.4,47.3z M62,48v-0.7h9.8V48h-4.5v12.2h-0.8V48H62L62,48z M31.2,47.3h1l13.6,20.4l-5.6-7.5l-8.1-11.9
	l0,11.9h-0.8V47.3z M71.7,59.3c-0.2,0-0.3-0.1-0.3-0.3c0-0.2,0.1-0.3,0.3-0.3c0.2,0,0.3,0.1,0.3,0.3c0,0,0,0,0,0
	C72,59.2,71.8,59.3,71.7,59.3C71.7,59.3,71.7,59.3,71.7,59.3z M72.5,58.5h0.4c0,0.2,0.2,0.4,0.4,0.4c0,0,0,0,0,0
	c0.3,0,0.4-0.2,0.4-0.5v-2h0.4v2c0,0.6-0.3,0.9-0.9,0.9C72.8,59.3,72.5,59,72.5,58.5L72.5,58.5z M74.7,58.5h0.4
	c0,0.3,0.3,0.4,0.7,0.4c0.3,0,0.6-0.2,0.6-0.4c0-0.2-0.2-0.3-0.5-0.4L75.5,58c-0.5-0.1-0.7-0.4-0.7-0.8c0-0.5,0.4-0.8,1-0.8
	c0.6,0,1,0.3,1,0.8h-0.4c0-0.3-0.3-0.4-0.6-0.4c-0.3,0-0.6,0.2-0.6,0.4c0,0.2,0.1,0.3,0.5,0.4l0.3,0.1c0.6,0.1,0.8,0.4,0.8,0.8
	c0,0.5-0.4,0.9-1.1,0.9C75.2,59.3,74.7,59,74.7,58.5L74.7,58.5z"/>
</svg>
