<svg width="1182" height="382" viewBox="0 0 1182 382" fill="none" xmlns="http://www.w3.org/2000/svg">
<g filter="url(#filter0_d)">
<path d="M70.2479 97.744C73.4959 97.8987 77.7492 98.0533 83.0079 98.208C88.2666 98.3627 93.4479 98.44 98.5519 98.44C105.821 98.44 112.781 98.3627 119.432 98.208C126.083 98.0533 130.8 97.976 133.584 97.976C149.824 97.976 162.043 101.379 170.24 108.184C178.437 114.989 182.536 123.728 182.536 134.4C182.536 139.813 181.376 145.149 179.056 150.408C176.891 155.512 173.179 160.229 167.92 164.56C162.816 168.736 155.933 172.139 147.272 174.768V175.232C159.491 176.779 169.003 179.717 175.808 184.048C182.768 188.224 187.64 193.173 190.424 198.896C193.208 204.619 194.6 210.651 194.6 216.992C194.6 230.139 189.651 240.965 179.752 249.472C170.008 257.824 156.397 262 138.92 262C135.517 262 130.413 261.923 123.608 261.768C116.803 261.459 108.605 261.304 99.0159 261.304C93.6026 261.304 88.2666 261.381 83.0079 261.536C77.7492 261.536 73.4959 261.691 70.2479 262V257.36C75.5066 257.051 79.4506 256.432 82.0799 255.504C84.8639 254.576 86.7199 252.72 87.6479 249.936C88.5759 247.152 89.0399 242.976 89.0399 237.408V122.336C89.0399 116.613 88.5759 112.437 87.6479 109.808C86.7199 107.024 84.8639 105.168 82.0799 104.24C79.4506 103.157 75.5066 102.539 70.2479 102.384V97.744ZM127.784 102.384C120.669 102.384 116.029 103.699 113.864 106.328C111.699 108.957 110.616 114.293 110.616 122.336V237.408C110.616 245.451 111.699 250.709 113.864 253.184C116.184 255.504 120.901 256.664 128.016 256.664C143.173 256.664 154.155 253.184 160.96 246.224C167.92 239.109 171.4 229.056 171.4 216.064C171.4 204.155 168.152 194.952 161.656 188.456C155.315 181.96 144.797 178.712 130.104 178.712H106.208C106.208 178.712 106.208 178.093 106.208 176.856C106.208 175.464 106.208 174.768 106.208 174.768H126.16C135.285 174.768 142.323 173.067 147.272 169.664C152.221 166.107 155.624 161.467 157.48 155.744C159.336 149.867 160.264 143.603 160.264 136.952C160.264 125.507 157.712 116.923 152.608 111.2C147.659 105.323 139.384 102.384 127.784 102.384ZM278.401 96.584L335.009 242.512C337.329 248.389 339.958 252.333 342.897 254.344C345.836 256.2 348.542 257.205 351.017 257.36V262C347.924 261.691 344.134 261.536 339.649 261.536C335.164 261.381 330.678 261.304 326.193 261.304C320.161 261.304 314.516 261.381 309.257 261.536C303.998 261.536 299.745 261.691 296.497 262V257.36C304.385 257.051 309.412 255.736 311.577 253.416C313.742 250.941 313.278 245.76 310.185 237.872L267.033 122.568L270.745 119.552L230.377 224.416C227.129 232.768 225.582 239.341 225.737 244.136C225.892 248.776 227.67 252.101 231.073 254.112C234.476 256.123 239.425 257.205 245.921 257.36V262C241.59 261.691 237.028 261.536 232.233 261.536C227.593 261.381 223.262 261.304 219.241 261.304C215.374 261.304 212.049 261.381 209.265 261.536C206.636 261.536 204.161 261.691 201.841 262V257.36C204.934 256.587 208.105 254.808 211.353 252.024C214.601 249.085 217.54 244.136 220.169 237.176L274.689 96.584C275.308 96.584 275.926 96.584 276.545 96.584C277.164 96.584 277.782 96.584 278.401 96.584ZM306.705 195.184V199.824H237.569L239.889 195.184H306.705ZM500.506 97.744V102.384C495.248 102.539 491.226 103.312 488.442 104.704C485.813 106.096 484.034 108.339 483.106 111.432C482.178 114.525 481.714 118.933 481.714 124.656V263.16C480.786 263.16 479.858 263.16 478.93 263.16C478.157 263.16 477.306 263.16 476.378 263.16L378.938 112.592V235.088C378.938 240.656 379.402 245.064 380.33 248.312C381.413 251.405 383.424 253.648 386.362 255.04C389.456 256.277 394.018 257.051 400.05 257.36V262C397.266 261.691 393.632 261.536 389.146 261.536C384.661 261.381 380.408 261.304 376.386 261.304C372.52 261.304 368.576 261.381 364.554 261.536C360.688 261.536 357.44 261.691 354.81 262V257.36C360.069 257.051 364.013 256.277 366.642 255.04C369.426 253.648 371.282 251.405 372.21 248.312C373.138 245.064 373.602 240.656 373.602 235.088V122.336C373.602 116.613 373.138 112.437 372.21 109.808C371.282 107.024 369.426 105.168 366.642 104.24C364.013 103.157 360.069 102.539 354.81 102.384V97.744C357.44 97.8987 360.688 98.0533 364.554 98.208C368.576 98.3627 372.52 98.44 376.386 98.44C379.789 98.44 383.037 98.3627 386.13 98.208C389.224 98.0533 392.008 97.8987 394.482 97.744L476.378 223.952V124.656C476.378 118.933 475.837 114.525 474.754 111.432C473.826 108.339 471.816 106.096 468.722 104.704C465.784 103.312 461.298 102.539 455.266 102.384V97.744C458.05 97.8987 461.685 98.0533 466.17 98.208C470.81 98.3627 475.064 98.44 478.93 98.44C482.952 98.44 486.896 98.3627 490.762 98.208C494.784 98.0533 498.032 97.8987 500.506 97.744ZM680.821 267.336L684.301 268.728C682.445 275.069 680.28 280.328 677.805 284.504C675.485 288.835 672.778 292.392 669.685 295.176C666.747 297.805 662.725 300.203 657.621 302.368C652.672 304.533 646.253 305.616 638.365 305.616C630.168 305.616 622.202 304.224 614.469 301.44C606.89 298.811 599.002 295.563 590.805 291.696C582.608 287.829 573.56 284.272 563.661 281.024C562.578 280.715 561.573 280.405 560.645 280.096C559.717 279.787 558.866 279.555 558.093 279.4C555.154 280.483 551.984 281.333 548.581 281.952C545.178 282.571 541.93 282.88 538.837 282.88C535.744 282.88 533.192 282.493 531.181 281.72C529.17 280.947 528.165 279.787 528.165 278.24C528.165 274.992 532.341 273.368 540.693 273.368C546.106 273.368 551.906 273.987 558.093 275.224C563.661 273.677 568.456 271.899 572.477 269.888C576.498 268.032 580.597 266.253 584.773 264.552C589.104 262.851 594.285 261.768 600.317 261.304L600.549 265.016C595.909 265.48 591.888 266.331 588.485 267.568C585.082 268.96 581.68 270.429 578.277 271.976C574.874 273.523 570.853 274.992 566.213 276.384C573.946 277.931 582.376 279.555 591.501 281.256C600.626 282.957 609.442 284.427 617.949 285.664C626.456 286.901 633.725 287.52 639.757 287.52C650.893 287.52 659.632 285.896 665.973 282.648C672.469 279.4 677.418 274.296 680.821 267.336ZM593.357 94.496C608.05 94.496 620.888 97.8213 631.869 104.472C643.005 111.123 651.589 120.712 657.621 133.24C663.808 145.613 666.901 160.693 666.901 178.48C666.901 195.803 663.73 210.96 657.389 223.952C651.202 236.944 642.541 247.075 631.405 254.344C620.269 261.613 607.509 265.248 593.125 265.248C578.432 265.248 565.517 261.923 554.381 255.272C543.4 248.621 534.816 239.032 528.629 226.504C522.597 213.976 519.581 198.896 519.581 181.264C519.581 163.941 522.752 148.784 529.093 135.792C535.434 122.8 544.096 112.669 555.077 105.4C566.213 98.1307 578.973 94.496 593.357 94.496ZM592.429 98.672C582.376 98.672 573.637 102.152 566.213 109.112C558.789 116.072 552.989 125.661 548.813 137.88C544.792 150.099 542.781 164.251 542.781 180.336C542.781 196.731 545.024 211.037 549.509 223.256C554.149 235.32 560.336 244.677 568.069 251.328C575.957 257.824 584.618 261.072 594.053 261.072C604.106 261.072 612.845 257.592 620.269 250.632C627.693 243.672 633.416 234.083 637.437 221.864C641.613 209.491 643.701 195.339 643.701 179.408C643.701 162.859 641.381 148.552 636.741 136.488C632.256 124.424 626.146 115.144 618.413 108.648C610.68 101.997 602.018 98.672 592.429 98.672ZM829.847 97.744V102.384C824.588 102.539 820.567 103.312 817.783 104.704C815.153 106.096 813.375 108.339 812.447 111.432C811.519 114.525 811.055 118.933 811.055 124.656V194.488C811.055 205.315 810.359 214.749 808.967 222.792C807.575 230.835 805.1 237.795 801.543 243.672C797.676 250.168 792.031 255.427 784.607 259.448C777.183 263.315 768.676 265.248 759.087 265.248C751.663 265.248 744.548 264.32 737.743 262.464C731.092 260.763 725.215 257.515 720.111 252.72C715.625 248.389 712.068 243.827 709.439 239.032C706.964 234.237 705.263 228.36 704.335 221.4C703.407 214.44 702.943 205.701 702.943 195.184V122.336C702.943 116.613 702.479 112.437 701.551 109.808C700.623 107.024 698.767 105.168 695.983 104.24C693.353 103.157 689.409 102.539 684.151 102.384V97.744C687.399 97.8987 691.652 98.0533 696.911 98.208C702.169 98.3627 707.815 98.44 713.847 98.44C719.26 98.44 724.596 98.3627 729.855 98.208C735.268 98.0533 739.753 97.8987 743.311 97.744V102.384C738.052 102.539 734.031 103.157 731.247 104.24C728.617 105.168 726.839 107.024 725.911 109.808C724.983 112.437 724.519 116.613 724.519 122.336V199.128C724.519 209.645 725.292 219.312 726.839 228.128C728.385 236.944 731.711 243.981 736.815 249.24C742.073 254.499 750.193 257.128 761.175 257.128C772.929 257.128 781.977 254.576 788.319 249.472C794.815 244.213 799.3 237.021 801.775 227.896C804.404 218.771 805.719 208.485 805.719 197.04V124.656C805.719 118.933 805.023 114.525 803.631 111.432C802.393 108.339 800.228 106.096 797.135 104.704C794.041 103.312 789.865 102.539 784.607 102.384V97.744C787.391 97.8987 791.025 98.0533 795.511 98.208C800.151 98.3627 804.404 98.44 808.271 98.44C812.292 98.44 816.236 98.3627 820.103 98.208C824.124 98.0533 827.372 97.8987 829.847 97.744ZM961.539 97.744C960.921 103.157 960.457 108.416 960.147 113.52C959.993 118.624 959.915 122.491 959.915 125.12C959.915 127.904 959.993 130.611 960.147 133.24C960.302 135.715 960.457 137.803 960.611 139.504H955.275C954.347 130.379 953.033 123.187 951.331 117.928C949.63 112.515 946.691 108.725 942.515 106.56C938.494 104.24 932.385 103.08 924.187 103.08H904.931C899.673 103.08 895.651 103.544 892.867 104.472C890.238 105.245 888.459 107.024 887.531 109.808C886.603 112.437 886.139 116.613 886.139 122.336V237.408C886.139 242.976 886.603 247.152 887.531 249.936C888.459 252.72 890.238 254.576 892.867 255.504C895.651 256.277 899.673 256.664 904.931 256.664H921.867C931.611 256.664 938.958 255.349 943.907 252.72C949.011 250.091 952.646 245.837 954.811 239.96C957.131 233.928 958.833 225.808 959.915 215.6H965.251C964.787 219.776 964.555 225.344 964.555 232.304C964.555 235.243 964.633 239.496 964.787 245.064C965.097 250.477 965.561 256.123 966.179 262C958.291 261.691 949.398 261.536 939.499 261.536C929.601 261.381 920.785 261.304 913.051 261.304C908.411 261.304 902.225 261.304 894.491 261.304C886.913 261.304 878.793 261.381 870.131 261.536C861.47 261.536 853.35 261.691 845.771 262V257.36C851.03 257.051 854.974 256.432 857.603 255.504C860.387 254.576 862.243 252.72 863.171 249.936C864.099 247.152 864.563 242.976 864.563 237.408V122.336C864.563 116.613 864.099 112.437 863.171 109.808C862.243 107.024 860.387 105.168 857.603 104.24C854.974 103.157 851.03 102.539 845.771 102.384V97.744C853.35 97.8987 861.47 98.0533 870.131 98.208C878.793 98.3627 886.913 98.44 894.491 98.44C902.225 98.44 908.411 98.44 913.051 98.44C920.166 98.44 928.209 98.44 937.179 98.44C946.305 98.2853 954.425 98.0533 961.539 97.744ZM921.635 177.088C921.635 177.088 921.635 177.861 921.635 179.408C921.635 180.955 921.635 181.728 921.635 181.728H879.179C879.179 181.728 879.179 180.955 879.179 179.408C879.179 177.861 879.179 177.088 879.179 177.088H921.635ZM928.363 146.464C927.745 155.28 927.435 162.008 927.435 166.648C927.59 171.288 927.667 175.541 927.667 179.408C927.667 183.275 927.745 187.528 927.899 192.168C928.054 196.808 928.441 203.536 929.059 212.352H923.723C923.105 207.403 922.331 202.608 921.403 197.968C920.63 193.173 918.774 189.307 915.835 186.368C913.051 183.275 908.257 181.728 901.451 181.728V177.088C908.257 177.088 912.974 175.309 915.603 171.752C918.387 168.195 920.166 164.019 920.939 159.224C921.713 154.429 922.409 150.176 923.027 146.464H928.363ZM1114.75 97.744C1114.13 103.621 1113.66 109.344 1113.35 114.912C1113.2 120.325 1113.12 124.501 1113.12 127.44C1113.12 131.152 1113.2 134.632 1113.35 137.88C1113.51 141.128 1113.66 143.989 1113.82 146.464H1108.48C1107.4 135.637 1105.93 127.131 1104.07 120.944C1102.22 114.603 1098.97 110.04 1094.33 107.256C1089.69 104.472 1082.5 103.08 1072.75 103.08H1060.23V235.088C1060.23 241.275 1060.77 245.915 1061.85 249.008C1063.09 252.101 1065.41 254.189 1068.81 255.272C1072.21 256.355 1077.16 257.051 1083.66 257.36V262C1079.64 261.691 1074.53 261.536 1068.35 261.536C1062.16 261.381 1055.9 261.304 1049.55 261.304C1042.59 261.304 1036.02 261.381 1029.83 261.536C1023.8 261.536 1018.93 261.691 1015.22 262V257.36C1021.71 257.051 1026.66 256.355 1030.07 255.272C1033.47 254.189 1035.71 252.101 1036.79 249.008C1038.03 245.915 1038.65 241.275 1038.65 235.088V103.08H1026.12C1016.53 103.08 1009.34 104.472 1004.55 107.256C999.906 110.04 996.658 114.603 994.802 120.944C992.946 127.131 991.477 135.637 990.394 146.464H985.058C985.368 143.989 985.522 141.128 985.522 137.88C985.677 134.632 985.754 131.152 985.754 127.44C985.754 124.501 985.6 120.325 985.29 114.912C985.136 109.344 984.749 103.621 984.13 97.744C990.626 97.8987 997.664 98.0533 1005.24 98.208C1012.98 98.3627 1020.71 98.44 1028.44 98.44C1036.18 98.44 1043.21 98.44 1049.55 98.44C1055.9 98.44 1062.86 98.44 1070.43 98.44C1078.17 98.44 1085.9 98.3627 1093.63 98.208C1101.37 98.0533 1108.41 97.8987 1114.75 97.744Z" fill="#E9C46A"/>
</g>
<defs>
<filter id="filter0_d" x="60.2478" y="88.496" width="1064.5" height="231.12" filterUnits="userSpaceOnUse" color-interpolation-filters="sRGB">
<feFlood flood-opacity="0" result="BackgroundImageFix"/>
<feColorMatrix in="SourceAlpha" type="matrix" values="0 0 0 0 0 0 0 0 0 0 0 0 0 0 0 0 0 0 127 0" result="hardAlpha"/>
<feOffset dy="4"/>
<feGaussianBlur stdDeviation="5"/>
<feComposite in2="hardAlpha" operator="out"/>
<feColorMatrix type="matrix" values="0 0 0 0 0 0 0 0 0 0 0 0 0 0 0 0 0 0 0.6 0"/>
<feBlend mode="normal" in2="BackgroundImageFix" result="effect1_dropShadow"/>
<feBlend mode="normal" in="SourceGraphic" in2="effect1_dropShadow" result="shape"/>
</filter>
</defs>
</svg>
